<svg width="1522" height="680" viewBox="0 0 1522 680" fill="none" xmlns="http://www.w3.org/2000/svg">
<path d="M962.109 1.92983L959.59 4.0889L959.23 118.64L958.99 233.191L950.954 233.551L942.797 233.911V126.677C942.797 24.1203 942.677 19.2024 940.638 16.5636C938.119 13.5649 931.762 12.8452 929.243 15.3641C928.163 16.4436 927.684 42.2326 927.204 124.997L926.604 233.191L918.567 233.551L910.411 233.911V181.013V128.116L907.412 125.237C903.934 121.639 900.815 121.399 897.097 124.517L894.218 126.796L893.858 180.294L893.498 233.791H885.821H878.025V208.482C878.025 183.892 877.425 179.454 873.946 177.175C871.428 175.376 866.39 176.215 864.111 178.734C862.072 181.013 861.832 183.652 861.472 207.522L861.112 233.791H852.716H844.439V202.004C844.439 171.777 844.319 170.098 842.04 167.819C838.921 164.7 835.923 164.82 831.964 167.939L828.846 170.338V202.124V233.791H820.449H812.053V209.801C812.053 187.371 811.933 185.691 809.654 183.412C808.335 182.093 805.936 181.013 804.256 181.013C802.577 181.013 800.178 182.093 798.859 183.412C796.58 185.691 796.46 187.371 796.46 209.801V233.791H788.063H779.667V205.603C779.667 178.974 779.547 177.295 777.268 175.016C775.948 173.696 773.549 172.617 771.87 172.617C770.191 172.617 767.792 173.696 766.472 175.016C764.193 177.295 764.073 178.974 764.073 205.603V233.791H755.677H747.281V213.04C747.281 189.41 746.561 187.011 739.484 187.011C732.407 187.011 731.687 189.41 731.687 213.04V233.791H723.291H714.894V220.237C714.894 208.122 714.655 206.322 712.495 204.403C709.497 201.764 704.699 201.764 701.7 204.403C699.541 206.322 699.301 208.122 699.301 220.237V233.791H690.905H682.508V225.634C682.508 215.678 680.589 212.2 674.832 212.2C668.714 212.2 666.915 215.079 666.915 225.154V233.791H658.519H650.122V227.913C650.122 222.875 649.642 221.556 647.003 219.517C642.925 216.398 640.526 216.398 637.168 219.397C635.129 221.316 634.529 223.235 634.529 227.793V233.791H626.132C617.976 233.791 617.736 233.671 617.736 230.792C617.736 226.594 613.778 222.995 608.98 222.995C604.422 222.995 601.543 225.514 600.343 230.432C599.504 233.671 599.144 233.791 591.827 233.791C584.75 233.791 584.03 233.551 582.951 230.912C580.432 224.195 571.916 223.595 567.957 229.832C565.678 233.551 565.198 233.671 558.121 233.791C551.524 233.791 550.445 233.431 547.206 230.192C542.288 225.274 537.13 225.274 532.572 230.192C529.574 233.431 528.494 233.791 521.777 233.791C515.3 233.791 513.86 233.431 511.461 230.792C509.902 229.113 507.383 227.793 505.584 227.793C503.905 227.793 501.146 229.113 499.467 230.792C496.948 233.431 495.388 233.791 488.671 233.791C482.794 233.791 480.035 233.191 477.876 231.512C474.757 229.113 469.959 229.353 467.68 232.111C466.001 234.151 449.208 234.51 448.009 232.591C447.049 230.912 440.572 231.032 439.492 232.711C439.012 233.551 434.694 233.911 427.137 233.671C420.78 233.551 322.422 233.431 208.471 233.551L1.19952 233.791V236.789V239.788L209.071 239.908C323.262 240.028 421.98 239.908 428.337 239.788C435.654 239.668 440.212 240.028 440.692 240.868C441.771 242.547 447.049 242.547 448.009 240.988C448.368 240.268 452.926 239.788 458.204 239.788C465.401 239.788 467.68 240.148 468.28 241.587C469.12 243.986 476.676 243.986 478.595 241.587C479.675 240.268 482.554 239.788 488.671 239.788C495.868 239.788 497.427 240.148 498.747 242.187C500.786 245.546 508.583 245.546 511.581 242.187C513.381 240.268 515.3 239.788 522.017 239.788C528.254 239.788 530.413 240.268 531.013 241.587C531.373 242.667 533.292 244.346 535.211 245.306C539.769 247.705 545.287 246.505 547.686 242.667C549.485 240.148 550.445 239.788 557.762 239.788C565.198 239.788 565.918 240.028 567.118 242.787C569.996 249.144 579.832 249.144 582.711 242.667C584.03 240.028 584.75 239.788 591.827 239.788C599.024 239.788 599.504 240.028 600.223 242.787C602.143 250.584 610.779 253.222 615.217 247.465C616.656 245.666 617.736 243.267 617.736 242.067C617.736 240.028 618.696 239.788 626.132 239.788H634.529V245.546C634.529 252.383 636.928 255.381 642.565 255.381C647.603 255.381 650.122 252.143 650.122 245.426V239.788H658.519H666.915V248.185C666.915 257.541 669.194 261.379 674.712 261.379C680.229 261.379 682.508 257.541 682.508 248.185V239.788H690.905H699.301V252.983C699.301 264.618 699.541 266.417 701.7 268.576C704.819 271.695 709.377 271.695 712.495 268.576C714.655 266.417 714.894 264.618 714.894 252.983V239.788H723.291H731.687V260.779C731.687 280.211 731.927 282.01 734.086 284.169C737.205 287.288 741.763 287.288 744.882 284.169C747.041 282.01 747.281 280.211 747.281 260.779V239.788H755.677H764.073V267.856V296.044L767.192 298.443C771.15 301.562 772.59 301.562 776.548 298.443L779.667 296.044V267.856V239.788H788.063H796.46V263.658V287.648L799.578 290.047C803.537 293.165 804.976 293.165 808.934 290.047L812.053 287.648V263.658V239.788H820.449H828.846V271.455V303.241L831.964 305.64C835.923 308.759 837.362 308.759 841.32 305.64L844.439 303.241V271.455V239.788H852.716H861.112L861.472 266.297C861.832 292.446 861.832 292.806 864.71 295.085C868.429 298.203 871.548 297.963 875.026 294.365C878.025 291.486 878.025 291.486 878.025 265.577V239.788H885.821H893.618V290.646C893.618 344.503 893.978 348.222 899.136 350.141C902.734 351.58 907.412 349.901 909.091 346.662C909.931 345.103 910.411 326.631 910.411 292.086V239.788H918.807H927.204V355.179C927.204 418.752 927.684 471.289 928.163 472.009C931.162 476.687 938.959 476.327 941.478 471.409C942.437 469.85 942.797 432.906 942.797 354.459V239.788H951.193H959.59V372.092C959.59 498.877 959.71 504.635 961.749 506.434C964.508 508.953 969.186 509.073 972.304 506.794C974.583 505.115 974.583 502.116 974.943 372.451L975.183 239.788H983.58H991.976V344.024V448.379L994.615 450.178C998.573 452.937 1002.29 452.457 1005.05 448.979C1007.57 445.74 1007.57 445.14 1007.57 342.824V239.788H1015.97H1024.36V311.038V382.407L1027 384.206C1030.84 386.845 1033.6 386.605 1036.96 383.127L1039.96 380.248V309.958V239.788H1048.35H1056.75V295.324C1056.75 347.742 1056.87 351.101 1058.91 352.9C1061.91 355.659 1067.06 355.419 1069.94 352.54C1072.22 350.261 1072.34 348.582 1072.34 294.965V239.788H1080.74H1089.13V280.571C1089.13 319.794 1089.25 321.473 1091.53 323.752C1094.89 327.111 1099.21 326.751 1102.21 323.033C1104.61 319.914 1104.73 318.475 1104.73 279.851V239.788H1113.12H1121.52V273.734C1121.52 305.16 1121.64 307.919 1123.68 309.718C1126.92 312.717 1133.04 312.357 1135.19 309.119C1136.87 306.84 1137.11 301.322 1137.11 273.134V239.788H1145.51H1153.91V284.169C1153.91 326.991 1154.03 328.67 1156.31 330.949C1159.42 334.068 1163.98 334.068 1167.1 330.949C1169.38 328.67 1169.5 326.991 1169.5 284.169V239.788H1177.9H1186.29V261.979C1186.29 283.21 1186.41 284.169 1188.93 286.568C1192.41 289.807 1195.41 289.567 1198.89 285.968C1201.89 283.09 1201.89 282.85 1201.89 261.379V239.788H1210.28H1218.68V285.848V332.029L1221.8 334.428C1225.88 337.666 1227.8 337.546 1231.27 333.948L1234.27 331.069V285.369V239.788H1242.67H1251.07V299.763C1251.07 358.178 1251.19 359.857 1253.46 362.136C1256.7 365.374 1260.9 365.135 1264.02 361.776C1266.66 359.017 1266.66 358.897 1266.66 299.403V239.788H1275.06H1283.45V281.17C1283.45 320.993 1283.57 322.673 1285.85 324.952C1288.97 328.07 1291.97 327.95 1295.93 324.832L1299.04 322.433V281.051V239.788H1307.44H1315.84V267.976C1315.84 294.605 1315.96 296.284 1318.24 298.563C1321.36 301.682 1325.91 301.682 1329.03 298.563C1331.31 296.284 1331.43 294.605 1331.43 267.976V239.788H1339.83H1348.22V300.722C1348.22 368.613 1347.98 366.934 1356.02 366.934C1364.06 366.934 1363.82 368.613 1363.82 300.722V239.788H1372.21H1380.61V259.94C1380.61 282.97 1381.33 285.369 1388.41 285.369C1395.48 285.369 1396.2 282.97 1396.2 259.94V239.788H1404.6H1413V262.578C1413 283.809 1413.12 285.489 1415.4 287.768C1416.71 289.087 1419.11 290.167 1420.79 290.167C1422.47 290.167 1424.87 289.087 1426.19 287.768C1428.47 285.489 1428.59 283.809 1428.59 262.578V239.788H1436.99H1445.38V254.782C1445.38 268.216 1445.62 270.015 1447.78 272.174C1450.9 275.293 1455.46 275.293 1458.58 272.174C1460.74 270.015 1460.98 268.216 1460.98 254.782V239.788H1469.37H1477.77V246.865C1477.77 253.102 1478.13 254.302 1480.89 256.461C1484.85 259.58 1486.28 259.58 1490.24 256.461C1493 254.302 1493.36 253.102 1493.36 246.865V239.788H1507.16H1520.95V236.789V233.791H1507.16H1493.36V226.594C1493.36 218.437 1490.84 214.599 1485.57 214.599C1480.29 214.599 1477.77 218.437 1477.77 226.594V233.791H1469.37H1460.98V218.437C1460.98 201.165 1460.02 199.006 1452.94 199.006C1446.34 199.006 1445.38 201.644 1445.38 218.557V233.791H1436.99H1428.59V211.24C1428.59 185.571 1427.99 183.412 1420.79 183.412C1413.6 183.412 1413 185.571 1413 211.24V233.791H1404.6H1396.2V212.92V191.929L1393.08 189.53C1389.13 186.411 1387.69 186.411 1383.73 189.53L1380.61 191.929V212.92V233.791H1372.21H1363.82V172.137V110.363L1360.7 107.965C1356.74 104.846 1355.3 104.846 1351.34 107.965L1348.22 110.363V172.137V233.791H1339.83H1331.43V205.843C1331.43 174.416 1331.07 172.617 1323.75 172.617C1316.08 172.617 1315.84 173.696 1315.84 205.363V233.791H1307.44H1299.04V192.408C1299.04 152.585 1298.92 150.906 1296.65 148.627C1295.33 147.308 1292.93 146.228 1291.25 146.228C1289.57 146.228 1287.17 147.308 1285.85 148.627C1283.57 150.906 1283.45 152.585 1283.45 192.408V233.791H1275.06H1266.66V173.816C1266.66 115.401 1266.54 113.722 1264.26 111.443C1261.26 108.444 1255.62 108.324 1253.1 111.203C1251.31 113.242 1251.07 119.24 1251.07 173.576V233.791H1242.67H1234.27V187.85V141.79L1231.51 139.271C1228.04 136.033 1224.2 135.913 1221.08 139.031C1218.8 141.31 1218.68 142.99 1218.68 187.61V233.791H1210.28H1201.89V211.6C1201.89 190.969 1201.77 189.29 1199.49 187.011C1196.61 184.132 1192.65 183.892 1188.93 186.531C1186.41 188.33 1186.29 188.93 1186.29 211.12V233.791H1177.9H1169.5V189.65C1169.5 140.471 1169.5 140.231 1161.82 140.231C1153.79 140.231 1153.91 139.631 1153.91 189.17V233.791H1145.51H1137.11V200.205V166.499L1134.12 163.621C1130.64 160.022 1127.16 159.782 1123.92 163.021C1121.64 165.3 1121.52 166.979 1121.52 199.605V233.791H1113.12H1104.73V193.008C1104.73 153.785 1104.61 152.106 1102.33 149.827C1099.33 146.828 1093.69 146.708 1091.17 149.587C1089.37 151.506 1089.13 156.664 1088.89 192.528L1088.53 233.191L1080.5 233.551L1072.34 233.911V178.974C1072.34 117.68 1072.46 118.64 1064.66 118.64C1056.63 118.64 1056.75 116.961 1056.51 178.135L1056.15 233.191L1048.11 233.551L1039.96 233.911V163.261C1039.96 93.9305 1039.96 92.6111 1037.56 90.0921C1034.56 86.8535 1029.04 86.6136 1026.4 89.6123C1024.6 91.6515 1024.36 98.4886 1024.36 162.781V233.791H1015.97H1007.57V138.551C1007.57 44.1518 1007.57 43.4321 1005.05 40.1935C1002.17 36.595 998.093 36.1152 994.495 39.1139L991.976 41.273L991.616 137.232L991.376 233.191L983.34 233.551L975.183 233.911V119.839V5.76818L972.184 2.88941C968.706 -0.589098 965.587 -0.948945 962.109 1.92983Z" fill="black"/>
<path d="M645.324 35.8753C611.978 37.9144 593.386 44.5116 585.35 57.1062C575.514 72.5796 573.355 90.2121 573.355 155.104C573.355 204.643 573.355 205.963 575.874 209.081L578.273 212.2H613.538H648.803L651.202 209.081C653.601 205.963 653.721 204.643 653.721 159.902C653.721 131.474 654.2 111.683 655.04 107.845C656.479 100.888 659.478 98.2487 665.835 98.2487C671.473 98.2487 676.031 101.847 677.71 107.605C678.31 110.124 678.91 124.877 678.91 141.07C678.91 171.897 679.39 174.896 684.547 177.295C686.467 178.135 698.581 178.614 719.692 178.614H751.959L755.317 175.736L758.676 172.857L758.556 139.391C758.436 93.4507 756.157 75.8182 748.12 59.8651C743.562 50.629 737.085 45.7111 724.73 41.8728C707.818 36.595 674.952 34.0761 645.324 35.8753Z" fill="black"/>
<path d="M456.525 40.7932L453.406 43.1922V130.635C453.406 214.839 453.526 218.077 455.685 220.716L457.964 223.595H492.869C527.535 223.595 527.774 223.595 530.413 220.836L533.172 218.077V131.115V44.0318L529.814 41.1531L526.455 38.2743H493.109C461.203 38.2743 459.644 38.3943 456.525 40.7932Z" fill="black"/>
<path d="M4.43818 42.8324C2.519 44.8715 2.39905 52.7881 2.39905 132.674C2.39905 215.918 2.519 220.356 4.55812 222.156C6.4773 223.955 10.9154 224.195 42.342 224.195H77.8468L80.2458 221.076C82.7647 217.957 82.7647 216.758 82.7647 162.301C82.7647 108.204 82.8846 106.525 85.1637 104.246C89.9616 99.4482 101.477 102.327 105.195 109.284C107.114 112.882 107.354 118.04 107.954 166.979C108.554 218.437 108.674 220.836 110.833 222.516C112.752 223.835 119.829 224.195 148.137 224.195C182.202 224.195 183.162 224.075 185.441 221.676C187.6 219.277 187.72 216.398 188.08 174.536C188.679 107.125 186.4 85.1743 177.404 68.1415C172.966 59.985 168.048 55.1871 159.292 50.749C141.66 41.8728 130.744 40.6733 62.8532 40.6733C9.59597 40.6733 6.23741 40.7932 4.43818 42.8324Z" fill="black"/>
<path d="M230.541 43.4321L227.903 46.1909V133.274C227.903 217.238 228.023 220.476 230.182 223.115L232.461 225.994L266.046 226.354L299.512 226.714L303.35 223.595L307.069 220.356V133.514V46.5508L304.07 43.672L301.191 40.6733H267.126C233.18 40.6733 233.06 40.6733 230.541 43.4321Z" fill="black"/>
<path d="M336.456 43.6719L333.458 46.5507V133.274C333.577 199.605 333.937 220.476 335.017 221.916C338.375 226.234 341.254 226.594 373.041 226.594C405.787 226.594 409.985 225.994 411.904 221.196C412.264 220.117 412.624 180.174 412.624 132.554V45.831L409.865 43.3121C407.106 40.6732 406.266 40.6732 373.161 40.6732H339.335L336.456 43.6719Z" fill="black"/>
<path d="M230.901 249.984L227.903 252.863V391.283V529.704L230.661 532.223C233.42 534.862 234.14 534.862 267.726 534.862H302.151L304.55 531.743C307.069 528.505 307.069 527.905 307.069 431.466V334.308L310.547 330.829C315.345 326.151 324.341 325.791 329.499 330.23L332.858 333.108L333.457 431.466C334.057 525.986 334.177 529.944 336.336 532.343C338.615 534.742 339.575 534.862 373.041 534.862H407.466L409.985 532.103L412.624 529.344V391.044V252.863L409.625 249.984L406.746 246.985H373.28H339.815L336.696 249.984C334.057 252.623 333.697 254.302 333.218 262.698C332.858 271.575 332.498 272.654 329.499 275.293C324.341 279.731 315.345 279.371 310.547 274.693C307.309 271.455 307.069 270.495 307.069 261.979C307.069 253.702 306.829 252.623 303.95 249.984L300.711 246.985H267.246H233.78L230.901 249.984Z" fill="black"/>
<path d="M5.03792 250.104L2.39905 251.903V392.003C2.39905 499.237 2.75889 532.343 3.83843 533.423C6.11746 535.702 115.871 535.462 130.744 533.063C164.45 527.665 176.205 518.309 182.682 491.681C186.64 475.847 187.6 461.453 187.6 419.711C187.6 360.697 185.321 350.261 168.888 334.428C163.49 329.15 160.731 325.552 160.731 323.752C160.731 321.953 163.49 318.355 168.888 313.077C175.605 306.48 177.404 303.841 179.683 297.364C183.522 286.208 185.921 272.294 185.921 261.379C185.921 247.465 187.96 248.185 145.618 248.185C106.634 248.185 107.594 247.945 106.035 256.701C104.715 263.898 100.037 270.495 94.3997 273.254C91.521 274.693 87.8025 275.773 86.0033 275.773H82.7647V265.097C82.7647 256.221 82.4049 254.062 80.2458 251.303L77.8468 248.185H42.7018C12.9545 248.185 7.31695 248.424 5.03792 250.104ZM99.9174 361.176C106.994 363.935 107.354 365.854 107.714 411.315C108.194 459.534 107.834 464.092 103.276 469.13C99.0777 473.808 89.002 475.368 85.1637 471.889C82.8846 469.73 82.7647 467.931 82.7647 414.793V359.857L85.5235 359.377C88.8821 358.657 95.5992 359.497 99.9174 361.176Z" fill="black"/>
<path d="M456.405 251.183L453.406 254.062V391.883V529.704L456.165 532.223C458.924 534.862 459.644 534.862 493.349 534.862C525.855 534.862 527.894 534.742 530.053 532.583C531.373 531.264 532.812 528.385 533.172 526.226C533.532 524.067 533.652 461.933 533.532 388.165L533.172 253.942L529.814 251.063L526.455 248.185H492.869H459.284L456.405 251.183Z" fill="black"/>
<path d="M578.273 263.298C575.394 265.697 574.554 267.376 574.554 270.735C574.554 276.852 578.873 302.521 581.152 310.198C584.87 322.553 599.144 337.426 610.299 340.545C612.698 341.145 623.374 342.584 633.929 343.664C644.485 344.623 656 346.303 659.478 347.262C667.995 349.661 675.551 356.978 677.47 364.775C679.27 371.852 679.51 460.374 677.71 466.371C674.952 475.967 665.716 479.326 659.358 473.088C654.2 467.931 653.721 462.533 653.721 413.714V368.013L650.722 365.135L647.843 362.136H613.538H579.232L576.354 365.135L573.355 368.013V418.752C573.355 474.408 574.435 487.962 579.952 504.275C584.03 516.39 588.469 522.747 595.785 526.706C609.939 534.382 628.891 537.261 665.716 537.261C711.776 537.261 733.127 532.703 743.922 520.708C756.397 506.914 759.995 477.167 758.916 396.441C758.316 345.703 757.716 340.065 751.359 326.751C747.401 318.235 734.926 304.92 727.249 300.722C724.131 299.043 717.174 296.404 711.896 294.965C706.618 293.645 697.382 290.167 691.504 287.288C682.268 282.97 679.51 280.931 673.032 273.614C661.277 260.299 660.558 260.179 617.136 260.179H581.991L578.273 263.298Z" fill="black"/>
<path d="M1114.32 432.186V506.074H1124.52H1134.72V477.407V448.739L1159.06 448.259C1178.38 447.779 1184.49 447.299 1189.05 445.62C1196.97 442.621 1207.04 433.146 1211.12 424.749C1214.24 418.392 1214.48 416.832 1214.48 403.518C1214.48 390.084 1214.24 388.645 1211 382.047C1206.56 373.051 1199.85 366.334 1191.21 362.256L1184.49 359.137L1149.47 358.777L1114.32 358.417V432.186ZM1181.5 380.368C1187.97 383.727 1191.69 389.004 1193.49 397.401C1195.89 408.796 1191.45 420.671 1182.93 425.949C1178.74 428.587 1177.3 428.707 1156.91 428.707H1135.31L1134.95 403.158L1134.72 377.729H1155.47C1174.54 377.729 1176.58 377.969 1181.5 380.368Z" fill="black"/>
<path d="M1266.42 402.319C1263.42 403.878 1259.22 407.237 1257.18 409.756L1253.46 414.314V407.357V400.519H1242.67H1231.87L1232.11 452.937L1232.47 505.475H1242.67H1252.86L1253.46 467.691C1254.18 424.869 1254.06 425.109 1263.42 420.791C1271.58 417.192 1283.21 418.392 1287.65 423.31C1289.69 425.589 1289.93 425.469 1296.77 416.353C1303.12 407.836 1303.6 406.997 1301.68 405.437C1293.05 398.6 1276.49 397.161 1266.42 402.319Z" fill="black"/>
<path d="M1338.03 400.999C1326.27 404.718 1317.88 412.514 1313.32 424.029C1310.8 430.507 1310.56 432.906 1310.44 452.097C1310.44 469.37 1310.8 474.288 1312.6 479.806C1316.08 490.241 1322.31 497.558 1331.91 502.476C1339.95 506.554 1340.67 506.674 1353.5 506.674C1364.66 506.674 1367.78 506.194 1372.57 504.035C1386.13 497.798 1393.56 487.482 1396.32 470.809C1398.12 460.254 1397.04 434.465 1394.52 426.188C1390.81 414.314 1381.09 404.598 1369.45 401.119C1362.14 398.96 1344.75 398.84 1338.03 400.999ZM1363.34 420.791C1373.89 425.589 1376.17 432.066 1375.57 455.816C1375.21 472.369 1375.09 473.568 1371.97 478.126C1367.78 484.364 1362.38 486.883 1352.66 486.883C1343.19 486.883 1338.03 483.884 1334.19 476.087C1331.67 471.289 1331.43 469.01 1331.43 453.177C1331.43 433.865 1332.39 429.907 1338.39 424.149C1344.51 418.272 1354.82 416.952 1363.34 420.791Z" fill="black"/>
<path d="M1172.14 569.287L1163.62 579.723L1167.46 582.961L1171.3 586.2L1175.26 582.482C1177.54 580.323 1181.5 576.004 1184.13 572.886L1189.05 567.008L1184.85 562.93L1180.66 558.732L1172.14 569.287Z" fill="black"/>
<path d="M367.643 571.207C365.244 573.246 364.284 575.405 363.805 579.603L363.085 585.241H368.123C372.321 585.241 373.041 584.881 373.041 582.842C373.041 578.883 376.519 578.523 382.756 582.002C388.274 585.121 393.552 586.08 397.63 584.521C400.389 583.441 403.028 577.684 403.028 572.646C403.028 568.568 402.908 568.448 398.23 568.448C394.152 568.448 393.432 568.808 393.432 570.847C393.432 574.805 389.953 575.165 383.716 571.686C376.759 567.728 371.841 567.608 367.643 571.207Z" fill="black"/>
<path d="M580.792 571.446C577.913 572.286 574.434 574.085 573.115 575.285C566.638 581.042 564.359 593.997 568.077 604.912C569.996 610.43 569.996 610.67 567.477 612.469C562.919 615.588 560.52 618.706 559.201 623.504C555.123 637.058 560.28 650.013 571.556 654.331C579.112 657.21 593.866 656.25 600.583 652.532L605.381 649.773L608.5 652.892C611.139 655.53 612.698 656.01 618.336 656.01C621.934 656.01 624.933 655.65 624.933 655.291C624.933 654.931 622.174 651.452 618.815 647.494C614.017 641.976 612.938 640.057 614.017 638.858C616.177 636.099 618.576 628.182 619.535 620.266L620.375 612.829H614.257H608.14V617.147C608.14 622.545 605.741 632.26 604.541 631.781C601.783 630.821 582.951 608.631 580.672 603.953C576.953 595.916 577.313 589.559 581.631 585.121C584.03 582.722 586.309 581.642 588.948 581.642C593.026 581.642 599.744 587.16 599.744 590.518C599.744 592.078 601.063 592.437 605.741 592.437H611.858L611.019 587.879C609.339 578.763 605.261 573.845 596.865 571.446C589.788 569.287 587.629 569.287 580.792 571.446ZM586.669 630.341C592.187 635.979 596.865 641.017 597.105 641.496C597.704 643.176 591.227 645.215 585.23 645.215C574.674 645.215 569.876 640.897 569.756 631.661C569.756 627.103 570.356 625.303 572.755 623.024C574.314 621.345 575.874 620.026 576.114 620.026C576.473 620.026 581.151 624.704 586.669 630.341Z" fill="black"/>
<path d="M0.239897 613.069L0.599744 655.41L6.23733 655.77L11.8749 656.13L12.2348 639.577L12.5946 623.024L27.7082 622.425C41.6222 621.825 43.1815 621.585 47.7396 618.466C54.9365 613.788 58.1751 607.071 58.0552 596.516C58.0552 585.96 54.4567 578.883 46.5401 574.445C41.7422 571.566 40.1828 571.446 20.6312 571.087L0 570.607L0.239897 613.069ZM41.7422 585.6C45.5805 589.679 47.0199 595.556 45.5805 600.714C42.9416 609.83 39.3432 611.629 23.2701 611.629H11.9949V597.235V582.842H25.5491C38.2636 582.842 39.3432 583.081 41.7422 585.6Z" fill="black"/>
<path d="M212.309 586.56V602.273L208.711 599.155C202.833 594.357 196.596 592.917 189.879 594.956C182.442 597.235 178.004 602.993 176.205 612.229C174.286 622.305 175.365 638.618 178.364 645.335C183.642 657.09 199.715 660.448 208.831 651.692L212.309 648.334V652.172C212.309 655.89 212.429 656.01 217.707 656.01H223.105V613.428V570.847H217.707H212.309V586.56ZM207.751 607.791C210.63 610.19 212.309 616.787 212.309 625.423C212.309 639.937 208.831 645.215 199.355 645.215C192.158 645.215 188.799 641.616 187.72 632.62C186.76 625.063 187.72 613.788 189.639 610.19C192.518 604.792 202.953 603.473 207.751 607.791Z" fill="black"/>
<path d="M654.92 613.548V656.13L660.678 655.77L666.315 655.41L666.675 638.858L667.035 622.425H680.589C696.302 622.425 700.621 621.105 706.378 614.508C711.416 608.75 712.495 605.752 712.495 596.876C712.375 584.281 706.258 574.925 695.943 572.046C693.544 571.446 683.228 570.847 673.272 570.847H654.92V613.548ZM694.623 584.041C701.34 587.639 702.42 601.793 696.422 607.791C693.424 610.79 692.464 611.029 680.109 611.389L666.915 611.869V597.355V582.842H679.629C686.587 582.842 693.304 583.441 694.623 584.041Z" fill="black"/>
<path d="M833.644 576.844V582.842H839.641H845.639V576.844V570.847H839.641H833.644V576.844Z" fill="black"/>
<path d="M1087.94 576.844V582.842H1099.93H1111.92V619.426V656.01H1117.32H1122.72V619.426V582.842H1134.72H1146.71V576.844V570.847H1117.32H1087.94V576.844Z" fill="black"/>
<path d="M1329.27 576.484L1329.63 582.242L1335.39 582.602L1341.03 582.961V576.964V570.847H1334.91H1328.91L1329.27 576.484Z" fill="black"/>
<path d="M926.004 586.44C926.004 594.597 925.884 594.836 923.006 594.836C920.247 594.836 920.007 595.316 920.007 600.234C920.007 605.152 920.247 605.632 922.886 605.632H925.884L926.244 627.223C926.604 648.573 926.604 648.813 929.723 651.812C932.002 654.211 934.521 655.171 939.558 655.65L946.396 656.37V650.253C946.396 644.255 946.276 644.135 942.557 643.776L938.599 643.416L938.239 624.464L937.879 605.632H942.197C946.396 605.632 946.396 605.632 946.396 600.234C946.396 594.836 946.396 594.836 942.197 594.836H937.999V586.44V578.044H932.002H926.004V586.44Z" fill="black"/>
<path d="M90.6813 594.836C88.7621 595.436 85.7634 597.355 83.8442 599.155L80.6056 602.273L80.1258 598.915C79.7659 595.676 79.2861 595.436 74.1283 595.076L68.3708 594.716V625.423V656.13L74.1283 655.77L79.7659 655.41L80.4856 632.62C80.8455 620.026 81.2053 609.71 81.3253 609.59C81.4452 609.47 83.1245 608.511 85.1636 607.431C89.4818 605.152 94.3997 605.152 98.5979 607.311C101.597 608.87 101.836 608.75 105.435 603.713L109.273 598.555L105.795 596.756C101.237 594.357 94.8795 593.517 90.6813 594.836Z" fill="black"/>
<path d="M129.785 595.076C122.948 596.516 115.751 603.713 113.831 610.67C113.112 613.668 112.752 620.985 112.992 627.822C113.472 642.816 116.47 649.173 124.747 653.251C130.984 656.49 142.859 656.97 149.096 654.331C154.374 652.172 160.372 644.975 161.571 639.577C163.01 632.62 162.651 614.028 160.971 608.99C158.692 602.513 151.495 596.516 144.059 594.956C136.982 593.517 136.862 593.517 129.785 595.076ZM146.338 608.631C152.815 614.508 152.695 636.459 146.218 642.336C144.418 643.895 141.899 644.615 137.821 644.615C133.023 644.615 131.344 644.015 128.705 641.257C125.706 638.378 125.347 636.938 124.867 628.182C124.387 616.307 126.066 609.95 130.504 607.431C134.583 605.152 143.219 605.752 146.338 608.631Z" fill="black"/>
<path d="M325.661 594.237C325.061 594.477 322.422 594.956 319.903 595.436C314.865 596.276 307.908 601.793 305.15 607.071C302.631 611.989 301.671 628.662 303.35 637.178C305.15 645.455 309.228 650.733 316.305 653.851C321.103 656.01 321.463 656.49 321.463 660.688C321.463 665.006 321.703 665.366 325.781 666.086C328.899 666.686 329.859 667.525 329.619 668.965C329.379 670.524 327.82 671.124 323.622 671.364C318.824 671.724 317.984 672.083 317.384 674.722C316.185 679.16 317.384 680 324.461 680C335.617 680 340.534 676.761 340.654 669.445C340.654 665.246 336.336 659.609 332.858 659.609C331.898 659.609 331.059 658.769 331.059 657.809C331.059 656.73 332.138 656.01 333.817 656.01C336.696 656.01 344.733 652.532 348.451 649.653C350.85 647.854 350.73 647.734 346.772 643.656L342.813 639.457L338.615 642.336C335.617 644.375 332.618 645.215 328.779 645.215C318.584 645.215 314.266 639.217 314.266 625.423C314.266 615.588 316.545 609.95 321.583 607.431C326.5 604.792 334.297 605.512 339.215 608.99L342.694 611.509L346.652 607.431C351.33 602.633 350.73 601.194 342.694 597.355C337.776 595.076 328.06 593.277 325.661 594.237Z" fill="black"/>
<path d="M375.68 595.076C368.722 596.636 361.765 603.353 359.846 610.43C359.007 613.668 358.527 620.985 358.887 628.542C359.247 640.057 359.606 641.736 362.605 646.294C367.403 653.611 374.24 656.37 385.635 655.77C392.832 655.411 394.991 654.811 398.71 652.052C406.146 646.294 407.826 641.377 407.826 625.423C407.826 616.547 407.226 610.19 406.146 607.671C403.748 601.793 396.91 596.516 389.833 594.956C382.876 593.517 382.756 593.517 375.68 595.076ZM393.072 609.83C395.471 612.589 395.831 614.268 395.831 624.224C395.831 630.461 395.231 636.938 394.392 638.618C392.832 642.096 387.794 645.215 383.836 645.215C379.638 645.215 373.52 641.736 371.961 638.498C370.162 634.3 370.282 615.348 372.321 611.749C376.159 604.792 387.914 603.713 393.072 609.83Z" fill="black"/>
<path d="M440.932 594.956C433.855 596.636 429.057 600.114 425.818 605.872C423.299 610.31 422.819 612.829 422.46 624.224C422.1 636.099 422.34 637.898 424.859 642.696C426.418 645.695 429.656 649.653 432.055 651.572C440.212 658.169 457.245 657.33 466.601 650.013L469.599 647.734L465.881 644.015L462.283 640.297L456.525 642.936C446.329 647.374 436.733 643.895 434.454 635.139L433.495 631.421L452.087 630.821L470.799 630.221L470.679 622.425C470.559 605.872 463.602 596.276 450.408 594.477C447.769 594.117 443.451 594.357 440.932 594.956ZM451.607 606.112C455.805 607.911 459.404 613.189 459.404 617.627C459.404 619.906 458.684 620.026 446.809 620.026H434.215V616.547C434.215 612.109 438.173 607.191 442.971 605.752C445.13 605.152 446.929 604.552 447.169 604.552C447.289 604.432 449.328 605.152 451.607 606.112Z" fill="black"/>
<path d="M497.907 594.836C487.831 596.996 482.194 603.353 482.194 612.829C482.194 624.104 486.752 627.822 502.585 629.742C508.822 630.461 515.18 631.781 516.739 632.74C520.218 635.019 520.098 638.618 516.379 642.216C513.98 644.735 512.301 645.215 506.184 645.215C498.867 645.215 491.79 643.056 488.071 639.697C486.272 638.018 485.792 638.378 482.434 642.576L478.715 647.254L481.954 649.653C488.671 654.571 495.868 656.37 507.023 655.77C524.056 654.931 530.173 649.893 530.173 636.699C530.173 625.423 524.896 620.865 510.382 619.426C497.787 618.226 495.508 617.627 494.069 615.108C491.07 609.47 500.786 603.473 509.902 605.152C512.181 605.632 516.019 607.071 518.658 608.271L523.216 610.67L526.575 606.591C530.533 601.913 530.053 600.834 522.017 597.475C515.18 594.477 504.984 593.397 497.907 594.836Z" fill="black"/>
<path d="M744.282 595.436C741.643 596.396 738.284 598.675 736.845 600.474L734.086 603.833V599.274V594.836H728.089H722.091L722.331 625.063L722.691 655.41L728.329 655.77L733.966 656.13L734.326 633.82L734.686 611.389L738.044 608.511C742.003 605.152 748.96 604.672 753.038 607.551C754.597 608.63 755.917 609.23 756.157 609.11C756.277 608.87 758.076 606.591 759.875 603.952L763.354 599.394L760.595 597.115C759.036 595.796 756.876 594.836 755.797 594.836C754.717 594.836 752.798 594.596 751.479 594.237C750.159 593.877 746.921 594.477 744.282 595.436Z" fill="black"/>
<path d="M784.105 595.316C780.986 596.156 776.668 598.435 774.749 600.354C768.991 605.872 767.672 610.31 767.672 625.303C767.672 640.897 769.591 646.534 776.668 651.932C780.387 654.811 782.666 655.411 789.503 655.77C803.537 656.61 812.653 651.332 815.651 640.657C817.211 634.779 817.211 615.827 815.532 609.83C813.612 602.873 806.535 596.636 798.859 594.956C791.542 593.397 791.422 593.397 784.105 595.316ZM798.739 607.311C803.417 609.83 804.856 614.028 804.856 626.023C804.856 635.619 804.616 636.938 801.737 640.297C796.22 647.014 785.185 646.294 781.466 639.098C778.827 634.18 779.067 614.268 781.586 610.67C785.065 605.632 792.621 604.192 798.739 607.311Z" fill="black"/>
<path d="M878.744 594.956C872.027 596.516 866.75 601.074 863.511 607.671C861.232 612.469 860.752 615.348 860.752 625.423C860.752 642.216 863.991 649.293 873.826 653.731C883.302 658.049 897.816 656.13 906.093 649.533C908.372 647.614 908.372 647.494 904.413 643.416L900.455 639.337L897.456 641.616C890.619 647.134 878.504 645.695 874.426 638.858C869.508 630.941 869.868 630.821 890.619 630.821C905.493 630.821 909.451 630.461 909.931 629.142C911.37 625.423 908.132 610.07 904.773 604.672C899.496 596.156 889.3 592.317 878.744 594.956ZM889.9 605.752C892.419 606.591 894.458 608.63 896.017 611.749C900.215 619.906 900.095 620.026 885.102 620.026H871.787L872.627 616.667C873.826 611.629 876.705 608.031 880.784 606.232C885.462 604.192 885.222 604.192 889.9 605.752Z" fill="black"/>
<path d="M976.023 595.316C963.788 598.675 959.59 606.232 959.59 625.423C959.59 640.897 961.509 646.534 968.706 651.932C972.904 655.171 973.864 655.411 984.179 655.411C994.495 655.411 995.455 655.171 999.653 651.932C1006.85 646.534 1008.77 640.897 1008.77 625.423C1008.77 615.228 1008.17 611.149 1006.49 607.431C1003.49 600.834 998.093 596.516 990.777 594.956C983.46 593.397 983.34 593.397 976.023 595.316ZM990.057 606.831C994.855 608.631 996.774 613.788 996.774 625.423C996.774 632.14 996.174 636.938 994.975 639.097C993.295 642.456 988.018 645.215 983.34 645.215C979.621 645.215 974.583 641.976 973.024 638.618C970.865 633.94 971.225 615.947 973.504 611.509C976.263 606.112 983.22 604.192 990.057 606.831Z" fill="black"/>
<path d="M1038.76 594.477C1032.16 595.676 1028.2 597.475 1024.96 600.834C1021.96 603.953 1021.36 605.752 1021 612.229C1020.52 619.666 1020.64 620.146 1024.48 623.984C1028.68 628.182 1029.4 628.422 1046.43 630.341C1056.87 631.541 1060.47 635.859 1055.67 641.736C1053.87 644.015 1052.07 644.615 1045.47 644.975C1038.64 645.455 1036.6 645.095 1030.72 642.216L1023.88 638.858L1020.64 642.816C1018.72 644.975 1017.53 647.254 1017.88 647.854C1018.24 648.334 1021 650.253 1024.12 652.052C1029.4 655.171 1030.72 655.411 1042.95 655.411C1054.59 655.411 1056.63 655.051 1060.47 652.652C1066.46 648.933 1069.1 643.056 1068.5 634.899C1067.54 623.984 1063.11 620.985 1044.99 618.946C1039.6 618.346 1034.32 617.267 1033.36 616.427C1028.92 612.709 1033.36 606.471 1041.27 605.152C1045.47 604.432 1049.67 605.392 1060.35 609.59C1061.43 609.95 1063.47 608.75 1065.5 606.232L1068.86 602.153L1064.9 599.634C1058.55 595.796 1045.59 593.157 1038.76 594.477Z" fill="black"/>
<path d="M1162.9 595.436C1155.47 597.355 1148.87 604.312 1146.83 612.109C1143.59 625.303 1146.23 643.176 1152.35 649.053C1161.82 658.169 1181.37 658.169 1191.45 649.173C1193.49 647.254 1193.37 647.014 1189.77 643.296L1185.93 639.337L1182.81 641.616C1173.22 648.333 1157.51 643.416 1157.51 633.7V630.821H1176.22H1195.05L1194.45 621.465C1193.25 600.954 1180.66 590.518 1162.9 595.436ZM1178.26 607.911C1180.9 610.19 1182.09 612.229 1183.17 616.667L1183.89 620.026H1170.7C1157.87 620.026 1157.51 619.906 1157.51 617.267C1157.51 607.431 1170.82 601.434 1178.26 607.911Z" fill="black"/>
<path d="M1225.52 595.316C1217.72 597.475 1213.88 600.474 1210.52 606.951C1208 611.749 1207.76 613.548 1208.12 626.743C1208.48 640.297 1208.72 641.497 1211.84 646.294C1216.4 653.132 1222.76 656.01 1233.67 656.01C1242.67 656.01 1249.99 653.491 1253.82 649.173C1255.86 646.774 1255.86 646.654 1251.31 643.056L1246.63 639.337L1244.23 641.856C1241.11 644.975 1231.99 646.055 1227.08 644.015C1225.04 643.176 1222.64 641.017 1221.68 639.098C1219.52 635.019 1219.28 616.787 1221.2 612.349C1224.32 605.632 1236.79 603.833 1243.75 608.99L1246.99 611.269L1251.43 607.551L1255.98 603.713L1253.22 601.194C1246.99 595.316 1234.87 592.677 1225.52 595.316Z" fill="black"/>
<path d="M1287.77 594.836C1285.85 595.436 1282.73 597.355 1280.93 599.155L1277.45 602.513V598.675C1277.45 594.836 1277.45 594.836 1271.46 594.836H1265.46V625.543V656.13L1271.22 655.77L1276.85 655.41L1277.45 632.86C1278.05 611.989 1278.29 610.07 1280.45 608.511C1285.85 604.552 1294.61 605.032 1298.56 609.35C1300.6 611.629 1300.96 614.508 1301.44 633.7L1302.04 655.41L1307.8 655.77L1313.44 656.13V633.58C1313.44 614.268 1313.08 610.31 1311.16 606.232C1308.28 599.994 1304.44 596.636 1298.45 594.956C1292.93 593.517 1292.57 593.517 1287.77 594.836Z" fill="black"/>
<path d="M1378.81 594.237C1378.21 594.477 1375.57 594.956 1373.05 595.436C1366.34 596.516 1359.5 603.233 1357.22 610.79C1353.38 623.984 1355.78 642.936 1362.26 649.053C1371.73 658.169 1391.41 658.529 1400.76 649.773L1403.4 647.134L1399.68 643.296L1395.96 639.457L1391.77 642.336C1388.77 644.375 1385.77 645.215 1381.93 645.215C1371.73 645.215 1367.42 639.217 1367.42 625.423C1367.42 615.588 1369.69 609.95 1374.73 607.431C1379.65 604.792 1387.45 605.512 1392.37 608.99L1395.84 611.509L1399.8 607.431C1404.48 602.633 1403.88 601.194 1395.84 597.355C1391.05 595.196 1381.33 593.397 1378.81 594.237Z" fill="black"/>
<path d="M1428.23 595.316C1415.64 598.795 1411.32 607.191 1411.92 627.582C1412.4 640.177 1412.64 641.616 1415.76 646.294C1420.55 653.611 1427.39 656.37 1438.79 655.77C1446.1 655.411 1448.14 654.811 1451.98 651.932C1459.06 646.534 1460.98 640.897 1460.98 625.423C1460.98 615.228 1460.38 611.149 1458.7 607.431C1455.7 600.834 1450.3 596.516 1442.98 594.956C1435.67 593.397 1435.55 593.397 1428.23 595.316ZM1446.22 609.83C1448.62 612.589 1448.98 614.268 1448.98 624.224C1448.98 636.818 1447.66 641.017 1442.86 643.536C1438.79 645.575 1436.15 645.695 1431.11 643.895C1425.59 641.976 1423.79 637.538 1423.79 625.423C1423.79 609.59 1427.15 605.152 1438.19 606.112C1442.14 606.471 1444.18 607.431 1446.22 609.83Z" fill="black"/>
<path d="M1488.68 594.836C1478.13 597.115 1472.97 603.353 1472.97 613.788C1472.97 619.546 1473.45 620.745 1476.93 624.104C1480.89 628.182 1481.73 628.422 1498.52 630.341C1502.36 630.701 1506.68 632.021 1508.12 633.22C1510.27 635.019 1510.51 635.859 1509.55 638.738C1507.88 643.296 1503.8 645.215 1495.64 645.215C1490.84 645.215 1487.24 644.375 1482.57 641.976L1476.21 638.738L1472.73 642.936L1469.25 647.014L1472.61 649.653C1478.49 654.451 1486.52 656.37 1498.04 655.77C1514.83 654.931 1520.95 649.773 1520.95 636.699C1520.95 625.423 1515.67 620.865 1501.16 619.426C1488.56 618.226 1486.28 617.627 1484.85 615.108C1482.93 611.509 1486.28 607.191 1492.4 605.632C1497.2 604.312 1503.32 605.512 1512.55 609.59C1513.75 610.19 1515.43 608.99 1517.71 606.232L1521.07 602.033L1517.11 599.634C1509.67 595.076 1497.56 593.037 1488.68 594.836Z" fill="black"/>
<path d="M240.137 617.867C240.497 637.538 240.857 641.736 242.776 645.575C245.775 651.572 250.933 655.051 258.01 655.77C265.327 656.49 268.805 655.531 273.363 651.692L277.082 648.573V652.292C277.082 655.89 277.202 656.01 282.479 656.01H287.877V625.423V594.836H282.479H277.082V613.668C277.082 624.104 276.482 634.659 275.762 637.058C273.003 647.374 256.69 647.974 253.212 637.898C252.492 635.739 251.892 625.663 251.892 614.508V594.836H245.775H239.658L240.137 617.867Z" fill="black"/>
<path d="M833.644 630.581C833.644 656.73 833.284 666.686 832.204 667.765C831.365 668.605 829.206 669.205 827.406 669.205C824.168 669.205 824.048 669.445 824.048 674.602V680H829.325C836.762 680 840.481 678.321 843.24 673.763C845.519 670.044 845.639 667.645 845.639 632.26V594.836H839.641H833.644V630.581Z" fill="black"/>
<path d="M1329.51 596.396C1329.27 597.235 1329.15 610.79 1329.27 626.623L1329.63 655.41L1335.39 655.77L1341.03 656.13V625.543V594.836H1335.63C1332.27 594.836 1329.87 595.436 1329.51 596.396Z" fill="black"/>
</svg>
