<svg width="962" height="680" viewBox="0 0 962 680" fill="none" xmlns="http://www.w3.org/2000/svg">
<path d="M854.469 102.502C857.336 103.448 858.768 105.315 859.221 108.104C860.495 115.947 862.178 123.74 863.064 131.624C864.078 140.635 864.415 149.722 865.03 158.777C865.287 162.567 865.501 166.359 865.725 169.99C869.851 171.699 874.006 173.313 878.071 175.127C884.577 178.031 889.782 182.579 894.109 188.195C900.114 195.986 903.648 204.945 905.642 214.409C907.055 221.114 907.664 228.024 908.16 234.876C908.65 241.637 908.669 248.441 908.667 255.226C908.666 262.168 908.452 269.111 908.212 276.05C907.984 282.658 907.615 289.261 907.285 295.865C906.826 305.029 906.35 314.192 905.873 323.356C905.571 329.174 905.268 334.993 904.938 340.81C904.48 348.879 904.025 356.947 903.516 365.013C903.091 371.755 902.571 378.492 902.127 385.234C901.636 392.676 901.267 400.127 900.694 407.563C900.01 416.452 899.149 425.327 898.398 434.211C897.889 440.233 897.512 446.268 896.941 452.284C896.255 459.518 895.416 466.738 894.66 473.965C894.161 478.738 893.719 483.516 893.199 488.286C892.755 492.363 892.259 496.434 891.743 500.503C891.159 505.102 890.596 509.705 889.899 514.288C888.98 520.32 888.089 526.363 886.914 532.347C885.386 540.132 883.985 547.978 881.793 555.585C879.854 562.311 877.082 568.823 874.27 575.251C873.623 576.731 871.429 578.127 869.736 578.448C863.976 579.539 858.129 580.193 852.302 580.904C837.32 582.733 822.255 582.554 807.224 582.219C796.701 581.985 786.099 581.965 775.73 579.561C773.779 579.108 771.809 578.722 769.83 578.412C766.216 577.845 764.591 575.205 763.257 572.25C758.458 561.618 756.002 550.293 753.799 538.944C751.771 528.497 750.172 517.96 748.642 507.425C747.466 499.327 746.652 491.176 745.751 483.04C744.77 474.192 743.802 465.341 742.968 456.478C742.366 450.075 742.052 443.645 741.501 437.237C740.79 428.981 739.928 420.738 739.22 412.482C738.928 409.073 738.937 405.64 738.688 402.227C738.107 394.266 737.449 386.31 736.834 378.352C736.786 377.729 736.85 377.099 736.819 376.474C736.35 366.841 735.889 357.207 735.395 347.574C735.117 342.144 734.759 336.718 734.48 331.288C733.988 321.734 733.515 312.179 733.061 302.623C732.728 295.627 732.405 288.63 732.135 281.632C731.788 272.602 731.872 263.537 731.078 254.548C730.297 245.706 731.096 236.978 731.715 228.223C732.036 223.694 732.601 219.123 733.673 214.721C734.745 210.316 736.416 206.03 738.126 201.813C741.008 194.705 745.035 188.315 750.744 183.071C756.001 178.242 761.917 174.606 768.86 172.744C769.679 172.524 770.447 172.109 771.268 171.902C773.219 171.409 773.929 170.291 773.976 168.208C774.156 160.348 774.188 152.458 774.951 144.645C776.023 133.663 776.669 122.596 779.48 111.842C779.691 111.032 779.668 110.163 779.795 109.328C780.783 102.822 785.888 101.729 791.056 101.011C803.807 99.2379 816.651 98.636 829.496 99.1708C837.826 99.5176 846.217 99.9497 854.469 102.502ZM770.63 436.511C766.98 432.858 763.391 429.141 759.651 425.582C758.187 424.189 758.312 423.312 759.721 422.014C763.486 418.546 767.138 414.956 770.836 411.415C774.496 407.91 778.198 404.448 781.803 400.888C784.436 398.287 786.943 395.559 789.863 392.516C779.135 395.662 768.82 398.673 758.513 401.714C754.073 403.024 749.686 404.53 745.209 405.691C742.267 406.454 741.672 407.14 741.99 410.112C742.687 416.65 743.31 423.198 743.849 429.751C744.402 436.478 744.741 443.224 745.314 449.949C746.009 458.126 746.822 466.293 747.648 474.457C747.878 476.729 748.334 478.979 748.664 481.094C771.173 481.094 793.375 481.094 816.092 481.094C800.754 466.054 785.809 451.401 770.63 436.511ZM874.559 222.954C874.739 225.097 874.919 227.24 875.086 229.231C885.218 230.636 895.235 232.024 905.454 233.441C905.133 231.143 904.728 228.8 904.491 226.44C903.766 219.199 902.286 212.138 899.76 205.299C897.472 199.102 894.401 193.344 890.115 188.304C885.201 182.524 879.118 178.287 872.016 175.687C868.561 174.422 864.906 173.047 861.307 172.947C849.186 172.608 837.051 172.815 824.921 172.823C824.095 172.824 823.269 172.904 822.267 172.957C822.267 184.305 822.267 195.39 822.267 206.454C832.832 206.454 842.953 206.454 853.724 206.454C852.656 205.347 852.001 204.635 851.311 203.958C848.743 201.437 846.253 198.824 843.544 196.461C842.421 195.482 842.051 194.475 842.907 193.566C843.254 193.198 844.925 193.6 845.618 194.136C847.092 195.276 848.321 196.733 849.649 198.061C854.297 202.709 858.931 207.372 863.598 212.001C867.182 215.557 870.809 219.071 874.559 222.954ZM753.033 200.048C751.348 201.743 749.719 203.499 747.966 205.12C744.896 207.959 741.797 210.773 738.614 213.484C736.977 214.878 737.191 215.867 738.676 217.221C741.378 219.683 743.931 222.309 746.541 224.872C748.018 226.321 749.45 227.817 750.963 229.227C752.915 231.045 755.172 230.355 757.521 230.194C766.984 229.543 776.466 229.159 785.942 228.709C790.218 228.506 794.499 228.393 798.776 228.203C799.176 228.185 799.565 227.911 800.214 227.655C799.472 226.859 798.918 226.229 798.327 225.636C793.188 220.488 788.012 215.375 782.938 210.163C782.34 209.548 782.013 208.373 782.107 207.517C782.148 207.143 783.566 206.672 784.362 206.668C794.921 206.611 805.481 206.63 816.041 206.63C816.95 206.63 817.859 206.63 818.711 206.63C818.857 206.087 818.968 205.868 818.968 205.648C818.985 195.323 818.975 184.998 819.018 174.673C819.026 172.984 818.082 172.805 816.752 172.808C805.722 172.827 794.693 172.798 783.664 172.86C782.836 172.865 781.829 173.256 781.214 173.81C776.887 177.707 772.63 181.681 768.372 185.653C763.326 190.36 758.303 195.089 753.033 200.048ZM899.311 269.794C894.482 265.122 889.638 260.464 884.828 255.772C882.252 253.259 879.75 250.669 877.174 248.156C876.615 247.61 875.878 247.247 874.89 246.571C874.89 247.849 874.89 248.625 874.89 249.402C874.89 282.187 874.908 314.972 874.845 347.757C874.841 349.807 875.454 351.227 876.901 352.636C882.685 358.266 888.334 364.035 894.092 369.692C895.751 371.322 897.61 372.749 899.634 374.49C900.174 366.892 900.722 359.78 901.174 352.661C901.548 346.768 901.785 340.867 902.127 334.971C902.572 327.296 903.162 319.627 903.505 311.948C903.928 302.463 904.152 292.969 904.487 283.481C904.523 282.482 904.721 281.488 904.853 280.493C905.25 277.521 905.009 274.736 902.545 272.603C901.549 271.741 900.547 270.887 899.311 269.794ZM799.6 336.665C799.355 336.472 799.088 336.301 798.869 336.082C788.5 325.755 778.139 315.419 767.76 305.103C767.343 304.689 766.758 304.445 765.94 303.925C765.94 305.217 765.94 305.995 765.94 306.773C765.94 322.106 766.008 337.439 765.871 352.771C765.848 355.321 767.29 356.696 768.696 358.28C769.101 358.736 769.688 359.025 770.127 359.457C779.776 368.937 789.433 378.41 799.053 387.92C804.839 393.639 810.563 399.421 816.32 405.169C816.9 405.748 817.522 406.284 818.236 406.943C819.444 399.807 819.315 359.586 818.07 355.492C816.33 355.492 814.529 355.603 812.752 355.438C812.022 355.371 811.346 354.71 810.645 354.319C811.384 353.773 812.057 353.062 812.883 352.733C813.597 352.449 814.484 352.599 815.502 352.547C810.153 347.129 805.039 341.948 799.6 336.665ZM871.602 344.264C871.602 316.358 871.602 288.453 871.602 260.547C864.955 268.834 856.71 273.735 845.945 273.275C835.246 272.816 827.409 267.501 822.145 257.808C821.95 258.556 821.846 258.769 821.845 258.982C821.833 271.42 821.779 283.858 821.902 296.294C821.915 297.597 822.686 299.19 823.622 300.137C828.77 305.345 834.115 310.358 839.325 315.505C848.937 325.002 858.497 334.552 868.096 344.062C869.077 345.034 870.183 345.881 871.496 347.016C871.546 345.91 871.574 345.292 871.602 344.264ZM770.247 431.718C770.842 432.213 771.478 432.667 772.024 433.211C777.107 438.267 782.145 443.367 787.254 448.397C791.501 452.578 795.861 456.646 800.106 460.829C805.29 465.936 810.391 471.129 815.57 476.243C816.501 477.163 817.636 477.878 819.006 478.943C819.006 477.46 819.006 476.525 819.006 475.59C819.006 455.79 818.934 435.99 819.075 416.192C819.099 412.844 817.733 410.63 815.463 408.517C811.477 404.808 807.561 401.019 803.712 397.168C801.51 394.965 799.499 392.572 797.382 390.242C796.459 391.048 796.098 391.337 795.767 391.656C791.317 395.942 786.882 400.243 782.42 404.516C780.114 406.724 777.718 408.841 775.436 411.073C771.71 414.717 768.172 418.566 764.295 422.038C762.53 423.619 762.825 424.576 764.243 425.89C766.215 427.717 768.173 429.559 770.247 431.718ZM848.586 384.852C839.884 376.2 831.182 367.548 822.219 358.637C821.965 359.492 821.85 359.698 821.849 359.905C821.836 376.027 821.778 392.15 821.918 408.272C821.931 409.773 822.896 411.554 823.961 412.701C826.682 415.627 829.768 418.208 832.605 421.032C844.751 433.123 856.855 445.258 868.996 457.354C869.802 458.156 870.796 458.768 872.072 459.755C872.072 458.324 872.072 457.546 872.072 456.767C872.072 441.583 872.042 426.4 872.104 411.216C872.114 408.85 871.313 407.035 869.657 405.426C862.694 398.664 855.766 391.867 848.586 384.852ZM842.486 323.329C836.735 317.578 830.997 311.815 825.219 306.091C824.459 305.338 823.498 304.788 822.256 303.866C822.256 320.477 822.256 336.493 822.256 352.692C824.243 352.692 825.813 352.573 827.347 352.756C827.888 352.821 828.342 353.623 828.835 354.089C828.342 354.555 827.91 355.295 827.34 355.424C826.364 355.646 825.301 355.486 824.275 355.486C824.23 355.706 824.185 355.925 824.14 356.145C839.828 371.591 855.517 387.036 871.206 402.481C871.437 402.362 871.667 402.243 871.897 402.123C871.956 401.231 872.064 400.339 872.064 399.447C872.075 385.605 871.946 371.762 872.151 357.923C872.211 353.887 871.086 351.058 868.044 348.243C859.396 340.24 851.135 331.82 842.486 323.329ZM752.813 486.312C774.718 508.215 796.624 530.117 818.791 552.282C818.791 529.404 818.791 507.095 818.791 484.802C796.341 484.802 774.104 484.802 751.543 484.802C752.032 485.397 752.311 485.738 752.813 486.312ZM898.85 384.074C899.374 381.71 900.048 379.324 897.875 377.351C896.347 375.964 894.762 374.632 893.297 373.18C887.963 367.896 882.677 362.563 877.347 357.275C876.737 356.67 875.965 356.228 875.024 355.53C874.955 356.383 874.896 356.766 874.896 357.148C874.891 391.876 874.883 426.603 874.939 461.33C874.94 462.209 875.451 463.29 876.078 463.932C880.334 468.301 884.682 472.58 889.008 476.881C889.637 477.506 890.306 478.09 891.236 478.951C891.624 474.524 891.957 470.535 892.327 466.549C892.92 460.15 893.548 453.755 894.139 447.356C894.345 445.116 894.471 442.868 894.661 440.627C895.264 433.534 895.904 426.444 896.481 419.35C896.714 416.486 896.795 413.609 896.993 410.742C897.597 401.999 898.224 393.258 898.85 384.074ZM846.008 481.354C853.827 481.354 861.646 481.3 869.464 481.39C871.436 481.412 872.105 480.639 872.084 478.797C872.038 474.967 871.996 471.133 872.105 467.305C872.158 465.431 871.528 464.055 870.196 462.777C863.797 456.635 857.402 450.488 851.106 444.242C842.062 435.271 833.106 426.21 824.105 417.196C823.651 416.742 823.12 416.366 822.218 415.615C822.218 437.808 822.218 459.454 822.218 481.354C830.253 481.354 837.896 481.354 846.008 481.354ZM739.171 362.772C739.48 367.105 739.82 371.436 740.089 375.771C740.439 381.432 740.736 387.095 741.049 392.758C741.216 395.778 741.369 398.798 741.528 401.818C741.588 402.978 741.892 403.449 743.278 403.034C751.912 400.446 760.591 398.01 769.231 395.44C776.114 393.392 782.965 391.237 789.821 389.101C791.108 388.7 792.354 388.168 793.981 387.561C775.071 368.89 756.46 350.514 737.849 332.138C737.31 333.515 737.256 334.452 737.318 335.382C737.925 344.359 738.551 353.335 739.171 362.772ZM758.487 510.175C756.31 507.885 754.133 505.595 751.575 502.904C751.469 504.071 751.343 504.529 751.4 504.962C752.079 510.085 752.634 515.231 753.518 520.32C754.878 528.151 756.338 535.969 757.994 543.741C759.923 552.8 762.126 561.798 765.841 570.341C766.353 571.519 766.785 572.075 768.406 571.772C775.532 570.444 782.674 569.035 789.876 568.339C796.532 567.695 803.273 567.949 809.974 567.742C811.608 567.692 813.234 567.387 815.638 567.111C813.455 565.062 811.767 563.562 810.173 561.967C804.1 555.891 798.043 549.798 792.008 543.683C789.237 540.875 786.576 537.959 783.786 535.171C781.087 532.476 778.246 529.924 775.542 527.234C772.901 524.606 770.39 521.848 767.756 519.213C764.785 516.24 761.739 513.342 758.487 510.175ZM831.215 546.865C829.058 549.022 826.901 551.179 824.744 553.336C821.511 556.569 820.611 563.115 823.142 567.763C827.271 567.763 831.703 567.706 836.134 567.782C839.24 567.835 842.36 567.918 845.446 568.25C853.427 569.111 861.419 569.94 869.348 571.166C871.975 571.573 872.076 570.52 872.075 568.672C872.068 558.66 872.143 548.647 871.992 538.637C871.97 537.178 871.226 535.42 870.23 534.341C866.624 530.436 862.779 526.752 858.999 523.01C858.362 522.38 857.599 521.877 856.792 521.234C848.24 529.804 839.845 538.217 831.215 546.865ZM781.582 169.123C786.685 164.219 791.746 159.271 796.901 154.422C803.567 148.153 810.315 141.971 817.009 135.731C818.343 134.487 819.102 133.029 819.044 131.059C818.919 126.763 819.006 122.461 819.006 118.161C819.006 116.556 819.006 114.951 819.006 113.291C806.806 112.891 794.984 112.598 783.115 109.183C778.699 129.191 777.659 149.443 777.08 170.271C778.834 169.897 780.075 169.633 781.582 169.123ZM780.458 262.791C779.501 261.814 778.551 260.83 777.585 259.861C772.918 255.179 768.307 250.438 763.525 245.876C762.57 244.965 761.003 244.47 759.643 244.252C756.055 243.675 752.417 243.422 748.815 242.919C743.948 242.241 739.097 241.45 734.006 240.671C734.006 241.49 733.989 242.338 734.008 243.185C734.16 249.725 734.464 256.267 734.417 262.806C734.392 266.28 734.948 268.874 737.834 271.507C745.574 278.568 752.772 286.223 760.204 293.623C760.836 294.252 761.606 294.742 762.621 295.539C765.388 281.189 773.944 272.872 788.208 269.744C785.442 267.248 783.085 265.123 780.458 262.791ZM834.505 146.282C837.456 149.045 840.465 151.748 843.344 154.584C847.862 159.032 852.327 163.535 856.739 168.088C858.224 169.621 859.795 170.427 862.213 169.734C862.213 168.388 862.244 166.99 862.208 165.593C862.063 160.061 861.977 154.527 861.714 149.001C861.512 144.74 861.2 140.477 860.718 136.239C860.072 130.561 859.301 124.893 858.418 119.246C857.888 115.858 857.043 112.519 856.321 109.071C844.982 112.622 833.711 112.503 822.376 113.343C822.186 114.515 821.861 115.635 821.848 116.759C821.791 121.687 821.687 126.622 821.907 131.542C821.973 133.013 822.692 134.767 823.703 135.828C827.081 139.372 830.727 142.661 834.505 146.282ZM753.271 342.597C756.205 345.605 759.139 348.614 762.381 351.939C762.57 350.979 762.626 350.826 762.626 350.673C762.637 334.478 762.672 318.282 762.586 302.087C762.58 300.995 761.908 299.65 761.112 298.857C752.7 290.473 744.2 282.176 735.719 273.861C735.463 273.61 735.144 273.424 734.485 272.932C734.485 274.23 734.428 275.135 734.495 276.031C734.78 279.816 735.176 283.594 735.395 287.383C735.767 293.825 736.088 300.272 736.336 306.721C736.563 312.641 736.594 318.569 736.883 324.485C736.942 325.684 737.479 327.117 738.288 327.979C741.75 331.669 745.374 335.209 748.987 338.754C750.275 340.018 751.701 341.14 753.271 342.597ZM797.872 330.374C804.74 337.116 811.607 343.859 818.794 350.915C818.794 333.898 818.794 317.535 818.794 301.191C801.975 301.191 785.37 301.191 768.164 301.191C778.249 311.096 787.943 320.617 797.872 330.374ZM847.652 512.113C839.226 503.813 830.799 495.513 822.181 487.024C821.191 492.464 821.772 547.776 822.782 550.483C833.431 540.066 844.058 529.671 854.834 519.13C852.361 516.715 850.124 514.532 847.652 512.113ZM819.006 254.782C818.839 252.098 818.673 249.415 818.508 246.768C801.447 246.211 784.723 245.664 767.417 245.099C769.659 247.449 771.327 249.32 773.123 251.058C779.144 256.886 785.176 262.702 791.297 268.423C792.17 269.239 793.522 269.85 794.712 269.971C803.555 270.867 810.766 274.511 815.829 282.001C816.714 283.31 817.687 284.559 819.006 286.367C819.006 275.543 819.006 265.395 819.006 254.782ZM853.834 246.049C843.568 246.23 833.303 246.411 822.747 246.597C822.824 247.967 822.715 249.145 822.981 250.231C825.094 258.865 829.872 265.294 838.352 268.654C843.387 270.65 848.506 270.626 853.631 269.294C859.192 267.849 863.536 264.536 866.966 259.976C869.973 255.979 872.138 251.673 871.536 246.489C871.463 245.861 870.528 244.821 870.021 244.838C865.53 244.983 861.044 245.315 856.559 245.618C855.792 245.67 855.034 245.85 853.834 246.049ZM837.555 484.642C833.309 484.642 829.062 484.642 824.117 484.642C825.583 485.977 826.495 486.754 827.348 487.592C836.73 496.804 846.131 505.998 855.449 515.275C856.748 516.569 857.551 516.338 858.659 515.215C862.502 511.319 866.437 507.512 870.217 503.557C871.077 502.657 871.969 501.299 871.971 500.151C871.98 495.054 872.64 489.906 871.338 484.642C860.195 484.642 849.11 484.642 837.555 484.642ZM812.898 294.209C806.484 287.81 800.108 281.372 793.612 275.057C792.71 274.179 791.144 273.307 790.013 273.449C781.302 274.542 774.171 278.313 769.683 286.226C767.773 289.593 766.334 293.066 766.483 297.065C782.934 297.065 799.106 297.065 815.278 297.065C815.434 296.842 815.59 296.62 815.745 296.398C814.873 295.746 814.002 295.095 812.898 294.209ZM797.639 544.753C804.556 551.705 811.473 558.656 818.39 565.608C818.595 565.474 818.799 565.34 819.003 565.206C819.003 563.266 819.274 561.275 818.922 559.401C818.61 557.74 817.989 555.828 816.848 554.678C795.236 532.914 773.528 511.244 751.827 489.569C751.263 489.007 750.538 488.606 749.357 487.74C749.659 490.683 749.619 493.043 750.216 495.229C750.678 496.917 751.654 498.668 752.885 499.911C767.672 514.832 782.55 529.663 797.639 544.753ZM881.935 541.279C882.876 536.371 883.936 531.481 884.733 526.549C886.373 516.4 887.91 506.234 889.401 496.062C889.749 493.687 889.743 491.261 889.941 488.235C884.886 493.264 880.297 497.728 875.866 502.342C875.174 503.062 874.932 504.468 874.929 505.558C874.875 524.727 874.888 543.897 874.898 563.066C874.898 563.606 875.016 564.146 875.138 565.186C875.585 564.356 875.828 564.044 875.932 563.691C877.474 558.467 879.036 553.249 880.508 548.005C881.091 545.93 881.464 543.796 881.935 541.279ZM764.659 241.821C767.369 241.985 770.078 242.197 772.791 242.305C781.338 242.644 789.884 243.008 798.433 243.235C803.429 243.368 808.432 243.266 813.432 243.252C814.055 243.25 814.678 243.145 815.832 243.039C812.425 239.667 809.238 236.872 806.499 233.691C804.302 231.139 801.718 230.772 798.749 231.079C797.986 231.158 797.24 231.478 796.481 231.501C790.41 231.689 784.335 231.772 778.267 232.005C771.983 232.247 765.704 232.595 759.427 232.964C758.268 233.032 757.128 233.417 755.461 233.764C758.638 236.642 761.455 239.194 764.659 241.821ZM817.187 169.995C818.901 170.113 819.019 169.01 819.014 167.708C818.993 161.528 819.049 155.347 818.988 149.166C818.956 145.949 818.737 142.734 818.603 139.518C818.394 139.431 818.185 139.345 817.976 139.258C807.247 149.301 796.519 159.343 785.791 169.386C785.943 169.59 786.096 169.794 786.248 169.999C796.414 169.999 806.58 169.999 817.187 169.995ZM845.775 161.783C838.124 154.331 830.473 146.879 822.327 138.945C821.311 149.701 821.876 159.742 822.466 169.862C832.691 169.862 842.73 169.862 853.301 169.862C850.663 167.024 848.338 164.522 845.775 161.783ZM844.999 243.26C853.958 242.769 862.918 242.278 872.072 241.776C872.072 240.025 872.073 238.553 872.072 237.082C872.07 232.525 871.779 232.141 867.347 232.008C860.184 231.792 853.017 231.693 845.853 231.504C844.547 231.47 843.247 231.209 841.941 231.108C839.611 230.929 837.303 230.771 835.439 232.68C832.669 235.52 829.823 238.284 827.046 241.117C826.549 241.623 826.229 242.302 825.588 243.26C832.233 243.26 838.388 243.26 844.999 243.26ZM905.884 244.937C905.884 243.46 905.884 241.983 905.884 240.655C896.736 242.026 887.713 243.377 878.188 244.804C887.006 253.346 895.769 261.835 904.532 270.324C904.791 270.275 905.051 270.226 905.311 270.177C905.502 261.917 905.693 253.657 905.884 244.937ZM808.939 102.376C800.091 102.381 787.072 104.441 785.114 106.145C794.933 111.613 844.903 111.418 854.413 105.817C853.843 105.575 853.389 105.281 852.898 105.19C848.58 104.391 844.284 103.274 839.927 102.932C832.328 102.336 824.692 102.158 817.068 101.942C814.516 101.87 811.952 102.219 808.939 102.376ZM824.557 209.918C823.32 209.975 821.864 209.799 821.848 211.646C821.806 216.341 821.812 221.037 821.849 225.732C821.859 227.091 822.502 227.788 824.03 227.796C826.355 227.809 828.683 228.015 831 228.238C833.953 228.523 836.332 227.88 838.501 225.52C842.839 220.8 847.518 216.394 852.048 211.849C852.542 211.354 852.978 210.801 853.754 209.917C843.773 209.917 834.386 209.917 824.557 209.918ZM819.006 218.141C818.915 215.465 818.823 212.789 818.733 210.127C807.987 210.127 797.767 210.127 786.843 210.127C792.489 215.7 797.61 220.885 802.911 225.878C803.973 226.878 805.683 227.538 807.158 227.677C810.099 227.954 813.094 227.614 816.049 227.806C818.501 227.966 819.226 227 819.04 224.696C818.876 222.679 819.006 220.638 819.006 218.141ZM862.475 576.706C864.82 576.244 867.166 575.782 869.512 575.319C869.158 574.621 868.847 574.387 868.504 574.325C864.95 573.677 861.41 572.891 857.827 572.466C851.535 571.719 845.225 571.024 838.903 570.639C834.156 570.35 829.373 570.696 824.614 570.528C822.467 570.452 821.813 571.476 821.858 573.233C821.908 575.23 822.178 577.221 822.39 579.656C825.072 579.442 827.588 579.175 830.111 579.053C837.325 578.702 844.548 578.5 851.755 578.054C855.205 577.841 858.628 577.206 862.475 576.706ZM871.2 223.867C866.893 219.571 862.585 215.275 858.635 211.335C852.985 216.984 847.391 222.577 841.822 228.145C851.66 228.569 861.748 229.003 872.309 229.458C872.002 227.561 871.725 225.848 871.2 223.867ZM745.732 194.167C742.669 198.389 740.765 203.126 739.591 208.248C751.768 196.884 763.945 185.521 776.122 174.157C770.683 175.113 765.68 176.839 760.953 179.487C754.665 183.009 749.891 187.997 745.732 194.167ZM877.477 232.928C876.657 232.973 875.837 233.019 875.058 233.062C875.058 236.137 875.058 238.914 875.058 241.822C880.057 241.193 884.864 240.496 889.692 240.006C894.486 239.52 899.235 238.935 903.737 237.171C903.749 236.861 903.761 236.551 903.773 236.241C895.152 235.137 886.531 234.033 877.477 232.928ZM871.603 515.401C871.603 512.646 871.603 509.891 871.603 507.446C867.615 511.475 863.694 515.437 859.689 519.484C863.368 523.129 867.315 527.041 871.603 531.289C871.603 525.592 871.603 520.731 871.603 515.401ZM784.959 576.216C781.549 576.216 778.139 576.216 774.729 576.216C789.199 578.579 803.734 579.64 818.369 579.484C818.369 578.242 818.369 577.345 818.369 576.216C807.284 576.216 796.356 576.216 784.959 576.216ZM736.855 220.159C735.128 222.112 733.919 230.385 734.869 233.717C739.192 232.851 743.509 231.987 748.503 230.988C744.375 227.117 740.752 223.721 736.855 220.159ZM884.047 489.807C885.546 488.278 887.044 486.748 888.891 484.863C883.886 484.863 879.454 484.863 875.07 484.863C875.07 489.479 875.07 493.873 875.07 498.865C878.243 495.663 881.028 492.853 884.047 489.807ZM886.19 481.354C886.981 481.316 887.772 481.278 888.564 481.239C888.333 481.342 888.103 481.444 887.873 481.547C883.829 476.923 879.785 472.299 875.741 467.676C875.517 467.861 875.293 468.046 875.07 468.231C875.07 472.534 875.07 476.838 875.07 481.354C878.754 481.354 882.261 481.354 886.19 481.354ZM810.533 281.499C808.295 278.003 800.813 273.998 798.683 274.391C804.523 280.357 810.791 286.76 817.226 293.333C815.962 288.863 814.173 284.875 810.533 281.499ZM753.946 236.2C752.782 234.744 751.273 234.052 749.425 234.347C744.847 235.078 740.278 235.862 735.705 236.626C735.713 236.892 735.721 237.159 735.729 237.426C742.76 239.841 750.132 240.146 758.044 241.092C756.438 239.154 755.314 237.797 753.946 236.2ZM813.117 572.93C814.288 572.929 815.459 572.945 816.63 572.925C819.004 572.883 819.195 572.504 817.887 569.888C804.839 570.671 791.657 571.462 778.475 572.254C778.484 572.479 778.493 572.704 778.502 572.93C789.886 572.93 801.27 572.93 813.117 572.93ZM818.567 231.185C815.269 231.185 811.97 231.185 809.415 231.185C812.476 234.299 815.792 237.673 818.875 240.81C818.875 238.026 818.875 234.763 818.567 231.185ZM829.556 234.317C830.429 233.397 831.303 232.478 832.499 231.219C828.77 231.219 825.625 231.219 822.199 231.219C822.199 234.567 822.199 237.746 822.199 240.926C822.402 241.007 822.606 241.088 822.809 241.169C824.979 238.963 827.149 236.758 829.556 234.317Z" fill="black"/>
<path d="M405.802 292.156C404.982 296.709 402.843 300.365 400.025 303.706C395.376 309.217 389.277 311.853 382.301 312.764C380.472 313.003 378.623 313.207 376.782 313.212C364.031 313.251 351.279 313.232 338.528 313.233C334.902 313.233 334.838 313.292 334.836 317.09C334.83 325.774 334.802 334.458 334.849 343.141C334.868 346.763 334.223 347.293 330.622 347.433C323.749 347.7 316.856 347.569 309.973 347.487C306.304 347.444 305.718 346.725 305.718 343.095C305.718 306.249 305.718 269.402 305.718 232.556C305.718 228.399 306.369 227.763 310.616 227.763C333.46 227.762 356.311 227.391 379.143 227.908C391.942 228.197 401.953 235.018 405.563 248.2C406.33 251.002 406.598 254.01 406.636 256.93C406.764 266.707 406.729 276.487 406.646 286.265C406.63 288.164 406.118 290.06 405.802 292.156ZM340.727 290.221C349.539 290.065 358.356 290.038 367.161 289.705C372.439 289.504 376.462 285.061 377.01 280.035C377.556 275.027 377.577 269.942 377.489 264.896C377.449 262.577 376.979 260.104 376.045 257.992C373.533 252.304 368.342 250.918 362.772 250.815C354.328 250.658 345.878 250.835 337.432 250.731C335.322 250.705 334.781 251.443 334.796 253.448C334.878 263.85 334.891 274.253 334.814 284.655C334.762 291.525 335.689 290.154 340.727 290.221Z" fill="black"/>
<path d="M53.0664 290.221C53.0664 281.067 52.992 272.146 53.0844 263.227C53.2121 250.911 57.9603 240.865 68.3361 233.929C73.969 230.163 80.3032 227.807 87.0196 226.917C93.7683 226.023 100.584 225.028 107.361 225.094C117.248 225.191 127.143 226.064 136.549 229.66C146.44 233.44 154.083 239.606 157.807 249.835C160.172 256.33 160.935 263.087 160.607 269.976C160.499 272.234 159.551 273.285 157.304 273.297C149.637 273.338 141.969 273.343 134.301 273.294C131.907 273.279 131.035 272.162 131.037 269.212C131.041 265.442 130.404 261.827 128.611 258.486C125.489 252.667 120.071 250.081 114.006 249.02C107.552 247.891 101.019 247.983 94.7169 250.293C87.6231 252.893 83.0738 257.919 82.7614 265.45C82.2049 278.865 82.1868 292.31 82.2936 305.74C82.3204 309.116 83.4633 312.547 84.4832 315.832C85.395 318.769 87.598 321.042 90.176 322.56C98.4215 327.416 107.245 327.858 116.374 325.515C121.93 324.088 126.533 321.277 128.873 315.961C130.139 313.087 130.669 309.772 130.94 306.606C131.285 302.581 132.079 301.496 136.109 301.494C142.838 301.491 149.567 301.484 156.295 301.497C159.341 301.503 160.499 302.802 160.63 305.839C160.907 312.255 160.192 318.544 158.153 324.619C156.214 330.397 152.808 335.267 147.996 339.034C140.154 345.173 131.083 348.195 121.256 348.892C113.966 349.41 106.633 350.009 99.3485 349.746C89.8445 349.404 80.4976 347.725 71.8729 343.294C61.4263 337.927 54.9933 329.358 53.7079 317.825C52.7009 308.79 53.2235 299.585 53.0664 290.221Z" fill="black"/>
<path d="M213.173 233.362C213.53 232.316 213.801 231.424 214.194 230.589C215.071 228.728 216.215 227.642 218.641 227.69C227.87 227.87 237.106 227.838 246.337 227.71C248.681 227.677 249.984 228.572 250.773 230.617C252.385 234.798 254.009 238.973 255.644 243.144C257.918 248.942 260.221 254.729 262.484 260.531C265.003 266.987 267.484 273.458 269.996 279.917C272.959 287.534 275.965 295.133 278.9 302.76C281.643 309.888 284.264 317.064 287.04 324.178C289.092 329.435 291.343 334.613 293.426 339.858C293.986 341.269 294.417 342.775 294.612 344.275C294.851 346.111 293.54 347.432 291.169 347.464C283.502 347.567 275.832 347.589 268.166 347.466C264.517 347.407 264.058 344.113 263.118 341.604C260.468 334.534 258.024 327.387 255.354 320.324C255.097 319.644 253.833 318.936 253.032 318.931C239.34 318.846 225.647 318.842 211.954 318.941C211.14 318.947 209.896 319.806 209.591 320.565C207.404 326.002 205.391 331.508 203.361 337.007C202.347 339.754 201.642 342.645 200.335 345.238C199.795 346.31 198.058 347.379 196.838 347.411C189.253 347.608 181.66 347.585 174.072 347.477C170.4 347.425 169.374 345.108 170.933 341.365C173.16 336.021 175.258 330.624 177.38 325.238C179.638 319.506 181.876 313.767 184.093 308.02C187.394 299.462 190.636 290.88 193.967 282.333C196.706 275.303 199.59 268.329 202.315 261.294C204.454 255.771 206.393 250.17 208.527 244.645C209.97 240.907 211.598 237.241 213.173 233.362ZM240.491 280.063C237.879 273.031 235.267 266 232.442 258.397C227.767 271.076 223.336 283.095 218.767 295.488C228.081 295.488 236.975 295.488 246.112 295.488C244.207 290.183 242.446 285.281 240.491 280.063Z" fill="black"/>
<path d="M602.044 320.692C602.044 321.845 602.044 322.77 602.044 324.033C603.165 324.033 604.072 324.033 604.979 324.033C622.43 324.033 639.882 324.033 657.333 324.034C658.037 324.034 658.75 323.977 659.444 324.065C662.466 324.446 663.092 325.18 663.093 328.236C663.095 333.479 663.042 338.723 663.122 343.965C663.15 345.781 662.813 347.026 660.698 347.116C659.705 347.159 658.719 347.495 657.73 347.496C631.122 347.518 604.514 347.515 577.907 347.512C573.401 347.512 572.459 346.559 572.459 342.028C572.462 305.247 572.466 268.466 572.469 231.685C572.469 228.722 573.373 227.768 576.323 227.768C604.105 227.759 631.886 227.76 659.668 227.767C662.285 227.768 663.085 228.608 663.09 231.305C663.102 236.548 663.099 241.792 663.092 247.035C663.088 250.046 662.376 250.77 659.394 250.771C641.473 250.776 623.552 250.774 605.631 250.774C604.706 250.774 603.781 250.774 602.627 250.774C602.422 253.007 602.1 255.06 602.07 257.116C601.993 262.437 602.041 267.759 602.046 273.08C602.049 275.985 602.173 276.126 605.091 276.128C617.378 276.138 629.664 276.131 641.951 276.133C645.657 276.133 646.185 276.65 646.187 280.269C646.19 284.417 646.21 288.565 646.182 292.712C646.15 297.599 647.593 299.168 639.595 299.15C628.091 299.125 616.587 299.144 605.083 299.144C604.164 299.144 603.245 299.144 602.044 299.144C602.044 306.428 602.044 313.446 602.044 320.692Z" fill="black"/>
<path d="M500.138 267.68C500.138 286.514 500.138 305.113 500.138 324.033C501.283 324.033 502.192 324.033 503.102 324.033C520.39 324.033 537.678 324.033 554.966 324.034C555.592 324.034 556.222 323.994 556.843 324.051C560.095 324.349 561.277 324.958 561.431 328.048C561.699 333.394 561.312 338.772 561.264 344.137C561.243 346.446 559.761 347.141 557.883 347.447C557.195 347.559 556.479 347.511 555.776 347.511C529.335 347.514 502.895 347.518 476.454 347.496C475.466 347.496 474.469 347.291 473.492 347.101C471.314 346.68 470.516 345.369 470.519 343.122C470.567 306.278 470.552 269.433 470.554 232.588C470.554 228.816 471.606 227.763 475.332 227.763C482.294 227.763 489.256 227.762 496.218 227.762C499.34 227.763 500.131 228.553 500.134 231.773C500.144 242.803 500.138 253.833 500.138 264.863C500.138 265.724 500.138 266.584 500.138 267.68Z" fill="black"/>
<path d="M450.828 335.304C450.828 338.278 450.844 341.017 450.822 343.756C450.802 346.304 449.923 347.439 447.432 347.471C439.998 347.567 432.562 347.569 425.129 347.471C422.504 347.437 421.563 346.251 421.267 343.24C421.167 342.231 421.226 341.206 421.226 340.189C421.225 305.051 421.218 269.913 421.247 234.775C421.248 233.163 421.288 231.448 421.835 229.977C422.18 229.052 423.492 227.882 424.392 227.864C432.293 227.698 440.198 227.749 448.102 227.781C449.883 227.788 450.775 228.831 450.822 230.594C450.841 231.298 450.828 232.003 450.828 232.707C450.828 266.828 450.828 300.948 450.828 335.304Z" fill="black"/>
<path d="M366.307 415.608C366.307 441.121 366.307 466.399 366.307 491.677C366.307 492.382 366.346 493.089 366.291 493.79C366.134 495.79 365.503 497.192 363.014 496.885C360.863 496.621 358.175 497.383 356.657 496.337C355.363 495.446 355.397 492.628 354.78 490.436C353.544 491.707 352.537 493.115 351.199 494.049C346.931 497.026 342.21 498.482 336.919 498.848C330.773 499.273 324.937 498.816 319.226 496.426C313.376 493.978 309.902 489.545 308.619 483.543C307.865 480.019 307.707 476.328 307.64 472.705C307.5 465.116 307.355 457.512 307.703 449.937C307.869 446.312 308.677 442.546 310.037 439.184C312.348 433.469 317.213 430.411 323.016 428.759C331.032 426.477 338.969 427.003 346.681 429.872C349.063 430.759 351.052 432.7 353.493 434.34C353.536 433.489 353.612 432.689 353.613 431.89C353.621 423.203 353.668 414.516 353.583 405.83C353.563 403.698 354.328 402.827 356.438 402.911C358.547 402.994 360.663 402.925 362.776 402.929C365.746 402.934 366.237 403.388 366.291 406.451C366.343 409.424 366.305 412.399 366.307 415.608ZM346.516 439.288C346.213 439.224 345.881 439.22 345.613 439.087C339.436 436.02 333.21 436.898 327.167 439.257C323.51 440.685 320.328 444.83 320.297 449.166C320.23 458.548 320.268 467.93 320.28 477.313C320.285 481.289 323.268 485.459 326.927 487.118C333.62 490.153 340.199 490.107 346.902 487.091C350.442 485.498 353.706 480.564 353.659 477.121C353.538 468.126 353.657 459.128 353.604 450.131C353.575 445.206 351.399 441.557 346.516 439.288Z" fill="black"/>
<path d="M598.248 496.851C596.219 496.851 594.398 496.677 592.623 496.89C589.677 497.244 587.523 496.154 585.705 493.925C583.744 491.521 581.703 489.178 579.603 486.895C575.173 482.079 570.683 477.317 566.211 472.54C566.007 472.322 565.734 472.17 565.226 471.783C561.744 475.481 558.24 479.101 554.888 482.858C554.308 483.508 554.202 484.732 554.176 485.7C554.09 488.828 554.102 491.961 554.161 495.09C554.186 496.414 553.684 496.899 552.371 496.868C549.711 496.806 547.043 496.737 544.39 496.886C542.337 497.002 541.899 496.116 541.904 494.261C541.954 476.261 541.934 458.26 541.934 440.259C541.934 429.067 541.933 417.875 541.934 406.684C541.934 402.93 541.935 402.93 545.572 402.928C547.059 402.928 548.546 402.928 550.033 402.928C554.141 402.93 554.143 402.93 554.143 406.93C554.144 426.574 554.143 446.219 554.143 465.863C554.143 466.783 554.143 467.702 554.143 469.271C555.876 467.386 557.233 465.974 558.519 464.5C563.647 458.622 568.771 452.74 573.863 446.831C578.316 441.664 582.678 436.418 587.202 431.314C587.933 430.489 589.274 429.831 590.37 429.77C593.882 429.576 597.411 429.655 600.931 429.737C601.595 429.753 602.632 430.128 602.803 430.593C602.997 431.121 602.582 432.082 602.135 432.599C600.282 434.742 598.328 436.8 596.388 438.868C591.38 444.207 586.38 449.553 581.336 454.858C578.673 457.658 575.926 460.377 573.035 463.32C576.926 467.395 580.592 471.179 584.192 475.023C587.648 478.713 591.003 482.496 594.466 486.178C596.595 488.442 598.914 490.528 601.003 492.826C601.833 493.739 602.273 495.006 602.89 496.113C601.732 496.359 600.577 496.618 599.415 496.842C599.113 496.9 598.79 496.851 598.248 496.851Z" fill="black"/>
<path d="M476.671 467.735C476.671 476.183 476.68 484.396 476.666 492.61C476.66 496.642 476.434 496.85 472.452 496.851C470.653 496.851 468.854 496.86 467.055 496.848C464.291 496.83 463.982 496.525 463.981 493.697C463.975 475.002 463.978 456.306 463.978 437.611C463.978 435.969 464.048 434.322 463.961 432.684C463.848 430.583 464.464 429.383 466.858 429.671C468.092 429.819 469.358 429.696 470.61 429.697C473.962 429.699 474.579 430.286 474.777 433.671C474.825 434.488 474.863 435.305 474.918 436.372C476.63 434.826 478.014 433.425 479.549 432.218C483.267 429.293 487.715 428.501 492.262 427.752C498.589 426.71 504.706 427.586 510.48 429.852C516.352 432.158 520.171 436.839 521.65 443.04C522.342 445.939 522.631 448.996 522.652 451.984C522.747 465.828 522.687 479.673 522.678 493.518C522.676 496.615 522.441 496.841 519.317 496.849C517.205 496.855 515.086 496.745 512.983 496.88C511.017 497.007 510.423 496.254 510.435 494.32C510.505 482.744 510.513 471.166 510.444 459.59C510.422 455.862 510.567 452.041 509.827 448.429C508.42 441.557 504.744 439.274 497.854 437.683C492.896 436.538 488.089 437.266 483.557 439.245C480.042 440.78 476.69 444.462 476.666 449.431C476.636 455.454 476.667 461.477 476.671 467.735Z" fill="black"/>
<path d="M624.877 485.227C627.111 488.488 630.419 489.638 633.85 490.114C638.512 490.759 642.919 490.085 646.501 486.44C649.163 483.73 649.456 480.511 648.742 477.194C647.953 473.529 645.461 471.136 641.836 470.085C635.245 468.175 628.567 466.534 622.053 464.394C614.977 462.07 611.191 456.282 610.939 448.713C610.777 443.828 611.732 439.367 614.688 435.366C616.912 432.356 619.953 430.326 623.364 429.476C627.976 428.326 632.794 427.504 637.529 427.479C643.321 427.449 649.042 428.554 654.054 431.984C659.488 435.703 661.546 440.922 661.138 447.267C661.101 447.846 660.167 448.808 659.606 448.84C656.721 449.006 653.814 449.048 650.935 448.84C650.253 448.791 649.213 447.693 649.082 446.948C647.884 440.086 645.29 437.748 638.492 436.647C634.598 436.017 631.15 436.698 627.804 438.451C622.458 441.252 621.662 449.905 626.067 454.065C629.113 456.941 633.019 457.147 636.623 458.344C642.225 460.205 648.225 460.762 653.468 463.837C657.975 466.48 660.328 470.481 661.112 475.384C661.744 479.337 661.492 483.302 659.996 487.169C658.319 491.505 655.245 494.512 651.151 496.17C641.215 500.195 631.13 500.407 621.11 496.279C614.215 493.438 610.61 486.523 611.063 479.63C611.11 478.915 612.318 477.767 613.067 477.699C615.705 477.46 618.39 477.461 621.029 477.694C621.792 477.761 622.764 478.782 623.107 479.592C623.847 481.344 624.242 483.242 624.877 485.227Z" fill="black"/>
<path d="M384.614 435.819C384.6 428.472 384.285 429.782 390.447 429.712C394.821 429.662 394.281 428.93 395.587 435.391C397.275 433.853 398.825 432.148 400.654 430.828C406.578 426.552 412.971 426.509 419.55 429.133C421.068 429.739 421.862 430.821 421.736 432.571C421.624 434.127 421.73 435.697 421.706 437.26C421.681 438.876 421.093 439.793 419.278 439.128C418.561 438.865 417.788 438.734 417.095 438.422C410.43 435.42 401.775 438.333 399.331 443.549C397.933 446.53 396.996 450.009 396.933 453.285C396.672 466.884 396.779 480.491 396.869 494.094C396.883 496.26 396.259 497.052 394.078 496.887C391.901 496.722 389.701 496.791 387.514 496.867C385.451 496.939 384.542 496.371 384.555 493.983C384.66 474.673 384.614 455.362 384.614 435.819Z" fill="black"/>
<path d="M432.514 447.542C432.514 442.301 432.605 437.294 432.472 432.292C432.416 430.173 433.192 429.549 435.198 429.664C437.614 429.803 440.048 429.769 442.468 429.673C444.13 429.608 444.701 430.416 444.718 431.897C444.722 432.288 444.724 432.679 444.724 433.07C444.724 453.17 444.725 473.269 444.723 493.369C444.722 496.684 444.559 496.842 441.272 496.85C439.317 496.855 437.351 496.722 435.409 496.885C433.167 497.072 432.452 496.287 432.467 493.998C432.561 479.608 432.514 465.217 432.514 450.827C432.514 449.81 432.514 448.793 432.514 447.542Z" fill="black"/>
<path d="M620.501 193.161C624.89 184.36 623.974 185.007 633.35 185.027C637.341 185.035 641.333 184.99 645.323 185.058C646.185 185.073 647.717 185.368 647.77 185.714C647.914 186.651 647.68 187.852 647.149 188.65C645.064 191.784 642.822 194.814 640.61 197.862C636.71 203.233 632.71 208.534 628.911 213.974C627.054 216.633 624.773 218.019 621.513 217.917C618.542 217.824 615.566 217.908 612.592 217.878C608.99 217.842 608.329 216.584 609.983 213.456C613.517 206.772 616.94 200.029 620.501 193.161Z" fill="black"/>
<path d="M434.096 409.183C436.571 408.765 438.994 407.919 441.227 408.349C444.538 408.986 446.642 413.444 446.109 417.375C445.569 421.354 442.784 424.165 439.192 424.013C437.481 423.941 435.544 423.78 434.135 422.839C429.997 420.076 430.01 412.56 434.096 409.183Z" fill="black"/>
</svg>
