<svg width="1126" height="680" viewBox="0 0 1126 680" fill="none" xmlns="http://www.w3.org/2000/svg">
<path d="M539.426 7.23918C536.382 11.8041 537.904 18.6516 543.23 21.6949C550.077 25.499 550.838 36.1506 547.795 54.4104C543.991 76.4744 538.665 82.561 520.405 86.3651C489.972 93.2125 467.147 84.8434 467.147 66.5836C467.147 49.0846 457.256 48.3238 441.279 64.3011C426.823 78.7568 426.063 83.3218 438.997 99.2991C447.366 110.712 515.079 122.885 508.232 112.233C505.949 107.668 537.143 95.495 540.186 100.06C540.947 100.821 537.904 138.101 533.339 183.751C523.448 280.376 527.252 289.506 569.859 273.528C590.401 266.681 599.531 265.92 607.9 272.767C615.508 279.615 623.877 278.854 640.616 269.724C652.789 263.638 665.723 260.594 668.766 263.638C672.57 266.681 673.331 265.159 670.288 261.355C668.005 256.79 668.766 248.421 672.57 242.334C677.896 233.205 681.7 233.205 689.308 240.813C702.242 253.747 707.568 252.225 728.871 229.4C745.61 211.901 748.653 210.38 753.218 221.792C760.826 242.334 792.781 237.769 803.432 215.706C811.801 197.446 811.801 196.685 822.453 211.901C839.952 237.009 846.039 229.4 852.125 175.382C854.408 147.231 860.494 116.037 864.298 105.386C872.667 81.8001 900.057 52.1279 912.991 52.1279C930.49 52.1279 930.49 74.9527 912.23 141.145C901.579 177.664 893.21 224.075 893.21 243.856V280.376L809.519 322.221C745.61 354.176 718.22 364.067 691.591 364.067C648.985 364.067 623.877 343.524 631.486 314.613C636.811 292.549 626.16 289.506 608.661 307.765C595.727 319.939 592.683 346.568 602.574 361.023C612.465 376.24 640.616 386.891 670.288 386.891C690.069 386.891 729.632 372.436 795.824 340.481L893.21 294.071L916.795 313.852C929.729 324.504 947.989 333.634 957.88 333.634C967.01 333.634 977.661 339.72 979.944 346.568C986.031 361.784 971.575 436.345 957.88 462.974C941.903 493.407 910.709 523.84 894.731 523.84C873.428 523.84 865.82 479.712 881.797 446.236C893.21 420.368 893.21 421.889 881.797 478.191C877.993 494.929 879.515 494.168 888.645 474.386C903.861 444.714 903.861 412.759 889.406 406.673C871.907 399.825 852.886 436.345 849.082 484.277C845.278 532.209 836.909 548.187 819.41 541.339C809.519 537.535 808.758 527.644 811.801 490.364C814.084 465.256 819.41 443.193 822.453 442.432C833.105 438.628 823.975 393.739 812.562 389.174C806.476 386.891 795.824 387.652 788.977 389.935C778.325 394.5 777.564 396.782 785.933 402.108C808.758 415.803 778.325 508.624 739.523 545.143C709.851 572.533 686.265 551.991 693.873 504.819C695.395 491.125 737.24 458.409 749.414 461.452C753.979 462.213 755.5 456.127 758.544 421.129C760.065 401.347 757.783 398.304 741.045 400.586C701.482 405.151 658.875 467.539 654.31 529.166C652.028 555.034 646.702 568.729 633.768 579.38C624.638 586.989 613.987 590.032 610.943 586.989C603.335 578.62 611.704 538.296 620.073 543.622C623.877 545.904 624.638 541.339 621.595 534.492C619.312 526.883 620.073 523.079 623.877 525.362C627.681 528.405 631.486 522.318 632.246 513.949C633.007 504.819 635.29 490.364 636.051 481.995C637.572 469.821 633.007 466.017 613.987 464.496C594.205 462.213 589.64 458.409 587.358 441.671C585.836 427.215 579.749 420.368 568.337 418.846C553.121 416.564 550.838 419.607 550.838 439.388C550.838 451.562 554.642 464.496 558.446 466.778C570.62 474.386 567.576 488.081 547.034 512.428L528.774 535.252L529.535 507.102C531.057 471.343 511.275 447.757 480.842 447.757H458.778L479.32 420.368C503.667 388.413 506.71 351.893 486.168 336.677C478.56 330.59 454.974 326.025 434.432 326.025H397.912L403.238 270.485C409.324 206.576 413.889 191.359 435.953 167.773C456.496 146.47 480.081 146.47 486.168 167.013C493.015 187.555 483.885 233.205 468.669 259.833C458.017 277.332 451.931 280.376 434.432 277.332C415.411 273.528 414.65 274.289 421.498 287.984C450.409 341.242 530.296 248.421 517.362 176.903C508.993 132.775 470.951 122.885 437.475 157.122C420.737 173.86 414.65 176.143 407.042 168.534C402.477 163.209 393.347 160.926 387.26 163.209C378.891 167.013 375.848 180.708 375.848 218.749C375.848 255.268 372.044 275.811 360.632 293.31C340.85 326.025 322.59 326.025 322.59 294.831C322.59 279.615 325.634 273.528 331.72 277.332C337.046 280.376 337.807 279.615 334.763 273.528C331.72 268.963 333.242 259.073 338.568 252.986C346.176 243.856 346.176 240.052 338.568 232.444C325.634 219.51 299.765 251.464 299.765 280.376C299.765 291.788 292.918 309.287 285.31 319.178C256.398 354.176 230.53 314.613 242.704 252.986C248.79 219.51 288.353 179.947 310.417 185.272C326.394 189.077 326.394 189.077 309.656 180.708C270.854 160.165 209.227 230.922 204.662 301.679C200.858 363.306 146.839 392.217 109.559 352.654C88.2558 329.829 80.6476 272.007 94.3424 231.683C101.19 210.38 107.276 204.293 121.732 204.293C132.384 204.293 152.926 198.207 168.903 191.359C184.12 184.512 202.38 178.425 208.466 178.425C214.553 177.664 219.879 173.86 219.879 168.534C219.879 163.969 230.53 150.274 242.704 138.101C271.615 110.712 277.702 71.9094 254.877 59.7362C225.965 44.5197 179.555 65.8228 127.819 116.798C101.951 141.905 77.6043 169.295 73.0393 177.664C65.431 192.881 64.6702 192.12 45.6496 174.621C27.3897 157.122 15.9773 106.147 32.7155 116.037C36.5197 118.32 38.8021 114.516 38.0413 106.907C38.0413 99.2991 47.1712 89.4084 61.6269 82.561C88.2558 70.3877 94.3424 54.4104 75.3218 47.563C40.3238 33.8681 0 71.9094 0 117.559C0 137.34 6.84743 150.274 28.9114 173.099C57.062 202.011 57.8228 203.532 48.6929 230.161C37.2805 264.398 37.2805 330.59 47.932 357.98C51.7362 369.392 64.6702 384.609 76.0826 391.456C92.8208 402.869 100.429 403.63 127.058 396.021C144.557 390.696 162.817 385.37 166.621 384.609C181.837 380.805 193.25 370.153 189.446 364.067C187.163 361.023 191.728 353.415 198.576 348.089C208.466 339.72 211.51 339.72 213.792 346.568C219.879 364.067 260.203 357.98 279.223 336.677C295.201 319.178 299.765 318.417 313.46 326.786C327.916 335.916 331.72 334.394 349.219 318.417L368.24 300.918V319.939C368.24 334.394 362.153 342.003 343.893 349.611C272.376 378.522 216.075 431.019 216.075 469.061C216.075 507.863 278.462 521.558 322.59 491.125C359.871 466.017 377.37 437.867 387.26 389.174C394.869 349.611 397.912 345.046 416.933 342.763C428.345 341.242 442.801 344.285 448.887 349.611C464.104 361.784 461.821 401.347 444.322 430.258C428.345 456.887 413.889 462.974 413.889 443.953C413.889 431.019 394.869 427.976 387.26 440.149C384.978 443.953 381.935 475.908 380.413 510.906C378.131 545.904 375.087 587.749 372.044 604.488L367.479 634.16L386.5 612.857C399.434 599.162 406.281 582.424 406.281 566.446C406.281 511.667 415.411 469.821 426.823 473.626C432.91 475.908 435.193 474.386 432.91 470.582C423.78 456.127 467.147 462.974 483.125 478.951C515.079 510.906 479.32 593.075 419.976 621.987C375.087 643.29 344.654 642.529 270.854 615.139C235.856 602.966 194.011 592.314 177.272 592.314C114.885 592.314 75.3218 632.638 106.516 663.832C122.493 680.57 132.384 679.049 132.384 660.789C132.384 653.181 139.992 639.486 149.122 630.356C170.425 610.574 214.553 610.574 280.745 631.117C332.481 647.094 432.149 649.376 423.019 634.921C420.737 631.117 424.541 630.356 432.149 632.638C440.518 636.442 443.562 634.921 439.757 628.834C435.953 622.748 438.236 621.987 447.366 625.03C454.974 628.073 458.778 627.312 455.735 622.747C451.931 615.9 461.061 612.096 476.277 613.618C478.56 614.378 485.407 609.813 489.972 603.727C495.298 597.64 496.819 592.314 494.537 592.314C491.494 592.314 493.015 585.467 497.58 577.098C502.145 568.729 509.753 564.164 514.318 566.446C518.883 569.49 520.405 568.729 518.123 563.403C511.275 553.512 519.644 529.927 528.013 535.252C534.861 539.817 573.663 501.776 573.663 491.885C573.663 488.081 578.989 485.799 585.075 485.799C598.77 485.799 599.531 494.929 588.119 534.492C576.706 576.337 583.554 597.64 610.943 601.444C623.877 602.966 631.486 601.444 629.203 598.401C626.921 594.597 631.486 592.314 639.094 593.836C646.702 595.358 653.55 591.554 654.31 586.228C656.593 567.207 657.354 566.446 666.484 575.576C687.787 596.879 729.632 577.859 760.826 532.209C778.325 505.58 779.086 505.58 779.086 524.601C779.086 536.013 783.651 548.187 788.977 552.751C798.867 561.121 840.713 561.121 835.387 552.751C832.344 547.426 855.929 537.535 867.342 539.817C917.556 548.947 990.596 460.692 1008.09 369.392C1014.18 341.242 1021.79 322.982 1029.4 320.7C1087.22 300.157 1135.15 219.51 1124.5 160.926C1115.37 113.755 1070.48 89.4084 1042.33 117.559C1024.83 134.297 1027.12 141.905 1048.42 138.101C1061.35 135.058 1070.48 140.384 1082.66 154.839C1116.89 198.967 1094.83 276.572 1039.29 303.961C1014.94 316.895 1014.18 316.135 992.117 294.831C976.14 278.854 963.206 272.767 943.424 272.767C909.187 272.767 909.187 270.485 938.859 166.252C964.727 74.9527 966.249 58.2145 949.511 40.7155C934.294 26.2598 912.23 31.5856 884.841 56.6929C871.907 68.8661 863.538 72.6702 858.212 67.3444C840.713 49.8454 828.54 67.3444 827.779 111.472C827.779 140.384 822.453 165.491 811.041 186.794C790.498 226.357 775.282 230.161 782.129 194.402C784.412 181.468 788.216 147.231 791.259 119.841C796.585 64.3011 790.498 52.8887 763.109 68.1053C750.935 74.1919 749.414 77.996 756.261 82.561C777.564 95.495 739.523 224.835 712.894 233.205C696.917 237.769 701.482 190.598 717.459 174.621C730.393 161.687 730.393 158.644 722.024 151.035C706.047 138.101 696.917 147.231 683.983 190.598C671.049 235.487 660.397 249.943 642.137 249.943C601.813 249.943 628.442 128.971 674.092 104.625C684.743 99.2991 691.591 99.2991 699.96 106.147C707.568 112.233 710.612 112.233 710.612 106.147C710.612 91.6909 673.331 87.8867 653.55 100.821C622.356 121.363 594.205 170.056 590.401 211.901C588.119 235.487 581.271 253.747 572.902 262.116C559.207 274.289 558.446 274.289 558.446 246.139C558.446 230.161 562.25 186.794 567.576 149.514C576.706 83.3218 577.467 80.2785 603.335 63.5403C677.896 17.1299 740.284 -2.65156 763.869 14.0866C773.76 20.934 773.76 23.2165 761.587 30.064C747.131 38.433 750.935 52.1279 767.673 52.1279C785.172 52.1279 786.694 29.3031 770.717 13.3258C749.414 -7.97735 712.133 -1.89074 642.137 33.1073C613.226 47.563 587.358 59.7362 585.836 59.7362C583.554 59.7362 581.271 46.8021 579.749 30.8248C578.228 8.76083 573.663 1.91339 560.729 0.391741C552.36 -1.12991 542.469 1.91339 539.426 7.23918ZM258.681 77.996C264.007 90.93 245.747 127.45 224.444 146.47C216.075 154.079 210.749 163.969 213.792 168.534C216.075 172.338 214.553 173.86 210.749 171.578C206.184 168.534 187.163 173.099 169.664 181.468C151.404 189.837 130.101 196.685 123.254 196.685C111.841 196.685 111.081 193.642 118.689 177.664C123.254 167.773 129.34 160.926 132.384 162.448C135.427 164.73 137.71 160.165 136.949 152.557C136.949 145.71 140.753 140.384 146.079 141.905C152.165 142.666 154.448 140.384 152.165 136.58C149.883 132.775 163.578 115.276 182.598 98.5383C219.118 66.5836 251.073 58.2145 258.681 77.996ZM959.402 307.005L980.705 325.264L960.923 326.025C941.142 326.025 912.23 302.44 921.36 293.31C929.729 284.18 937.338 287.223 959.402 307.005ZM363.675 377.001C353.784 424.933 335.524 463.735 314.221 481.995C262.485 525.362 198.576 486.56 235.095 434.063C252.594 410.477 313.46 370.153 324.112 376.24C328.677 379.283 330.199 378.522 327.155 373.197C321.829 364.827 333.242 357.98 355.306 357.219C365.957 356.458 367.479 360.262 363.675 377.001ZM756.261 417.324C756.261 426.454 710.612 478.191 702.242 478.191C693.873 478.191 701.482 456.887 719.741 430.258C734.197 410.477 756.261 402.108 756.261 417.324ZM581.271 440.91C581.271 459.17 563.772 456.887 559.968 437.867C558.446 430.258 562.25 424.933 569.098 424.933C576.706 424.933 581.271 431.78 581.271 440.91Z" fill="black"/>
<path d="M860.494 577.098C840.712 580.902 786.694 601.445 740.283 622.748C671.048 655.463 649.745 662.311 613.225 663.072C567.576 663.072 527.252 647.855 512.796 625.03C505.949 612.857 505.188 613.618 506.71 629.595C510.514 661.55 545.512 679.81 600.291 679.049C642.137 679.049 658.114 673.723 719.741 643.29C799.628 602.966 862.776 588.511 911.469 599.923C946.467 607.531 979.944 640.247 974.618 661.55C972.335 669.919 976.14 676.006 986.03 678.288C994.399 680.571 998.964 680.571 996.682 678.288C994.399 676.006 997.443 669.158 1003.53 663.072C1031.68 634.921 1008.09 591.554 956.358 577.859C924.403 568.729 912.991 568.729 860.494 577.098Z" fill="black"/>
</svg>
