<svg width="1146" height="680" viewBox="0 0 1146 680" fill="none" xmlns="http://www.w3.org/2000/svg">
<path d="M825.875 7.59059C817.951 42.1561 819.3 60.5349 829.079 55.3079C831.102 54.2962 833.126 53.7904 833.632 54.1276C835.992 56.4882 838.016 85.3209 838.184 116.851C838.353 155.801 836.835 167.772 828.742 193.233L823.683 209.082L826.55 221.56C828.067 228.304 829.922 234.374 830.765 234.88C832.451 235.892 835.486 226.112 842.399 196.942C850.493 162.883 853.191 139.951 852.01 118.538C850.83 99.4843 846.783 61.7152 844.929 52.4415C844.086 48.0576 844.591 47.0459 847.458 46.0342C851.842 44.6853 851.842 42.4933 847.458 35.0744C845.434 31.8708 841.388 22.7657 838.521 14.8409C832.114 -2.35754 828.742 -4.38089 825.875 7.59059Z" fill="black"/>
<path d="M778.495 10.7941C768.041 20.5737 756.576 35.4116 756.576 38.9524C756.576 40.9758 758.093 41.8188 761.634 41.8188H766.692V60.3662C766.692 93.92 771.076 121.741 785.408 179.238C801.595 243.816 804.63 268.097 803.281 323.233C802.775 344.141 801.595 364.543 800.752 368.421C799.572 374.154 799.74 375.671 801.426 375.671C804.967 375.671 828.404 364.037 831.271 360.833C837.509 354.089 836.498 316.657 828.91 263.881C824.189 231.171 817.95 208.239 800.583 161.028C780.856 107.578 778.158 96.6178 777.821 73.0121C777.652 50.4181 778.832 45.1911 784.059 45.1911C787.769 45.1911 787.769 44.6852 787.937 24.1145C787.937 12.4803 787.769 3.03798 787.432 3.03798C787.094 3.03798 783.048 6.57884 778.495 10.7941Z" fill="black"/>
<path d="M145.693 17.7074C145.019 18.2133 144.513 28.1614 144.513 39.7956V60.7036L150.246 59.6919C155.81 58.6802 155.81 58.6802 160.7 69.1342C165.252 79.0823 165.589 81.4429 166.433 108.421C167.276 135.905 167.613 137.591 172.503 148.045C175.369 154.115 180.259 162.04 183.294 165.58C188.689 171.651 204.033 181.767 208.08 181.767C212.295 181.767 203.19 164.063 194.254 154.621C182.619 142.481 180.427 134.893 179.078 100.833C177.898 72.3378 176.549 65.7619 170.311 57.3313C165.927 51.4299 166.433 48.5635 171.66 48.5635C173.346 48.5635 174.863 48.0576 174.863 47.5518C174.863 46.0343 149.234 16.5271 147.885 16.5271C147.379 16.5271 146.199 17.033 145.693 17.7074Z" fill="black"/>
<path d="M442.114 30.859C411.763 37.4349 364.046 65.0873 339.26 90.3792C332.178 97.4609 325.771 104.543 324.928 105.892C324.085 107.746 326.108 111.287 332.516 118.2L341.452 127.98L360.842 108.589C381.75 87.85 392.542 81.1055 411.426 77.2274C422.892 74.8668 430.142 76.7216 436.718 83.6347C443.125 90.3792 444.643 95.9434 444.643 112.467C444.643 132.195 441.608 143.492 429.468 167.435C421.206 183.79 419.351 189.186 419.351 195.593C419.351 200.146 419.857 203.687 420.363 203.687C420.868 203.687 426.264 199.134 432.334 193.739C451.893 176.203 468.586 169.964 481.906 175.528C500.622 183.285 499.442 231.002 479.208 285.464C462.684 330.146 438.236 367.915 423.735 371.625C417.665 373.142 412.606 369.601 412.606 364.037C412.606 358.136 419.52 351.391 440.596 337.228C451.387 330.146 456.446 325.593 458.469 321.21C460.155 317.837 460.661 314.634 459.818 314.128C456.277 311.936 416.99 335.542 401.309 349.368C381.413 366.903 378.209 382.247 393.216 388.486C410.752 395.736 437.055 385.788 467.911 359.822C496.913 335.542 518.158 303.337 531.815 263.038C537.042 247.863 538.054 242.13 538.728 226.281C539.572 206.553 537.38 195.087 530.298 181.261C525.745 172.156 514.28 160.185 506.355 156.138C498.262 151.923 483.424 150.574 473.307 152.934C469.26 153.777 465.551 154.283 465.213 153.946C464.708 153.609 466.731 150.405 469.429 146.864C479.883 133.544 492.36 113.479 499.105 99.4843C514.786 66.7735 507.367 39.9641 480.557 31.7021C468.08 27.824 456.783 27.6554 442.114 30.859Z" fill="black"/>
<path d="M246.523 83.8034C237.25 89.5362 222.075 107.072 216.848 118.369C213.981 124.27 210.609 135.23 209.091 142.48C206.562 154.621 206.562 156.307 209.091 165.243C214.318 182.947 233.372 200.314 247.535 200.314C251.919 200.314 252.088 199.977 250.739 195.425C248.378 186.994 245.849 183.79 240.285 181.936C225.953 176.877 220.557 165.075 224.435 146.696C228.651 126.294 240.791 106.397 259.001 89.5362L268.443 80.7683L260.012 80.5997C254.617 80.5997 249.727 81.78 246.523 83.8034Z" fill="black"/>
<path d="M61.2183 94.2574C45.2001 112.13 39.6359 132.027 47.0549 146.359C51.776 155.632 63.4103 163.894 75.3817 166.423C93.7605 170.47 131.53 167.435 159.857 159.848C166.264 158.161 166.77 157.487 165.758 153.44C165.252 150.911 163.903 141.806 162.892 133.207C161.205 120.224 160.531 117.695 158.17 118.538C140.803 123.765 131.698 125.113 113.32 125.282C94.9408 125.282 92.5802 124.945 86.6788 121.235C78.9226 116.514 74.3701 108.084 72.8526 95.2691C72.1781 90.0421 70.9978 85.6582 70.3234 85.6582C69.4803 85.6582 65.4336 89.5362 61.2183 94.2574Z" fill="black"/>
<path d="M214.15 92.4026C210.272 93.2457 201.335 96.4493 194.422 99.8216L181.608 105.723L182.619 115.503C183.294 120.898 184.811 128.654 186.329 132.87C188.689 140.289 197.963 154.789 200.155 154.789C200.83 154.789 201.841 150.237 202.347 144.841C203.865 131.015 208.923 118.369 218.702 104.543C223.424 97.9668 227.133 92.0654 227.133 91.5596C227.133 90.3793 223.086 90.7165 214.15 92.4026Z" fill="black"/>
<path d="M256.134 99.9901C239.779 117.863 228.65 141.3 228.145 158.667C227.976 166.761 228.145 167.098 233.709 168.953C248.378 174.011 255.797 189.861 256.977 218.019C257.652 233.025 257.146 239.264 254.28 250.73C240.285 306.54 177.392 377.357 122.762 399.108C101.348 407.37 85.8358 410.405 73.5271 408.382C65.6023 407.033 62.7359 407.202 60.2067 408.888C58.352 410.237 56.8345 411.923 56.8345 412.766C56.8345 415.127 69.3118 417.993 85.1614 419.511C111.802 421.871 135.408 415.127 167.613 395.736C240.791 351.897 305.201 294.737 328.806 252.922C355.278 205.541 351.4 150.574 319.195 118.369C308.236 107.409 282.775 93.2456 270.804 91.3909C265.239 90.3792 264.228 91.0537 256.134 99.9901Z" fill="black"/>
<path d="M403.839 110.781C391.699 114.659 378.547 123.09 375.512 128.823C371.971 135.23 372.814 152.429 377.872 180.081C384.111 213.466 385.629 235.386 383.774 263.544C381.919 290.859 378.715 311.261 373.657 326.774C364.215 354.932 335.045 364.037 335.045 338.745C335.045 327.448 346.173 303.505 367.25 269.108C378.21 251.235 380.57 246.008 380.57 240.444C380.57 234.374 380.233 233.868 377.704 235.892C373.826 239.264 351.906 268.434 342.97 282.26C333.022 297.604 320.376 323.064 315.486 337.565C311.439 349.031 309.922 371.287 312.451 378.2C314.137 382.247 322.23 385.788 329.987 385.788C338.249 385.788 345.499 382.922 357.808 374.66C366.07 369.264 367.924 366.735 373.657 354.763C388.495 323.739 405.356 261.184 410.92 216.333C413.618 195.256 417.665 138.602 417.665 122.247C417.665 105.723 418.339 106.229 403.839 110.781Z" fill="black"/>
<path d="M1040.69 147.876C1000.05 159.51 980.324 192.558 983.022 244.154C984.202 264.893 988.418 283.44 994.656 294.231C1006.63 315.139 1040.86 352.571 1074.07 381.235C1115.38 416.813 1125.5 430.133 1127.35 451.547C1128.53 463.012 1132.75 472.455 1136.46 471.274C1142.19 469.42 1144.38 441.767 1140.17 425.412C1134.6 403.492 1131.74 399.951 1080.14 347.85C1026.52 293.726 1014.55 280.237 1007.64 265.23C995.668 239.601 998.534 206.216 1014.38 188.174C1021.3 180.081 1027.54 177.889 1039.68 178.732C1055.36 179.912 1065.98 189.017 1072.05 206.216C1077.28 221.391 1073.23 257.305 1061.93 295.58L1057.04 312.442L1065.64 320.366C1070.36 324.919 1075.08 328.46 1076.26 328.46C1078.63 328.46 1093.63 305.191 1104.93 283.777C1126.51 243.479 1134.1 208.408 1126.34 186.151C1119.43 166.592 1095.99 149.562 1071.54 146.358C1055.36 144.335 1052.66 144.335 1040.69 147.876Z" fill="black"/>
<path d="M730.947 152.934C722.347 155.801 714.76 161.534 700.596 176.372C684.747 193.064 678.677 197.785 667.548 202.001C661.647 204.361 659.792 205.879 660.129 208.239C661.31 215.49 661.816 215.658 668.729 212.117C672.438 210.263 675.979 208.745 676.485 208.745C678.34 208.745 676.991 215.49 671.427 233.7C656.926 281.248 651.193 341.612 659.455 361.339C662.827 369.095 668.897 376.009 677.159 381.067C681.375 383.765 686.433 384.776 698.236 385.451C712.399 386.125 714.591 385.788 722.853 381.91C740.22 373.648 770.571 341.443 792.49 308.226L800.752 295.58L799.909 279.731C798.897 263.038 797.211 258.992 792.996 262.532C791.647 263.713 782.373 276.696 772.425 291.534C762.477 306.372 750.843 322.39 746.628 327.111C727.743 348.187 711.556 350.885 697.056 335.542C690.648 328.966 689.131 321.547 688.962 298.11C688.794 275.01 692.334 252.922 700.428 224.763C710.713 188.68 716.783 180.081 732.127 180.081C744.942 180.081 754.215 189.692 760.791 209.925C762.309 214.815 764.332 218.862 765.175 218.862C769.053 218.862 772.425 206.047 772.425 191.041C772.425 178.226 771.919 174.685 768.379 167.604C766.018 162.883 762.14 157.824 759.779 155.969C754.721 152.429 738.197 150.574 730.947 152.934Z" fill="black"/>
<path d="M883.204 164.4C871.232 171.65 852.853 190.029 847.626 200.314C843.748 207.902 837.173 232.519 838.521 233.868C839.87 235.217 844.76 228.135 853.359 212.623C864.656 192.39 875.279 184.633 891.803 184.465C900.065 184.296 902.088 184.971 906.304 189.017C916.083 198.291 917.432 206.722 920.13 273.661C921.479 307.72 921.816 311.767 926.031 323.401C942.724 369.264 976.952 385.282 1031.75 372.973C1049.79 368.927 1049.62 369.095 1040.69 359.147L1032.76 350.379H1018.6C1007.81 350.379 1002.75 349.536 997.86 347.176C988.418 342.286 978.132 330.82 970.714 316.488C960.091 295.918 957.73 283.778 956.55 244.997C955.707 210.094 953.852 198.291 947.108 185.139C938.171 167.435 923.502 158.161 904.955 158.161C895.175 158.161 892.646 158.836 883.204 164.4Z" fill="black"/>
<path d="M592.853 166.086C576.497 174.517 572.451 186.32 580.207 202.844C587.12 217.85 601.115 226.618 616.29 225.269C620.674 224.932 622.697 223.92 623.034 221.728C624.215 215.827 621.686 210.937 615.278 206.722C606.51 200.82 596.394 191.041 596.394 188.512C596.394 185.139 607.353 187.668 613.929 192.727C617.133 195.087 622.36 202.338 626.069 209.251C631.634 219.705 632.477 223.246 633.151 235.386C633.994 252.416 631.971 263.713 622.529 292.545C614.098 318.343 599.935 346.839 592.684 352.909C585.265 359.147 575.654 358.81 569.416 352.066C556.433 338.239 558.962 289.51 574.98 238.758C580.544 221.56 580.713 220.548 577.846 218.019C576.16 216.501 573.125 211.949 570.933 207.733C568.741 203.687 566.381 200.314 565.706 200.314C565.032 200.314 561.491 205.879 557.781 212.792C536.874 250.561 525.239 320.704 535.525 347.176C542.606 365.386 561.154 380.73 576.16 380.73C588.469 380.73 595.045 377.357 606.51 365.555C629.104 342.117 647.483 300.639 654.565 256.8C660.298 221.391 655.239 193.401 639.896 175.866C626.744 161.028 610.051 157.487 592.853 166.086Z" fill="black"/>
<path d="M118.378 194.919C96.6271 203.518 90.2198 207.396 91.0628 211.274C91.4001 213.129 93.7606 222.066 96.2898 231.339C101.685 251.91 102.023 271.3 97.3015 298.278C95.4468 308.901 93.9293 318.512 93.9293 319.523C93.9293 327.111 105.058 313.453 115.849 292.714C130.855 264.219 140.972 230.496 141.647 207.734C141.984 196.774 141.478 194.582 138.78 192.558C134.228 189.355 132.036 189.523 118.378 194.919Z" fill="black"/>
<path d="M59.5322 362.182C50.4271 365.723 42.671 372.299 38.9615 379.381C36.0951 384.776 35.9265 396.411 38.4556 401.132C40.1418 404.504 40.3104 404.504 46.3804 400.795C54.1366 396.073 56.8344 392.87 56.8344 388.149C56.8344 385.957 59.0264 382.416 62.0614 380.055C69.6489 373.648 79.9343 374.154 108.936 382.584C130.012 388.654 133.553 389.16 137.937 387.474C140.635 386.294 142.827 384.776 142.827 383.933C142.827 381.573 129.506 372.636 118.378 367.241C99.3247 358.304 74.8759 356.112 59.5322 362.182Z" fill="black"/>
<path d="M821.492 390.341C811.206 395.568 799.572 406.359 795.188 414.789C790.635 423.557 790.804 442.61 795.357 451.715C797.211 455.256 806.148 467.565 815.253 479.031C836.329 505.334 842.737 514.271 848.638 525.736C853.022 534.167 853.528 536.528 853.359 552.714C853.359 566.541 852.516 572.948 849.65 581.547C842.737 601.612 830.259 616.956 811.375 628.421C798.898 636.009 764.163 647.98 738.197 653.376C718.301 657.76 714.254 657.928 673.113 658.097C626.744 658.097 618.82 657.254 571.102 647.643C500.285 633.48 429.805 603.804 348.871 553.895C290.363 517.812 228.145 474.31 174.695 431.988C149.74 412.26 147.885 411.249 143.501 412.766C140.972 413.778 139.623 415.127 140.466 415.97C146.199 421.028 226.627 485.101 260.012 511.236C321.725 559.29 356.29 581.716 411.764 610.042C539.572 675.127 660.973 695.36 762.309 668.382C797.717 658.94 826.55 643.259 848.807 621.002C861.453 608.525 865.499 603.129 871.064 591.664C880.506 572.105 883.71 556.761 882.698 533.998C882.023 517.306 881.518 514.777 875.785 503.479C869.378 490.328 862.127 482.066 835.486 457.111L818.962 441.936V433.168C818.962 422.546 822.335 415.464 829.585 411.08C842.905 402.818 856.057 410.068 861.79 428.616C862.633 431.145 863.307 431.313 865.499 429.459C870.052 425.581 872.918 418.162 872.918 409.562C872.918 394.219 861.79 385.788 841.388 385.788C832.451 385.957 828.067 386.968 821.492 390.341Z" fill="black"/>
<path d="M69.9863 394.05C56.1601 396.917 41.828 406.022 25.304 422.208C16.5362 430.976 8.77999 438.058 8.27416 438.058C7.93693 438.058 6.41942 436.709 5.23913 435.023C1.02383 429.627 -0.83091 435.697 0.349377 452.39C1.36105 468.914 3.04717 477.176 5.57636 478.019C6.41942 478.356 9.45444 474.478 12.4895 469.588C15.3559 464.699 19.4026 459.303 21.2573 457.617C25.8098 453.57 25.8098 449.861 21.4259 449.861C19.5712 449.861 18.0537 449.186 18.0537 448.512C18.0537 445.477 41.3222 418.499 49.5842 411.586C61.2184 402.312 66.614 400.795 95.1095 399.446C116.692 398.603 122.931 397.422 120.57 395.062C119.052 393.544 76.2249 392.701 69.9863 394.05Z" fill="black"/>
<path d="M625.058 394.219C618.482 396.242 602.633 403.83 599.26 406.359C596.225 408.551 596.225 408.719 599.429 411.586C602.633 414.452 603.307 414.452 611.232 411.923C623.203 407.876 631.803 410.574 642.257 421.197C664.682 444.465 653.048 479.199 617.471 494.712C606.848 499.433 606.511 499.601 606.511 505.84V512.079L613.255 509.718C641.919 499.601 673.113 476.67 681.543 459.303C692.503 436.878 682.386 405.347 661.478 395.736C654.228 392.364 633.32 391.521 625.058 394.219Z" fill="black"/>
<path d="M722.348 405.179C718.807 406.359 713.074 409.225 709.533 411.586L703.126 415.801L701.945 437.046C699.416 485.607 692.672 539.563 687.951 549.174C681.206 562.831 674.462 554.738 672.775 530.963C672.27 522.701 671.258 515.114 670.584 514.102C669.909 512.753 666.537 513.09 659.455 515.282L649.507 518.317V533.324C649.507 550.354 648.158 555.244 643.437 557.941C638.379 560.639 635.681 557.267 631.634 543.609C625.058 521.015 624.721 520.678 617.808 524.219C608.703 528.94 608.366 529.952 611.063 542.26C616.122 564.18 623.541 573.454 635.849 573.285C640.065 573.116 645.123 572.273 646.978 571.262C649.001 570.25 654.565 569.913 660.804 570.587C685.253 573.116 693.683 565.698 704.306 532.312C711.894 508.707 713.411 507.189 723.528 510.561C737.017 514.945 745.11 534.167 739.546 548.836C738.197 552.714 738.366 553.895 740.726 555.581C746.965 560.133 750.843 558.279 756.07 547.993C763.152 534.841 765.512 526.748 765.344 516.463C765.344 504.997 761.466 497.915 753.204 493.7C744.942 489.485 736.511 489.485 724.539 493.7C719.481 495.386 715.097 496.566 714.929 496.398C714.591 496.229 717.121 482.74 720.324 466.722C728.418 427.267 731.79 405.853 730.104 404.167C729.429 403.492 725.888 403.83 722.348 405.179Z" fill="black"/>
<path d="M162.048 406.865C159.351 409.057 159.182 409.562 161.374 411.08C267.094 481.054 330.829 511.742 398.274 525.231C419.351 529.446 519.169 529.446 544.799 525.231C561.323 522.533 564.358 521.015 564.358 515.114C564.358 512.416 563.177 512.247 550.531 513.428C542.775 514.102 511.076 514.777 480.051 514.777C428.625 514.777 421.88 514.439 404.176 511.067C379.558 506.346 346.848 497.241 325.602 489.485C298.624 479.537 247.198 453.233 213.644 432.156C186.834 415.295 168.119 404.335 165.927 404.335C165.589 404.335 163.903 405.516 162.048 406.865Z" fill="black"/>
<path d="M569.416 412.935C561.491 416.138 556.264 422.883 561.829 422.883C563.177 422.883 566.718 425.075 569.753 427.773L575.318 432.831L575.149 454.413C574.812 476.839 572.114 502.131 565.875 541.08C563.683 553.557 562.503 565.192 563.177 566.878C564.189 569.407 564.695 569.407 568.91 567.215C580.376 561.314 591.336 544.958 597.069 525.736C601.284 511.741 604.825 477.176 604.825 450.535C604.825 428.616 604.488 426.255 600.947 421.028C598.923 417.993 595.214 414.452 593.022 413.272C588.132 410.743 575.318 410.574 569.416 412.935Z" fill="black"/>
<path d="M907.652 425.412C902.088 427.604 897.03 430.47 896.355 431.651C894.163 435.023 894.501 445.645 897.536 464.193C899.053 473.467 901.077 500.444 902.088 524.05L904.112 567.046L912.205 566.709C926.368 565.866 926.874 565.192 926.874 545.127C926.874 526.411 928.56 518.992 932.776 518.992C936.654 518.992 938.846 526.242 940.7 545.97C941.544 555.749 943.061 564.517 944.073 565.697C948.119 570.756 972.4 566.203 974.76 559.965C976.109 556.592 974.592 554.4 970.545 554.4C968.69 554.4 965.486 553.557 963.632 552.546C960.428 550.86 960.26 549.679 961.271 536.865C961.777 529.446 961.608 521.015 960.934 518.317C958.911 510.898 952.166 506.683 940.7 505.84L930.752 505.166L929.741 477.85C928.898 457.448 927.717 447.163 924.851 436.54C922.659 428.616 920.298 422.04 919.287 421.871C918.444 421.534 913.048 423.051 907.652 425.412Z" fill="black"/>
<path d="M1072.89 426.255C1061.43 429.796 1055.02 440.25 1055.02 455.762C1055.02 480.211 1072.39 497.578 1098.86 499.096C1109.82 499.77 1109.99 495.386 1099.53 486.281C1076.6 466.385 1070.87 458.797 1069.18 445.645C1068.17 439.407 1068.51 437.889 1071.04 437.046C1073.23 436.203 1075.42 437.383 1078.79 441.599C1086.72 451.21 1103.58 480.211 1109.48 494.543C1122.8 525.905 1126.17 556.424 1117.07 561.314C1109.48 565.36 1090.09 552.377 1085.37 539.9C1084.36 537.539 1083.68 530.289 1083.68 523.882C1083.68 512.922 1083.52 512.247 1079.81 512.247C1073.9 512.247 1071.88 515.451 1071.71 524.725C1071.54 535.853 1069.52 550.691 1067.83 552.208C1067.16 553.052 1064.8 551.534 1062.61 549.005C1056.87 542.429 1053.84 523.882 1056.54 511.236C1057.55 505.84 1058.05 501.288 1057.72 500.782C1057.21 500.444 1053.16 502.299 1048.78 504.997L1040.69 510.055L1040.18 520.341C1039.34 538.382 1048.95 566.035 1057.55 569.913C1060.75 571.43 1062.61 571.093 1067.5 567.889C1070.87 565.866 1074.41 562.662 1075.42 560.808C1077.28 557.435 1077.44 557.604 1082.5 562.494C1090.6 570.081 1097.68 572.948 1108.13 572.948C1120.61 572.948 1128.37 569.07 1134.94 559.965C1150.29 538.214 1149.78 517.137 1132.75 481.223C1111.34 435.697 1094.14 420.016 1072.89 426.255Z" fill="black"/>
<path d="M1000.22 481.729C991.621 485.607 984.708 493.7 983.191 501.288C980.999 513.765 986.9 528.603 996.174 533.492C1006.46 538.719 1007.47 530.963 997.691 521.521C991.79 515.788 990.947 513.933 991.284 508.875C991.621 505.671 992.633 502.974 993.476 503.142C996.342 503.311 1002.75 514.271 1005.62 523.882C1008.82 535.179 1009.49 556.255 1006.63 557.267C1002.58 558.784 991.115 545.801 987.406 535.684C985.383 530.12 983.022 525.23 982.348 524.725C979.818 523.207 976.783 531.638 976.952 540.237C977.289 550.017 979.987 556.592 986.732 562.831C990.61 566.372 992.802 567.046 1001.57 567.046C1014.38 566.878 1019.27 564.011 1025.18 553.052C1031.08 541.923 1033.44 527.591 1032.76 506.515C1032.26 488.473 1032.26 488.304 1026.69 483.415C1020.12 477.513 1010.67 476.839 1000.22 481.729Z" fill="black"/>
<path d="M712.737 559.459C710.882 561.314 709.365 564.686 709.365 567.046C709.365 571.768 716.109 579.692 720.156 579.692C724.877 579.692 736.342 574.297 736.342 572.105C736.342 569.913 731.284 567.889 725.045 567.889C722.853 567.889 721.167 567.046 721.167 566.203C721.167 563.506 728.08 564.349 736.174 567.889C744.942 571.936 749.326 572.105 758.093 568.564C769.053 564.18 768.21 561.482 756.07 562.325C747.977 563 743.593 562.325 736.68 559.627C725.383 555.075 717.121 555.075 712.737 559.459Z" fill="black"/>
</svg>
