<svg width="1480" height="680" viewBox="0 0 1480 680" fill="none" xmlns="http://www.w3.org/2000/svg">
<path d="M292.058 1.38878C245.242 5.05774 194.611 27.0715 161.443 58.0376L156.306 62.7338L90.9987 63.1741C26.865 63.6144 25.5442 63.6144 18.94 66.8431C15.1243 68.6042 10.2813 72.2731 8.22663 74.768C-0.578911 85.1879 0.00812506 64.2014 0.00812506 372.834C0.00812506 651.969 0.00812497 655.932 2.9433 661.362C6.75904 668.553 8.37339 670.461 15.2711 675.597L20.9947 680H308.055H595.116L600.252 676.478C607.443 671.488 613.167 664.737 615.368 658.72C616.689 654.611 617.13 593.266 617.13 371.073V88.5633L613.167 81.9592C608.177 73.3004 604.068 69.6315 595.409 65.9625C588.512 63.0273 585.723 62.8806 524.525 62.8806H460.685L450.118 53.9283C435.735 41.8941 417.684 30.1534 400.66 21.935C381.581 12.8359 367.786 7.99291 350.028 4.17719C343.718 2.85636 308.789 -0.51908 306.734 0.0679535C306.294 0.0679535 299.69 0.654987 292.058 1.38878ZM350.028 18.7063C378.499 25.3104 413.281 42.0409 433.681 59.0649L438.084 62.7338L308.495 62.8806C220.587 62.8806 179.201 62.4403 179.788 61.413C181.989 57.744 217.652 34.9965 221.027 34.9965C221.321 34.9965 224.99 33.3821 229.246 31.4743C240.986 26.191 260.359 20.3206 276.649 17.2387C296.168 13.5697 330.656 14.3035 350.028 18.7063ZM574.716 90.9115C579.266 92.0855 582.641 94.1401 585.576 97.9559L589.979 103.239V372.247V641.403L586.897 645.805C580.44 654.904 598.491 654.317 307.908 654.317C52.9881 654.317 41.5409 654.171 36.8446 651.676C34.0562 650.208 30.534 646.686 29.0664 643.897C26.5715 639.201 26.4247 627.754 26.4247 372.101C26.4247 87.0957 26.1312 101.331 33.1756 94.8739C34.79 93.5531 38.3122 91.792 41.1006 91.0582C48.7321 88.8568 566.057 88.7101 574.716 90.9115Z" fill="black"/>
<path d="M63.2658 116.157C61.358 117.037 58.2761 119.826 56.6617 122.027C53.5798 126.136 53.5798 127.457 53.5798 195.406V264.675H306.003H558.427L558.867 195.993C559.16 119.679 559.307 120.413 549.621 116.304C545.365 114.543 508.822 114.249 305.71 114.249C119.034 114.249 66.0542 114.689 63.2658 116.157ZM128.426 164.44C128.867 166.348 129.013 178.969 128.867 192.764L128.426 217.713L110.815 218.153C84.1055 218.74 86.6003 221.822 86.6003 189.976C86.6003 169.723 87.0406 162.679 88.5082 162.239C89.3887 161.798 98.6345 161.358 108.908 161.358C127.105 161.211 127.693 161.358 128.426 164.44ZM497.522 173.979C503.979 178.529 506.181 182.198 506.328 188.802C506.328 197.754 503.246 202.89 495.468 206.559C488.13 209.935 484.901 210.375 483.58 208.174C483.14 207.293 481.379 206.706 479.911 206.706C478.444 206.706 475.508 204.505 473.454 201.863C466.409 192.764 469.638 176.768 479.031 172.952C484.314 170.751 493.706 171.338 497.522 173.979ZM269.314 178.088C273.57 182.491 274.45 184.399 274.45 189.829C274.45 195.112 273.57 197.167 269.461 201.423C265.205 205.972 263.737 206.706 257.573 206.706C251.703 206.706 249.942 205.972 245.686 201.716C241.43 197.46 240.696 195.699 240.696 189.829C240.696 183.665 241.43 182.198 245.979 177.942C250.235 173.832 252.29 172.952 257.573 172.952C263.003 172.952 264.911 173.832 269.314 178.088ZM316.276 176.181C325.669 183.518 325.816 195.406 316.863 203.037C306.15 211.989 289.126 203.918 289.126 189.829C289.126 176.327 305.856 167.962 316.276 176.181ZM365.44 175.887C374.246 182.198 374.833 194.965 366.614 202.597C363.092 205.826 360.891 206.706 355.314 206.706C349.59 206.706 347.536 205.972 343.867 202.303C335.942 194.672 336.235 184.546 344.454 177.355C350.471 171.925 359.13 171.338 365.44 175.887Z" fill="black"/>
<path d="M480.494 175.882C473.156 178.817 470.221 191.438 474.917 198.776C476.385 200.831 479.76 203.473 482.695 204.647C487.392 206.555 488.419 206.555 493.262 204.5C504.122 199.51 506.617 187.623 498.398 179.404C493.262 174.268 487.392 173.094 480.494 175.882Z" fill="black"/>
<path d="M53.5772 299.451C53.1369 301.359 52.9902 371.804 53.1369 456.191C53.5772 602.658 53.724 609.702 56.2189 613.518C62.3827 622.617 45.212 622.03 306.589 622.03C540.521 622.03 545.364 622.03 549.914 619.095C559.893 613.078 559.16 625.699 558.866 453.109L558.426 296.956L306.442 296.516L54.311 296.223L53.5772 299.451ZM530.248 326.015C532.45 327.483 532.743 329.977 532.45 341.718L532.009 355.66H474.774H417.538L417.098 341.718C416.804 329.977 417.098 327.483 419.299 326.015C422.968 323.226 526.579 323.226 530.248 326.015Z" fill="black"/>
<path d="M1200.49 45.2653C1196.24 50.2551 1193.01 54.5111 1193.45 54.8046C1193.89 55.2449 1198 54.2176 1202.69 52.6032C1207.39 50.9889 1211.65 49.6681 1212.23 49.6681C1213.11 49.6681 1215.75 51.8694 1224.27 59.6476C1228.23 63.1698 1228.38 63.3166 1232.34 60.675C1243.2 53.6305 1250.39 46.4394 1250.39 42.4769C1250.39 40.2755 1249.95 38.0741 1249.51 37.4871C1249.07 37.0468 1245.4 38.6612 1241.44 41.0093C1233.95 45.4121 1229.99 46.2926 1227.64 44.0912C1226.03 42.6237 1211.06 36.4598 1209.3 36.4598C1208.56 36.4598 1204.6 40.4223 1200.49 45.2653Z" fill="black"/>
<path d="M874.833 59.9435C870.43 61.9981 865.441 62.8786 858.25 62.8786C838.437 62.8786 823.615 74.1791 817.304 94.4318C815.983 98.541 815.103 121.289 814.369 170.746C813.782 209.491 812.608 247.795 811.727 255.867C807.472 297.106 808.352 364.762 813.929 403.359C817.304 427.868 818.478 430.363 834.035 445.332C850.471 461.182 862.946 467.933 875.567 467.933C886.72 467.933 910.202 464.851 917.98 462.503C927.225 459.568 939.406 451.643 944.103 445.479C949.679 437.994 956.577 423.612 959.806 411.871C962.594 402.038 963.034 395.434 964.208 328.512C964.942 288.594 966.116 243.245 966.997 227.982C970.959 157.391 971.546 127.159 969.198 117.913C967.877 113.07 966.41 106.76 965.823 103.824C964.502 97.8072 963.181 95.6059 953.201 84.0119C944.836 74.4726 933.242 65.3735 923.41 60.9708C912.99 56.2745 883.932 55.6875 874.833 59.9435ZM890.243 94.5785C897.14 97.367 916.219 111.749 919.301 116.299C921.062 119.087 921.502 139.193 921.649 256.747C921.942 407.762 922.382 400.571 912.99 415.54C900.222 435.646 875.86 435.059 866.028 414.513C857.809 397.782 858.103 401.892 857.516 274.211C857.075 197.31 857.516 151.961 858.543 144.33C859.277 137.872 860.744 126.278 861.478 118.647C863.533 100.889 864.56 98.541 872.045 95.1656C879.97 91.7901 883.198 91.6434 890.243 94.5785Z" fill="black"/>
<path d="M1368.52 59.9417C1363.83 61.8496 1357.66 62.8769 1351.35 62.8769C1341.08 62.8769 1336.97 64.1977 1327.87 69.9214C1321.41 74.0306 1312.76 86.7987 1310.41 95.4575C1309.23 99.42 1308.21 128.332 1307.47 174.414C1306.74 214.333 1305.56 253.371 1304.83 261.002C1299.84 310.167 1302.19 380.758 1310.11 419.502C1312.32 430.363 1312.32 430.363 1325.82 443.865C1342.55 460.595 1356.2 467.933 1370.14 467.933C1381.14 467.786 1406.53 464.264 1413.28 461.916C1421.36 459.128 1433.1 451.056 1437.21 445.626C1446.45 433.445 1453.94 413.779 1456.58 394.553C1457.16 390.884 1458.05 354.928 1458.63 314.569C1459.37 274.211 1460.69 221.964 1461.71 198.629C1464.21 141.834 1464.36 123.782 1462.01 114.977C1460.98 110.867 1459.66 105.584 1459.22 103.236C1458.19 97.5121 1448.95 85.4779 1437.21 74.7644C1422.38 60.969 1411.52 57.0065 1389.07 57.1533C1379.53 57.1533 1373.81 57.8871 1368.52 59.9417ZM1386.43 96.3381C1395.97 101.328 1409.03 111.308 1412.11 116.004C1414.16 119.233 1414.46 134.496 1414.9 256.746C1415.34 401.745 1415.49 397.635 1408.59 411.724C1404.19 420.823 1397.73 426.547 1389.36 429.042C1372.78 433.885 1361.63 424.786 1353.99 400.424C1351.21 391.325 1351.06 386.188 1350.62 274.944C1350.18 195.547 1350.62 155.042 1351.65 146.53C1352.53 139.632 1354.14 126.717 1355.17 117.765C1356.2 108.813 1357.52 100.594 1358.25 99.7135C1359.72 97.0719 1370.72 92.3756 1375.13 92.3756C1377.18 92.3756 1382.17 94.1367 1386.43 96.3381Z" fill="black"/>
<path d="M684.194 63.1736C670.839 67.2828 663.061 71.9791 660.126 77.7026C657.631 82.2521 657.484 90.3238 657.484 183.222C657.484 238.55 658.218 321.321 658.952 367.257L660.273 450.762L664.529 456.045C668.638 461.182 669.225 461.329 678.324 461.329C686.396 461.329 688.597 460.742 693 457.366C695.935 455.165 699.604 451.202 701.218 448.561C704.153 443.864 704.153 442.69 702.686 394.7C701.805 363.734 701.805 345.243 702.686 344.362C703.419 343.628 713.252 342.308 724.406 341.427C745.099 339.96 745.979 339.666 762.416 330.861C769.607 327.045 783.402 314.13 787.218 307.526C789.273 304.151 791.474 297.4 792.354 292.557C794.116 282.43 796.464 225.488 797.785 161.942L798.665 117.914L794.703 106.908C787.952 88.7095 778.559 75.9415 769.901 73.2999C767.406 72.5661 760.361 71.2453 754.344 70.218C748.327 69.3374 740.989 68.0166 738.201 67.2828C735.413 66.6958 728.515 65.3749 722.791 64.3476C717.215 63.3203 709.29 61.9995 705.474 61.2657C696.375 59.5046 695.201 59.6514 684.194 63.1736ZM729.395 101.037C747.74 103.972 749.795 106.027 752.877 124.078C754.198 132.15 754.198 145.798 753.023 182.782C749.942 273.185 748.18 288.447 739.081 298.28C734.532 303.27 734.532 303.27 718.682 304.151C705.768 304.738 702.686 304.444 701.952 302.83C700.778 299.748 703.86 103.239 705.034 101.331C706.355 99.1293 716.774 99.1293 729.395 101.037Z" fill="black"/>
<path d="M1026.88 61.4141C1005.6 62.4414 1001.93 63.1752 987.844 70.0728C978.305 74.7691 976.543 91.9398 982.414 123.933L986.23 144.773V297.107V449.295L990.045 454.285C995.035 460.743 1003.55 464.999 1011.91 464.999C1019.98 464.999 1025.56 462.357 1030.84 456.193L1034.66 451.497V402.48C1034.66 353.756 1034.66 353.463 1037.74 353.463C1042 353.463 1067.68 365.937 1075.9 371.954C1084.41 378.118 1085.59 382.08 1086.91 410.698C1087.49 422.439 1088.37 439.022 1088.81 447.534L1089.69 463.238L1096.01 468.521C1103.2 474.391 1107.01 474.978 1121.84 471.749C1131.96 469.695 1136.8 465.586 1138.13 457.954C1139.01 452.818 1136.51 414.367 1135.19 412.166C1134.9 411.579 1135.34 406.736 1136.22 401.306C1137.54 393.087 1137.39 389.565 1135.19 379.439C1130.35 356.544 1130.2 356.398 1119.34 348.179C1113.76 344.07 1107.45 339.667 1105.4 338.64C1103.2 337.466 1096.89 333.944 1091.16 330.568C1085.59 327.34 1079.72 324.258 1078.39 323.671C1074.14 322.056 1075.31 320.442 1085 314.572C1098.79 306.206 1113.62 294.906 1116.7 290.503C1121.54 283.752 1129.91 257.189 1131.52 243.688C1132.84 231.653 1135.19 184.838 1136.95 135.233C1137.69 116.742 1137.39 111.165 1135.19 103.68C1132.55 93.8476 1126.09 80.0524 1121.1 73.3015C1112 60.9738 1091.9 58.4789 1026.88 61.4141ZM1083.09 171.923C1083.09 252.933 1083.53 247.944 1073.7 268.49C1070.32 275.534 1068.12 277.735 1057.11 285.073C1047.43 291.531 1043.47 293.292 1039.94 292.998L1035.39 292.558L1034.95 195.257L1034.66 98.1036H1058.88H1083.09V171.923Z" fill="black"/>
<path d="M1202.7 63.0256C1196.24 66.1075 1192.13 71.8311 1189.93 80.3431C1187.87 88.7084 1183.03 112.337 1180.68 125.985C1179.51 132.883 1177.89 142.422 1177.01 147.265C1176.13 152.108 1174.22 169.866 1172.61 186.89C1171 203.767 1169.09 222.699 1168.21 228.716C1167.33 234.733 1166.01 244.713 1165.13 250.73C1164.39 256.747 1163.07 265.406 1162.34 269.809C1161.6 274.211 1160.28 282.87 1159.4 288.887C1158.52 294.904 1156.17 308.406 1154.27 318.973C1150.45 339.666 1148.4 364.468 1146.19 414.366C1145.46 432.124 1144.43 449.441 1143.99 452.964C1143.11 458.687 1143.55 459.568 1147.66 463.53C1151.77 467.346 1153.38 467.933 1161.02 467.933C1167.47 467.933 1171.73 466.906 1176.87 464.264C1187.73 458.834 1190.22 454.725 1190.22 443.131C1190.22 437.848 1190.96 416.127 1191.98 394.847C1193.6 357.864 1193.89 356.25 1196.68 355.516C1200.93 354.489 1240.41 352.434 1242.61 353.168C1243.49 353.461 1244.96 358.451 1245.84 364.175C1246.87 370.045 1248.34 378.704 1249.22 383.547C1250.1 388.537 1250.69 403.946 1250.54 418.769C1250.39 433.298 1250.69 447.68 1251.13 450.616C1252.3 457.366 1258.61 463.824 1266.83 466.612C1272.11 468.373 1273.29 468.227 1278.13 465.585C1284 462.503 1292.81 450.469 1295.59 441.516C1297.65 434.619 1297.8 429.336 1296.03 419.943C1294.27 411.284 1290.75 388.096 1287.67 364.468C1286.35 354.782 1284.59 343.188 1283.85 338.785C1283.12 334.383 1282.09 320.734 1281.36 308.7C1280.48 290.208 1278.72 279.348 1270.94 241.925C1265.95 217.269 1261.25 194.228 1260.52 190.559C1259.79 186.89 1258.61 181.313 1257.88 178.084C1253.91 160.62 1249.07 134.497 1248.19 126.719C1246.43 111.016 1242.76 91.6436 1240.56 87.2408C1235.72 77.995 1216.2 59.7969 1210.91 59.9437C1209.59 60.0904 1205.92 61.4113 1202.7 63.0256ZM1220.75 218.443C1224.56 233.266 1226.18 241.631 1230.58 268.341C1232.63 280.816 1234.98 293.73 1235.72 296.959C1238.65 309.874 1238.8 313.836 1236.74 314.717C1235.57 315.157 1227.2 314.864 1217.96 314.277C1202.4 313.249 1201.23 312.956 1201.67 310.167C1201.96 308.553 1202.7 302.536 1203.43 296.959C1205.34 281.843 1215.02 215.508 1216.05 210.665C1216.49 208.317 1217.08 206.702 1217.37 206.996C1217.67 207.289 1219.13 212.426 1220.75 218.443Z" fill="black"/>
<path d="M838.148 522.528C835.653 529.572 835.066 535.736 836.974 535.149C837.854 534.709 839.322 533.094 840.203 531.333C840.936 529.572 842.404 528.104 843.431 528.104C845.192 528.104 849.742 522.528 849.742 520.473C849.742 519.739 847.394 519.299 844.605 519.299C840.496 519.299 839.175 520.033 838.148 522.528Z" fill="black"/>
<path d="M974.483 539.845C973.309 540.578 970.227 541.312 967.732 541.312C964.797 541.312 962.008 542.633 959.66 545.128C956.138 548.797 956.138 549.091 954.964 591.651C954.23 618.801 954.23 638.467 955.257 645.512C956.578 655.785 957.165 656.959 962.742 662.242C968.906 667.966 968.906 667.966 979.032 667.232C990.039 666.351 993.268 664.59 997.377 656.665C999.138 653.143 1000.02 644.484 1000.9 618.361C1003.1 561.272 1002.95 555.695 998.991 549.971C992.681 540.432 980.94 535.735 974.483 539.845ZM985.049 551.732C987.251 553.347 989.452 556.135 989.892 557.896C990.333 559.657 990.626 581.084 990.333 605.446C989.892 647.86 989.746 649.914 986.81 653.877C984.315 657.106 982.554 657.986 978.005 657.986C972.722 657.986 971.988 657.546 969.053 651.382C965.971 645.071 965.824 643.017 965.824 605.887C965.824 566.115 967.292 551.292 971.548 548.504C974.336 546.742 979.766 548.063 985.049 551.732Z" fill="black"/>
<path d="M1067.52 541.46C1063.41 542.927 1058.42 546.009 1056.52 548.064C1053.29 551.586 1052.99 553.054 1052.7 569.637C1052.55 579.47 1052.11 597.668 1051.53 610.143C1050.5 636.119 1052.41 655.932 1056.52 661.655C1059.16 665.177 1059.74 665.324 1076.77 665.324C1095.26 665.324 1099.22 664.15 1099.22 658.573C1099.22 654.024 1083.67 652.996 1070.31 656.665C1067.67 657.399 1066.64 656.812 1065.47 653.583C1063.27 647.713 1063.56 557.456 1065.91 554.374C1068.7 550.706 1072.95 549.091 1082.79 548.064C1093.94 546.743 1096.29 546.009 1096.29 543.368C1096.29 537.791 1079.7 536.763 1067.52 541.46Z" fill="black"/>
<path d="M1107.59 540.432C1105.24 542.193 1105.09 546.889 1105.09 601.337C1105.09 671.928 1103.33 666.058 1125.35 666.058C1148.68 665.911 1148.83 665.764 1150.59 613.371C1151.32 591.944 1152.35 567.729 1152.79 559.51C1153.53 547.036 1153.23 544.394 1151.18 542.633C1149.56 541.312 1148.24 541.165 1146.48 542.34C1144.57 543.514 1143.69 547.329 1142.96 559.804C1136.79 654.024 1136.65 655.931 1134.45 657.252C1130.34 659.894 1123.44 658.867 1119.92 655.198C1117.13 652.263 1116.54 649.474 1115.51 632.156C1114.93 621.296 1114.78 611.463 1115.37 610.289C1115.96 609.115 1115.96 606.767 1115.22 605.153C1114.63 603.538 1114.05 588.569 1114.05 571.985C1113.9 539.991 1113.17 536.469 1107.59 540.432Z" fill="black"/>
<path d="M1262.56 539.992C1261.68 540.872 1248.33 541.606 1229.98 541.9C1200.05 542.487 1194.62 543.367 1194.62 547.33C1194.62 549.825 1201.37 552.173 1210.76 552.907L1220.15 553.787L1222.06 567.729C1223.38 576.388 1224.11 597.521 1224.11 623.791C1224.11 665.031 1224.11 666.058 1227.2 667.672C1229.4 668.846 1231.01 668.846 1233.65 667.379C1237.18 665.618 1237.18 665.177 1237.47 641.989C1237.76 612.784 1237.32 599.429 1235.71 585.34C1234.97 579.323 1234.24 569.637 1233.95 564.06L1233.51 553.787L1246.42 553.347L1259.19 552.907V606.474C1259.19 671.048 1257.43 666.058 1279.88 666.058C1292.65 666.058 1294.7 665.764 1297.93 662.683C1303.22 658.133 1304.68 648.594 1304.68 619.976C1304.68 606.914 1305.27 595.613 1306.01 594.733C1307.77 593.119 1308.65 545.715 1307.03 543.074C1305.71 540.725 1301.02 540.872 1299.11 543.22C1297.49 545.128 1296.91 553.787 1294.41 613.225C1293.38 637 1292.21 651.969 1291.04 654.317C1288.39 659.601 1280.03 660.188 1274.6 655.491L1270.64 651.969L1270.05 604.419C1269.61 578.149 1269.02 553.347 1268.58 549.091C1267.7 541.166 1265.21 537.35 1262.56 539.992Z" fill="black"/>
<path d="M661.887 542.194C650.88 545.13 648.092 547.331 646.037 554.229C643.542 562.741 643.102 660.775 645.597 663.71C648.679 667.526 662.034 669.287 673.775 667.672C684.928 666.205 689.038 663.71 687.57 659.747C686.396 656.812 682.727 655.932 677.884 657.546C675.683 658.28 670.106 658.72 665.409 658.427L656.751 657.986V635.679C656.751 609.703 656.457 610.437 671.72 607.355C678.764 605.741 680.966 604.713 680.966 602.805C680.966 599.43 676.857 598.256 666.584 598.696L658.218 599.136L657.778 578.884C657.485 561.86 657.778 558.044 659.686 555.99C662.768 552.614 674.802 548.652 681.993 548.652C685.075 548.652 688.45 548.065 689.625 547.331C692.706 545.423 690.358 541.314 686.396 541.314C684.488 541.314 679.938 541.02 676.416 540.58C672.747 540.14 666.437 540.874 661.887 542.194Z" fill="black"/>
<path d="M814.223 540.58C813.93 541.02 799.694 541.607 782.817 541.901C751.558 542.635 747.008 543.075 747.008 546.45C747.008 550.119 751.851 552.174 762.124 552.908L772.691 553.788L775.186 581.672C776.8 601.631 777.387 617.481 776.8 637.734L775.92 665.911L779.735 667.672C783.111 669.14 784.138 668.993 786.78 666.645C789.568 664.15 789.715 662.536 789.568 642.577C789.421 630.836 789.421 618.949 789.421 616.16C789.568 613.372 788.834 600.751 787.954 588.276C787.073 575.802 786.193 562.887 786.046 559.659L785.899 553.788L798.814 553.348L811.582 552.908V607.208V661.509L814.811 663.71C817.159 665.471 821.708 666.058 831.834 666.058C847.244 666.058 851.5 664.297 854.142 656.812C855.022 654.024 856.343 632.157 857.224 604.42C858.104 578.15 859.425 555.549 860.159 554.082C862.213 550.266 859.131 541.314 855.756 541.314C848.565 541.314 847.684 547.478 845.483 623.205C844.749 651.969 844.309 654.758 841.814 656.666C836.677 660.334 826.258 658.28 823.763 652.997C823.176 651.676 822.295 626.874 821.855 597.816C821.415 568.758 820.534 543.809 819.8 542.341C818.626 539.993 815.838 538.966 814.223 540.58Z" fill="black"/>
<path d="M877.327 540.874C876.006 541.168 874.538 542.635 874.098 543.956C873.658 545.277 872.924 572.867 872.337 605.154C871.163 672.809 870.282 668.553 884.518 666.938C889.214 666.351 894.351 665.031 895.965 664.003C901.101 660.628 912.989 641.403 915.924 631.864C919.446 620.416 919.593 599.577 916.364 579.912C913.282 559.953 911.375 557.017 895.084 546.744C886.426 541.314 881.583 539.7 877.327 540.874ZM893.03 555.256C899.047 559.953 904.917 573.601 906.385 586.809C907.706 598.696 907.706 601.632 906.238 619.389C905.064 632.891 904.624 634.358 898.166 645.072C893.323 653.437 890.535 656.665 888.04 656.959C886.132 657.253 883.931 656.665 883.344 655.491C880.262 650.795 883.637 551.587 886.866 551.587C887.453 551.587 890.241 553.202 893.03 555.256Z" fill="black"/>
<path d="M1171.59 541.607C1170.12 543.368 1167.48 598.696 1166.74 640.522L1166.45 659.747L1171.59 662.976C1178.63 667.379 1187.14 667.232 1210.48 662.242C1215.03 661.362 1214.73 656.078 1210.04 654.317C1207.69 653.437 1203.87 653.437 1200.06 654.171C1196.68 654.904 1190.66 655.785 1186.56 656.078L1179.22 656.519V600.164C1179.22 544.542 1179.22 543.809 1176.14 541.901C1173.64 540.14 1172.76 540.14 1171.59 541.607Z" fill="black"/>
<path d="M1329.35 541.02C1318.49 542.341 1317.32 543.662 1318.64 552.614C1319.22 556.43 1319.96 583.286 1320.25 612.198L1320.98 664.737L1324.21 665.911C1325.97 666.645 1328.62 666.645 1330.08 665.764C1332.28 664.737 1332.58 662.242 1332.58 648.447C1332.58 639.348 1333.17 632.157 1334.05 631.57C1335.66 630.542 1347.99 636.266 1350.48 639.201C1351.36 640.228 1352.39 645.952 1352.68 651.822C1353.71 669.58 1355.03 671.928 1362.66 668.993C1366.33 667.672 1366.33 667.379 1365.75 655.491C1365.31 648.74 1365.01 641.403 1365.01 639.201C1364.86 635.826 1363.25 634.065 1355.47 629.075C1349.46 625.259 1346.37 622.324 1346.81 621.15C1347.25 619.976 1348.13 619.095 1349.02 619.095C1349.75 619.095 1352.54 617.334 1355.33 615.28C1362.22 610.143 1364.57 600.897 1365.45 576.535C1366.19 553.641 1365.75 550.559 1361.49 545.129C1358.7 541.607 1357.09 541.167 1347.99 540.58C1342.41 540.286 1333.9 540.58 1329.35 541.02ZM1351.66 574.921C1351.66 599.723 1351.51 601.338 1348.28 606.034C1344.32 611.904 1338.45 615.573 1335.07 614.252C1332.87 613.372 1332.58 609.85 1332.58 581.965C1332.58 564.648 1333.02 550.119 1333.61 549.679C1334.05 549.092 1338.45 548.651 1343.14 548.651H1351.66V574.921Z" fill="black"/>
<path d="M1392.17 541.754C1389.53 543.662 1385.42 564.942 1382.33 591.945C1381.45 600.017 1379.84 611.611 1378.52 617.628C1375.29 634.211 1374.12 665.911 1376.76 667.672C1379.69 669.433 1379.99 669.433 1383.66 666.058C1386.59 663.27 1386.88 661.508 1386.88 648.3C1386.88 631.717 1386.88 631.717 1399.36 631.57H1406.55L1407.72 637.44C1408.31 640.669 1408.75 648.007 1408.75 653.584C1408.9 663.857 1410.37 667.525 1414.33 667.525C1415.36 667.525 1417.26 665.911 1418.58 663.857C1420.79 660.628 1420.79 658.72 1418.44 640.816C1415.06 612.638 1411.98 594.147 1408.02 575.949C1406.11 567.143 1404.5 557.897 1404.5 555.549C1404.5 551 1399.36 541.901 1396.13 540.727C1395.25 540.286 1393.49 540.874 1392.17 541.754ZM1401.56 599.283C1402.44 603.246 1403.47 610.143 1404.06 614.252L1404.79 622.031H1398.18C1394.52 622.031 1391.14 621.444 1390.7 620.71C1389.53 618.949 1393.93 589.01 1395.98 584.02C1397.6 580.205 1397.6 580.205 1398.77 586.075C1399.51 589.304 1400.83 595.174 1401.56 599.283Z" fill="black"/>
<path d="M1436.92 541.166C1434.57 542.634 1432.96 571.985 1432.52 623.791L1432.22 660.041L1437.07 663.123C1443.96 667.232 1453.06 667.085 1476.11 662.242C1480.65 661.362 1480.36 656.078 1475.66 654.317C1473.32 653.437 1469.5 653.437 1465.69 654.17C1462.31 654.904 1456.29 655.785 1452.18 656.078L1444.85 656.519L1443.96 647.713C1443.52 642.87 1443.82 622.764 1444.41 603.098C1446.17 554.815 1445.73 544.395 1441.91 541.9C1440.15 540.726 1438.09 540.432 1436.92 541.166Z" fill="black"/>
<path d="M706.948 544.396C701.812 548.358 697.115 557.457 697.115 563.621C697.115 566.263 698.876 573.454 701.078 579.764C704.453 589.597 706.508 592.826 715.167 601.925C727.788 614.986 729.549 617.775 731.016 625.406C731.603 628.781 732.924 634.799 733.658 638.761C736.446 651.089 732.484 657.252 722.064 657.252C714.873 657.252 713.259 655.051 713.259 646.099C713.259 639.935 712.672 637.88 710.177 636.119C704.16 631.863 702.545 634.505 703.426 647.273C704.306 660.628 707.242 665.324 715.607 666.938C722.358 668.259 734.979 665.177 740.702 660.775C746.573 656.225 747.894 650.355 745.692 637.293C742.904 621.884 733.511 604.42 722.945 595.614C717.221 590.771 707.095 569.491 709.003 566.116C709.737 564.648 710.324 562.154 710.324 560.392C710.324 558.778 711.938 555.696 713.846 553.788C716.781 550.853 718.395 550.266 722.358 551C724.999 551.587 728.815 553.495 730.87 555.403C734.098 558.631 734.685 560.539 735.272 572.573L736.006 586.075H740.409H744.812L745.252 571.986C745.692 555.549 744.371 552.908 731.75 545.717C722.504 540.287 713.112 539.846 706.948 544.396Z" fill="black"/>
<path d="M931.483 543.808C931.189 545.275 930.896 572.719 931.043 604.713C931.189 645.071 931.63 663.416 932.804 664.59C933.684 665.471 936.032 665.764 938.234 665.324L941.903 664.297L941.169 605.446C940.729 573.013 939.701 545.275 938.968 543.808C938.234 542.487 936.473 541.313 934.858 541.313C933.391 541.313 931.776 542.487 931.483 543.808Z" fill="black"/>
</svg>
