<svg width="1163" height="680" viewBox="0 0 1163 680" fill="none" xmlns="http://www.w3.org/2000/svg">
<path d="M554.132 0.698893C548.582 1.28311 540.987 2.45155 537.336 3.32788C533.684 4.20421 524.483 6.39503 516.888 8.29374C509.293 10.0464 500.384 12.6754 497.17 13.9899C493.957 15.4504 484.026 19.54 475.116 23.3374C456.275 31.2244 440.793 40.7179 420.784 56.6379C406.178 68.0302 398.291 75.1869 393.764 80.883C392.303 82.7817 390.55 83.8041 389.966 83.3659C388.214 82.3436 382.517 89.5002 382.517 92.7134C382.517 94.0279 379.304 98.4096 375.215 102.353C371.271 106.443 367.912 110.532 367.912 111.408C367.912 112.431 367.036 113.307 365.867 113.307C363.53 113.307 359.003 119.88 350.531 135.508C335.488 163.404 325.556 193.783 320.444 227.376C316.501 254.104 317.815 304.639 322.927 317.784C323.803 319.829 326.578 328.592 329.207 337.501C342.79 383.07 363.822 418.416 396.977 451.862C411.436 466.614 429.693 481.365 433.052 481.365C434.221 481.365 435.097 481.95 435.097 482.68C435.097 483.41 438.748 486.185 443.13 488.814C447.512 491.589 450.871 494.51 450.433 495.533C450.141 496.555 453.792 499.184 459.342 501.959C472.633 508.239 477.453 509.408 480.082 507.217C481.835 505.903 482.419 505.903 482.857 507.217C483.295 508.239 485.194 509.116 487.239 509.116C489.283 509.116 493.373 510.43 496.294 511.891C501.552 514.666 512.652 518.317 516.888 518.755C518.056 518.755 519.955 519.048 520.977 519.194C522 519.194 522.438 520.07 521.854 520.946C521.123 522.115 522 522.407 524.629 521.969C526.82 521.53 528.718 521.969 529.156 522.845C529.595 523.867 530.325 523.721 531.347 522.261C532.662 520.508 531.932 519.778 528.134 518.901C513.675 515.104 506.664 513.059 500.092 510.576C496.148 509.116 490.89 507.509 488.553 506.925C486.216 506.487 482.565 504.734 480.666 503.128C478.621 501.667 476.139 500.353 474.97 500.353C467.375 500.353 425.457 473.332 411.582 459.603C409.538 457.558 405.302 453.469 402.089 450.694C396.539 445.582 383.54 430.976 379.596 425.134C378.574 423.528 380.619 425.426 384.124 429.516C427.064 478.444 479.79 508.239 541.717 518.755C593.567 527.519 652.135 518.609 696.535 494.948C719.758 482.534 730.712 475.377 728.375 473.917C726.477 472.602 726.915 472.456 732.319 472.018C733.925 472.018 735.094 470.995 734.802 469.973C734.656 469.097 735.094 468.367 735.824 468.513C737.577 469.097 753.497 455.368 753.497 453.323C753.497 451.862 746.632 456.39 740.936 461.648C738.891 463.547 735.824 465.299 734.071 465.884C731.589 466.468 732.173 465.738 735.97 462.816C738.745 460.626 747.655 452.3 755.541 444.267C763.428 436.088 770.585 429.662 771.315 429.954C772.046 430.1 772.338 429.662 771.9 428.932C771.461 428.201 773.506 424.404 776.573 420.461C782.123 413.45 785.921 407.754 783.146 410.529C782.416 411.259 779.202 415.203 775.989 419.292C765.035 433.313 744.295 452.447 725.016 466.176C718.59 470.703 712.893 475.231 712.309 476.107C711.725 476.984 711.141 477.13 711.141 476.546C711.141 475.815 707.197 477.422 702.378 480.051C697.704 482.68 693.322 484.579 692.884 483.994C692.446 483.556 692.738 480.343 693.614 476.838C694.345 473.332 695.367 468.513 695.805 466.322C696.243 464.131 697.12 462.524 697.85 462.962C700.625 464.715 704.568 429.808 704.422 403.956C704.422 384.093 699.164 323.48 696.389 309.751C692.592 291.494 681.346 263.598 677.84 263.744C677.256 263.89 675.357 265.058 673.459 266.665L670.099 269.44L674.481 278.203C686.604 302.156 690.255 328.592 686.604 365.252C685.727 373.285 684.705 389.059 684.267 400.305C683.536 421.337 683.244 425.28 680.615 452.885C679.739 461.648 679.009 470.119 679.009 471.58C679.009 474.063 675.503 471.58 647.169 450.256C641.619 446.166 631.979 436.38 619.272 422.213C600.139 400.889 584.949 376.06 577.647 354.006C565.962 318.952 572.827 281.708 595.465 257.609C601.746 250.891 601.746 250.745 599.409 247.093C597.948 245.049 596.05 243.296 595.027 243.296C591.814 243.296 578.377 261.115 572.389 273.237C564.064 290.034 561.581 300.988 561.581 319.975C561.581 350.646 572.973 379.711 598.971 414.472C608.756 427.471 642.641 462.086 655.64 472.456C664.987 479.905 663.381 479.613 641.327 470.411C625.407 463.693 604.083 451.862 588.455 440.908C544.492 410.383 517.034 370.072 507.102 321.873C503.597 304.931 503.597 267.395 507.248 251.037L509.731 238.914L505.203 232.196C495.856 218.759 490.16 204.153 489.43 191.885C488.845 181.807 489.137 179.616 492.643 172.605C496.878 163.988 505.934 156.101 515.865 152.596C519.517 151.281 521.123 149.967 520.685 148.36C517.326 137.406 517.91 137.406 526.966 148.652C531.932 154.787 539.818 162.674 544.492 166.179L552.963 172.459L553.548 186.335C554.132 196.851 554.862 201.524 557.199 205.322C563.041 215.546 575.894 218.029 595.027 212.771L605.251 209.849L608.756 213.063C616.205 220.073 620.879 228.837 623.07 240.375L625.407 252.059L631.395 246.655C643.663 235.555 649.068 228.691 655.348 216.276C671.56 183.998 670.976 153.764 653.595 117.251C646.877 103.522 633.878 82.0514 632.709 83.0738C632.417 83.512 634.608 87.8936 637.675 93.0056C653.595 120.318 662.066 153.326 658.561 174.942C656.516 187.649 653.741 195.974 647.461 207.074C638.405 222.994 634.9 226.062 632.855 219.635C628.474 205.468 598.971 174.65 573.849 157.854C559.39 148.214 546.391 134.485 541.133 123.093C539.818 120.172 538.066 117.981 537.336 118.419C535.583 119.588 530.471 110.532 529.303 104.106C527.988 97.3872 525.651 95.4885 525.505 101.185C525.505 105.128 525.359 105.128 524.191 101.915C522.146 96.949 521.562 97.9714 522.73 105.128C523.898 113.161 532.37 130.98 539.234 139.889C542.155 143.833 544.054 146.9 543.47 146.9C540.403 146.9 521.269 117.251 520.831 111.847C520.685 110.24 520.101 108.926 519.371 108.926C518.641 108.926 518.348 110.97 518.641 113.307C519.663 120.026 517.472 116.666 513.967 106.004C512.214 100.746 510.169 95.4885 509.293 94.3201C506.81 90.3766 509.585 104.69 513.821 117.251C516.012 123.969 517.618 129.373 517.326 129.373C517.18 129.373 514.989 125.576 512.652 120.902C510.169 116.374 508.271 113.599 508.125 114.914C508.125 116.228 510.315 121.632 512.944 126.89L517.764 136.384L512.506 137.99C504.473 140.327 490.452 150.113 484.902 157.124C469.858 176.111 470.588 202.109 487.093 231.173C492.789 241.105 493.373 242.858 492.059 246.801C486.362 264.766 484.026 305.077 487.677 326.839C489.43 337.501 496.586 361.454 499.507 366.566C500.53 368.465 500.53 368.903 499.507 368.173C498.631 367.735 497.901 367.881 497.901 368.611C497.901 369.487 498.923 370.364 500.092 370.948C501.26 371.386 502.282 372.993 502.282 374.599C502.282 376.206 502.867 377.813 503.597 378.397C504.473 378.835 507.979 385.261 511.63 392.71C518.494 406.585 527.404 419.292 529.156 417.393C529.741 416.955 529.741 417.539 529.303 418.854C526.674 425.718 583.781 469.681 595.173 469.681C596.196 469.681 600.285 471.434 604.083 473.478C609.925 476.546 611.239 476.838 611.531 474.939C611.97 473.04 614.16 473.771 623.216 478.298C629.35 481.365 641.619 486.623 650.382 490.129C668.201 497.139 668.201 497.285 650.966 502.835C645.416 504.442 642.787 506.049 643.225 507.217C643.517 508.239 642.933 509.116 641.911 509.116C640.742 509.116 639.574 508.239 639.136 507.217C638.698 505.903 636.945 506.049 631.833 507.947C628.036 509.262 624.968 509.846 624.968 509.116C624.968 508.532 623.654 508.239 622.047 508.678C618.104 509.7 618.396 512.037 622.486 512.183C624.238 512.329 620.441 513.205 614.014 514.374C600.723 516.711 575.31 517.295 571.366 515.25C569.906 514.52 565.816 513.79 562.165 513.644C558.513 513.351 554.57 512.767 553.402 512.037C552.233 511.453 547.998 510.43 544.054 509.846C516.012 505.903 476.139 490.129 451.893 473.624C447.074 470.411 440.501 465.884 437.288 463.693C427.356 456.974 398.876 428.932 389.82 417.101C377.844 401.473 367.182 382.486 358.418 361.6C356.227 356.342 353.745 351.231 352.722 350.062C351.846 348.894 350.385 344.95 349.509 341.299C348.487 337.647 346.15 328.3 344.105 320.705C338.555 299.819 337.971 294.853 338.117 261.553C338.117 227.522 339.723 215.838 347.61 192.323C350.97 182.099 351.7 178.302 350.385 176.987C349.217 175.819 348.194 176.111 346.442 178.302C344.251 181.077 344.251 181.077 345.273 177.571C348.633 165.449 368.496 126.598 372.586 124.115C373.608 123.531 373.024 125.284 371.271 128.059C364.114 140.181 359.003 149.821 359.879 149.821C361.778 149.821 364.845 145.731 367.182 140.181C368.35 137.114 370.249 133.755 371.271 133.025C372.294 132.148 376.237 126.744 380.327 120.756C389.528 107.027 394.494 101.185 410.998 84.8265C449.995 46.268 498.339 23.0453 555.738 15.4504C571.22 13.4057 619.126 13.9899 622.193 16.3268C623.362 17.2031 626.575 17.9334 629.35 18.2255C634.17 18.3715 641.765 20.5624 663.527 27.2809C673.459 30.4941 677.11 30.7862 677.84 28.4493C678.132 27.4269 680.907 28.0111 685.289 30.202C689.671 32.3928 691.569 33.9994 690.401 34.5836C689.379 35.3139 688.94 36.0442 689.233 36.3363C691.569 38.0889 706.175 46.5601 708.95 47.5825C712.747 49.043 732.027 61.4577 734.802 64.0867C735.824 65.2551 742.689 71.0973 749.991 77.0856C775.259 98.1175 799.942 133.171 813.379 167.347C816.738 175.819 820.974 185.896 822.873 189.986C826.524 197.581 830.176 211.456 831.636 223.14C832.074 226.938 833.535 231.173 834.849 232.488C836.31 233.948 837.332 237.746 837.478 243.004C838.062 255.126 839.669 262.283 842.006 262.283C844.635 262.283 846.972 253.228 846.972 243.296C846.972 238.914 845.365 227.376 843.32 217.882C840.984 206.49 840.253 200.064 841.13 199.48C844.635 197.289 826.378 152.742 813.525 131.856C810.312 126.452 807.537 121.486 807.537 120.756C807.537 120.026 803.447 113.891 798.628 107.173C789.718 95.1964 753.643 57.8063 750.868 57.8063C749.991 57.8063 745.464 54.0089 740.498 49.3352C727.645 37.0666 693.76 19.8321 664.695 10.7767C640.304 3.32788 622.339 0.552838 592.836 0.114673C577.209 -0.177436 559.828 0.114673 554.132 0.698893ZM545.807 136.092C545.222 136.53 544.054 135.361 543.178 133.463C541.425 130.25 541.425 130.25 544.054 132.586C545.515 134.047 546.245 135.508 545.807 136.092ZM550.48 152.742C550.48 153.472 550.188 154.203 549.896 154.203C549.458 154.203 548.728 153.472 548.29 152.742C547.851 151.866 548.144 151.281 548.874 151.281C549.75 151.281 550.48 151.866 550.48 152.742ZM563.041 178.448C568.445 180.785 594.589 199.333 596.342 202.109C597.656 204.153 578.961 207.22 571.951 206.052C564.94 204.738 556.907 197.873 555.592 192.031C554.716 188.233 555.884 176.111 557.053 176.111C557.199 176.111 559.974 177.133 563.041 178.448ZM340.6 195.098C340.161 196.851 339.431 197.873 338.993 197.435C338.263 196.558 339.723 192.177 340.746 192.177C341.038 192.177 341.038 193.491 340.6 195.098ZM335.342 216.568C334.903 218.029 334.611 217.152 334.611 214.815C334.611 212.332 334.903 211.31 335.342 212.186C335.634 213.209 335.634 215.253 335.342 216.568ZM332.859 239.06C330.23 266.519 331.982 288.135 338.847 317.054C340.308 323.626 341.622 330.053 341.622 331.367C341.622 332.828 342.498 335.457 343.667 337.209C345.712 340.276 351.992 363.353 351.116 364.229C350.677 364.668 347.318 356.342 340.454 337.501C336.948 327.57 336.072 323.772 333.005 305.369C331.252 294.999 329.646 271.923 329.792 261.553C330.084 247.093 332.713 219.343 333.735 220.365C334.173 220.804 333.735 229.129 332.859 239.06ZM364.845 402.788C367.474 406.877 368.642 409.652 367.62 408.63C365.575 407.023 358.564 395.193 359.587 395.193C359.879 395.193 362.362 398.552 364.845 402.788ZM375.945 418.562C377.405 420.168 378.282 421.483 377.844 421.483C377.405 421.483 375.945 420.168 374.484 418.562C373.024 416.955 372.147 415.641 372.586 415.641C373.024 415.641 374.484 416.955 375.945 418.562ZM389.82 424.696C392.011 427.763 392.303 428.786 390.696 427.471C388.36 425.572 384.708 420.022 385.877 420.022C386.169 420.022 387.921 422.213 389.82 424.696ZM408.807 445.144C408.807 446.896 407.931 446.458 405.01 443.245C402.235 440.032 402.235 440.032 405.594 442.077C407.347 443.245 408.807 444.56 408.807 445.144ZM469.42 503.274C469.858 504.15 469.274 504.296 468.106 503.858C465.477 502.835 465.038 501.813 467.083 501.813C467.959 501.813 468.982 502.397 469.42 503.274ZM478.768 504.588C480.228 505.61 479.79 505.903 477.015 505.757C474.97 505.61 473.656 505.026 474.094 504.296C474.97 502.982 476.285 502.982 478.768 504.588ZM632.709 511.599C631.687 511.891 629.934 511.891 629.058 511.599C628.036 511.161 628.766 510.868 630.811 510.868C632.855 510.868 633.586 511.161 632.709 511.599ZM555.592 514.958L558.513 516.272L555.592 516.126C553.986 516.126 551.065 515.542 549.02 514.958L545.369 513.79H549.02C551.065 513.79 553.986 514.228 555.592 514.958Z" fill="black"/>
<path d="M579.692 79.2762C568.738 81.1749 535.875 94.7581 537.774 96.8028C538.212 97.0949 543.616 96.2186 549.897 94.9041C567.861 91.2527 583.489 93.8817 601.016 103.667C604.667 105.712 608.319 107.027 609.195 106.588C609.925 106.15 611.386 106.442 612.408 107.319C614.015 108.633 614.599 108.195 615.329 105.128C616.059 102.353 615.621 100.746 613.723 99.4318C612.262 98.2634 609.779 96.3647 608.172 95.0502C605.544 93.0054 605.69 93.0054 610.948 95.0502C614.891 96.5107 617.082 96.8028 617.666 95.7804C618.25 94.9041 619.711 94.612 621.025 95.1962C624.677 96.5107 624.092 94.3199 619.565 89.5001L615.475 85.2645L619.127 86.1408C622.632 87.1632 622.632 87.1632 619.857 84.8263C613.284 79.5683 594.005 76.9394 579.692 79.2762Z" fill="black"/>
<path d="M353.891 160.775C352.576 162.674 351.846 165.449 352.43 166.617C352.868 167.786 352.576 168.808 351.7 168.808C350.824 168.808 350.678 169.392 351.116 170.269C352.576 172.605 354.475 171.875 354.037 169.1C353.599 166.471 355.789 161.359 358.126 159.899C358.857 159.314 358.857 158.584 357.98 158C357.104 157.416 355.205 158.73 353.891 160.775Z" fill="black"/>
<path d="M823.311 281.563C823.019 298.943 822.727 301.572 820.098 314.863C818.929 320.851 817.907 327.716 817.907 330.199V334.58L819.368 330.929C822.289 323.626 826.524 302.594 827.693 290.326C829.007 274.406 828.423 268.125 825.648 268.125C824.041 268.125 823.603 271.047 823.311 281.563Z" fill="black"/>
<path d="M843.467 285.214C843.175 286.674 842.298 292.37 841.714 298.067C839.961 316.616 832.805 344.22 825.064 363.061C805.054 411.551 769.125 454.93 726.185 482.388C710.557 492.466 681.638 506.633 669.223 510.43C634.462 520.946 632.271 521.238 592.837 524.306C582.905 525.036 546.829 522.115 537.774 519.924C534.707 519.048 534.561 519.34 535.583 522.407C537.19 526.789 547.268 529.125 570.928 530.44C607.734 532.631 654.91 523.137 691.278 506.487C705.591 500.06 710.849 496.993 732.319 483.118C777.596 453.761 817.031 406.147 834.557 359.41C838.501 349.186 839.523 342.905 836.602 346.995C835.434 348.748 835.288 348.602 835.872 346.265C843.759 317.784 849.163 282.731 845.804 282.731C844.927 282.731 843.905 283.899 843.467 285.214ZM550.919 524.744C549.897 525.036 548.144 525.036 547.268 524.744C546.245 524.306 546.975 524.013 549.02 524.013C551.065 524.013 551.795 524.306 550.919 524.744Z" fill="black"/>
<path d="M825.794 346.849C822.143 356.05 819.368 361.454 818.345 361.016C816.301 360.286 812.649 368.027 814.11 370.218C814.548 371.094 814.256 371.824 813.38 371.824C812.357 371.824 811.919 372.701 812.357 373.869C813.233 376.06 810.166 379.565 808.56 378.397C807.976 377.959 807.829 378.105 808.268 378.543C808.56 379.127 807.976 380.441 806.807 381.61C803.886 384.531 803.886 387.306 806.807 384.969C808.706 383.363 808.852 383.509 808.122 385.553C807.683 386.868 806.077 387.89 804.616 387.89C803.156 387.89 801.257 389.789 800.235 392.272C799.212 394.609 797.606 397.384 796.437 398.26C795.269 399.136 794.392 400.597 794.392 401.473C794.392 402.35 796.437 401.181 798.92 398.698L803.594 394.463L800.089 399.721C797.898 403.226 795.999 404.833 794.538 404.248C793.078 403.664 792.64 404.102 793.37 405.855C793.808 407.17 793.808 408.192 793.224 408.192C790.303 407.754 788.842 408.63 787.382 411.843C786.067 414.91 786.213 415.203 788.696 414.618C790.157 414.18 791.471 413.158 791.471 412.427C791.471 411.697 793.37 409.506 795.707 407.462C804.032 400.451 822.873 365.69 829.446 345.242C834.411 329.468 832.075 330.637 825.794 346.849Z" fill="black"/>
<path d="M781.247 420.753C780.517 422.797 778.911 424.404 777.596 424.404C776.428 424.404 775.113 426.011 774.529 427.909C774.091 429.808 771.754 432.729 769.417 434.628C766.934 436.38 765.327 438.717 765.766 439.74C766.058 440.762 765.62 442.077 764.451 442.515C763.137 442.953 762.698 442.515 763.283 441.054C764.743 437.257 761.53 439.156 758.463 443.975C753.643 451.424 756.418 453.031 762.698 446.604C765.62 443.683 768.102 440.47 768.249 439.74C768.249 438.863 768.979 438.425 769.709 438.571C771.316 439.009 785.629 421.337 785.629 419C785.629 415.787 782.708 416.955 781.247 420.753Z" fill="black"/>
<path d="M487.677 511.161C487.677 511.453 488.7 512.183 490.014 512.621C491.183 513.059 491.767 512.913 491.329 512.037C490.452 510.576 487.677 509.992 487.677 511.161Z" fill="black"/>
<path d="M586.994 513.497C585.388 514.52 586.848 514.958 592.106 514.958C597.364 514.958 598.825 514.52 597.218 513.497C596.05 512.767 593.713 512.037 592.106 512.037C590.499 512.037 588.163 512.767 586.994 513.497Z" fill="black"/>
<path d="M0 589.446C0 596.603 0.438165 598.063 1.31449 595.58C2.62899 592.513 3.50532 592.367 16.2121 592.367H29.7952L29.357 621.14C29.0649 644.509 28.4807 650.059 26.728 651.373C25.1214 652.688 26.728 652.98 33.5926 653.126C41.0414 653.272 42.2099 652.98 40.1651 651.519C38.1203 649.913 37.8282 645.969 37.8282 620.994V592.367H50.9731C63.3878 592.367 64.2641 592.513 65.5786 595.58C66.455 598.063 66.8931 596.603 66.8931 589.446C66.8931 582.289 66.601 580.537 65.4326 582.435C64.1181 584.772 61.0509 585.064 33.4466 585.064C5.84219 585.064 2.77504 584.772 1.46055 582.435C0.29211 580.537 0 582.289 0 589.446Z" fill="black"/>
<path d="M311.097 585.356C308.176 592.951 284.223 644.509 282.324 647.576C281.01 649.621 279.111 650.643 277.942 650.205C276.774 649.767 275.898 649.913 275.898 650.497C275.898 651.519 288.751 658.092 290.941 658.092C291.526 658.092 291.233 656.777 290.211 655.317C288.897 653.126 288.897 651.665 290.211 648.744L291.964 644.947H313.142H334.32L336.072 648.744C337.387 651.665 337.387 653.126 336.072 655.317C333.297 659.552 333.735 659.552 342.207 655.463C349.509 651.958 349.948 651.519 347.172 650.205C344.543 648.744 330.522 620.702 316.793 589.008C315.186 585.21 313.434 582.143 312.996 582.143C312.704 582.143 311.827 583.604 311.097 585.356ZM321.759 616.466C326.287 626.398 329.938 635.307 329.938 636.184C329.938 637.06 323.804 637.644 313.142 637.644C303.94 637.644 296.345 637.06 296.345 636.33C296.345 635.745 299.413 628.297 303.064 619.971C306.715 611.646 310.367 603.321 311.097 601.423C311.681 599.67 312.557 598.209 312.996 598.209C313.288 598.209 317.231 606.388 321.759 616.466Z" fill="black"/>
<path d="M542.886 589.446C533.392 610.77 516.158 647.284 514.989 649.037C514.113 650.059 512.653 650.643 511.484 650.205C510.462 649.767 509.585 649.913 509.585 650.643C509.585 652.25 524.045 658.822 525.213 657.654C525.651 657.07 525.359 656.631 524.483 656.631C522.292 656.631 522.146 651.519 524.191 647.722C525.651 645.239 527.55 644.947 546.683 644.947H567.715L569.468 649.329C570.928 652.834 570.928 654.148 569.468 655.901C566.985 658.822 568.738 658.676 577.063 654.879C583.635 651.958 583.781 651.666 580.714 650.205C578.523 649.037 573.411 639.689 564.064 619.387C556.615 603.321 549.604 588.132 548.582 585.795L546.391 581.413L542.886 589.446ZM555.447 617.051C559.974 627.128 563.626 635.746 563.626 636.476C563.626 637.06 555.739 637.644 546.099 637.644H528.719L531.348 631.364C532.808 628.005 535.437 621.87 537.336 617.927C539.235 613.837 541.864 607.703 543.47 604.198C544.931 600.692 546.391 598.063 546.829 598.355C547.122 598.648 551.065 607.119 555.447 617.051Z" fill="black"/>
<path d="M1112.94 605.95C1093.22 649.037 1092.2 650.789 1088.84 650.935C1086.94 650.935 1088.69 652.25 1093.66 654.587C1102.86 658.676 1103.59 658.822 1101.11 655.901C1099.65 654.148 1099.65 652.834 1101.11 649.329L1102.86 644.947H1124.62H1146.38L1147.26 648.598C1147.7 650.643 1147.85 653.71 1147.41 655.317C1146.97 656.923 1147.12 658.092 1147.7 657.8C1148.14 657.508 1151.79 656.047 1155.59 654.441C1163.04 651.227 1164.2 649.767 1159.24 649.913C1156.46 650.059 1153.98 645.677 1140.54 616.904C1132.07 598.648 1124.91 583.458 1124.48 583.02C1124.04 582.728 1118.78 592.951 1112.94 605.95ZM1133.82 618.657L1141.86 636.914L1124.91 637.352C1115.71 637.498 1107.83 637.498 1107.39 637.206C1107.1 636.768 1110.6 627.859 1115.13 617.343C1119.8 606.827 1124.04 598.648 1124.62 599.232C1125.21 599.962 1129.3 608.579 1133.82 618.657Z" fill="black"/>
<path d="M117.574 585.795C101.07 591.637 91.2841 611.939 96.396 629.903C100.486 644.509 118.742 656.631 133.64 654.587C145.616 652.98 157.009 644.655 162.559 633.701C166.356 625.96 165.772 610.332 161.098 602.153C152.481 586.525 134.37 579.807 117.574 585.795ZM126.921 603.321V615.736H114.507H102.092L102.968 611.647C105.305 602.153 116.552 591.929 125.899 591.053C126.483 590.907 126.921 596.457 126.921 603.321ZM145.616 595.581C150.436 598.502 157.593 609.018 157.593 613.253C157.593 615.298 155.84 615.736 145.909 615.736H134.224V603.175C134.224 590.907 134.224 590.761 137.583 591.637C139.336 592.221 142.987 593.974 145.616 595.581ZM126.921 635.015V646.7L122.248 645.823C113.63 644.071 106.036 636.476 102.968 626.398C101.946 623.331 102.384 623.185 113.338 622.747C119.619 622.455 125.169 622.455 125.899 622.747C126.483 623.039 126.921 628.443 126.921 635.015ZM157.593 624.207C157.593 632.971 144.156 646.408 135.539 646.408C134.808 646.408 134.224 641.004 134.224 634.285V622.309H145.909C154.38 622.309 157.593 622.747 157.593 624.207Z" fill="black"/>
<path d="M223.318 584.918C212.218 588.424 204.769 595.288 199.803 606.242C192.062 623.331 202.286 645.093 221.566 652.25C230.621 655.609 236.463 655.463 246.687 651.373C252.091 649.182 252.529 648.598 252.529 643.34C252.529 640.273 251.945 637.644 251.069 637.644C250.338 637.644 249.608 638.374 249.608 639.105C249.608 642.172 240.114 646.407 233.104 646.407C224.048 646.407 217.768 643.632 212.072 637.206C194.691 617.489 211.488 587.693 237.778 591.637C242.305 592.367 245.519 593.974 248.44 597.041L252.529 601.423V595.434C252.529 589.738 252.091 589.154 247.125 586.963C240.699 584.188 228.576 583.166 223.318 584.918Z" fill="black"/>
<path d="M685.727 585.649C671.706 590.907 662.651 603.759 662.651 618.657C662.651 643.632 686.896 660.721 710.118 651.811C716.983 649.036 716.983 649.036 716.837 642.318C716.837 636.33 716.545 635.891 715.23 638.667C711.725 645.969 694.783 648.89 684.851 643.778C682.076 642.464 677.694 638.52 675.065 635.015C670.83 629.465 670.245 627.566 670.245 619.533C670.245 603.905 679.593 593.39 695.221 591.345C702.378 590.322 713.624 594.412 714.792 598.355C716.253 603.029 718.005 601.423 717.713 595.58C717.421 591.199 716.399 589.592 712.747 587.547C706.613 583.896 693.03 583.02 685.727 585.649Z" fill="black"/>
<path d="M771.754 585.357C754.519 591.345 743.857 612.669 749.554 629.465C753.059 639.689 759.047 646.408 768.833 651.081C778.911 655.755 785.045 656.193 795.123 652.688C815.716 645.823 825.064 620.41 814.11 601.861C805.2 586.671 787.674 579.807 771.754 585.357ZM779.787 603.321V615.736H768.103C756.856 615.736 756.418 615.59 756.418 612.377C756.418 607.411 764.159 597.333 770.585 593.974C779.495 589.3 779.787 589.446 779.787 603.321ZM795.853 593.828C802.571 597.187 808.56 604.636 809.874 611.062L810.897 615.736H798.92H787.09V603.321C787.09 595.727 787.674 590.907 788.55 590.907C789.427 590.907 792.64 592.221 795.853 593.828ZM779.787 634.723C779.787 648.014 779.203 648.452 769.563 643.486C763.137 640.273 758.317 633.993 757.002 627.566L756.126 623.039H767.956H779.787V634.723ZM810.458 625.522C810.458 630.488 803.74 639.835 798.044 643.048C787.966 648.744 787.09 648.16 787.09 634.723V623.039H798.774C808.998 623.039 810.458 623.331 810.458 625.522Z" fill="black"/>
<path d="M431.446 586.963C434.221 589.008 434.367 591.199 434.805 618.365C435.243 645.969 435.097 647.722 432.322 650.351C429.547 652.98 429.839 652.98 445.759 652.542C469.128 651.957 477.891 647.868 485.194 633.993C490.16 624.791 489.576 610.77 483.88 601.715C481.251 597.333 476.869 592.951 472.487 590.176C465.623 585.941 464.454 585.795 446.928 585.356C430.424 584.918 428.817 585.064 431.446 586.963ZM466.791 594.704C477.161 599.67 483.88 614.86 480.52 625.96C476.723 638.666 465.477 646.261 450.871 646.407H442.4V619.387V592.367H452.04C457.882 592.367 463.578 593.243 466.791 594.704Z" fill="black"/>
<path d="M852.522 586.525C855.736 587.839 855.736 588.131 855.736 618.365C855.736 647.722 855.59 649.036 852.668 650.935C850.039 652.834 850.624 652.98 859.533 653.126C868.588 653.126 869.173 652.98 866.252 651.081C863.33 649.182 863.038 647.722 863.038 636.037C863.038 623.623 863.184 623.039 866.252 623.039C868.442 623.039 874.431 628.004 884.508 637.936C897.945 651.373 899.99 652.834 904.956 652.98L910.506 653.126L895.17 638.082L879.835 623.039L883.486 619.971C895.901 609.455 895.024 593.828 881.441 587.401C877.936 585.795 872.532 585.064 862.746 585.21C853.107 585.21 850.185 585.649 852.522 586.525ZM881.879 596.164C885.969 601.422 885.823 607.703 881.295 612.084C878.52 615.006 876.329 615.736 870.341 615.736H863.038V604.051V592.367H870.925C877.79 592.367 879.25 592.951 881.879 596.164Z" fill="black"/>
<path d="M933.582 586.671C935.773 587.985 936.065 590.468 936.065 605.22C936.065 624.645 937.234 629.903 943.222 639.397C946.581 644.655 949.649 647.138 957.097 650.789C965.422 654.878 967.759 655.463 974.04 654.732C987.477 653.126 998.285 645.531 1003.98 633.847C1006.17 629.319 1006.9 623.915 1007.34 608.433C1007.78 592.513 1008.36 588.424 1010.26 586.817C1012.16 585.356 1010.99 585.064 1003.1 585.21C995.802 585.21 994.487 585.502 997.116 586.671C1000.62 587.985 1000.62 588.131 1000.04 607.411C999.599 625.375 999.307 627.128 995.51 633.701C989.814 643.34 982.511 646.845 969.804 646.115C958.558 645.531 953.008 642.172 947.604 632.824C944.537 627.42 944.098 624.499 943.66 607.411C943.076 588.131 943.076 587.985 946.581 586.671C949.21 585.502 947.896 585.21 940.447 585.21C933.29 585.21 931.538 585.502 933.582 586.671Z" fill="black"/>
<path d="M1044.58 586.671C1046.92 587.986 1047.07 591.929 1047.07 633.993C1047.07 659.26 1047.51 680 1048.24 680C1048.82 680 1050.43 677.955 1051.89 675.472C1054.08 671.529 1054.37 666.417 1054.37 630.341C1054.37 589.884 1054.37 589.592 1057.58 587.401C1060.65 585.211 1060.36 585.064 1051.45 585.064C1044.29 585.211 1042.54 585.503 1044.58 586.671Z" fill="black"/>
</svg>
