<svg width="2058" height="680" viewBox="0 0 2058 680" fill="none" xmlns="http://www.w3.org/2000/svg">
<path d="M1356.61 393.382C1355.25 399.315 1354.14 404.878 1352.72 410.362C1351.46 415.257 1348.36 418.086 1343.01 418.051C1334.64 417.996 1326.27 418.121 1317.9 418.019C1311.85 417.946 1309.1 415.786 1307.69 409.765C1302.3 386.713 1297.04 363.63 1291.68 340.569C1283.77 306.464 1275.82 272.366 1267.8 238.285C1267.53 237.128 1266.34 236.188 1265.57 235.148C1265.1 236.39 1264.24 237.632 1264.23 238.876C1264.15 262.979 1264.17 287.083 1264.17 311.187C1264.17 342.823 1264.18 374.459 1264.17 406.096C1264.16 416.164 1262.25 418.047 1252.12 418.052C1240.4 418.059 1228.68 418.087 1216.97 418.04C1209.27 418.01 1206.9 415.789 1206.9 408.313C1206.87 312.4 1206.87 216.486 1206.9 120.573C1206.9 113.351 1209.3 110.892 1216.52 110.852C1234.76 110.753 1253.01 110.766 1271.25 110.843C1278.53 110.873 1280.89 112.802 1282.8 120.072C1290.43 149.088 1298.01 178.118 1305.61 207.143C1313.75 238.253 1321.9 269.363 1330.4 301.83C1333.06 291.943 1335.44 283.294 1337.7 274.615C1349.92 227.851 1362.11 181.08 1374.32 134.312C1375.66 129.156 1377.06 124.013 1378.39 118.855C1379.74 113.664 1382.97 110.848 1388.42 110.844C1407.34 110.83 1426.25 110.743 1445.17 110.878C1451.38 110.922 1453.82 113.612 1454.22 119.832C1454.3 121 1454.25 122.175 1454.25 123.347C1454.25 217.419 1454.25 311.491 1454.23 405.562C1454.23 407.559 1454.16 409.579 1453.85 411.547C1453.18 415.827 1450.46 417.971 1446.22 417.986C1432.16 418.037 1418.1 418.046 1404.04 417.965C1399.75 417.94 1397.22 415.551 1396.61 411.316C1396.35 409.507 1396.34 407.65 1396.34 405.815C1396.33 350.911 1396.33 296.008 1396.33 241.105C1396.33 239.152 1396.33 237.198 1396.33 235.244C1395.82 235.06 1395.32 234.876 1394.81 234.691C1394.01 235.959 1392.81 237.129 1392.48 238.507C1386.02 266.106 1379.65 293.727 1373.27 321.345C1367.75 345.223 1362.24 369.101 1356.61 393.382Z" fill="black"/>
<path d="M736.685 344.959C740.862 366.852 744.914 388.331 748.966 409.809C749.844 414.464 748.068 416.98 743.305 417.022C728.911 417.148 714.514 417.01 700.12 417.111C694.823 417.148 693.348 413.734 692.566 409.502C690.079 396.045 687.619 382.583 685.141 369.124C681.061 346.971 676.97 324.819 672.904 302.663C672.476 300.335 671.804 298.802 668.812 298.848C657.281 299.024 645.745 298.919 633.544 298.919C633.544 300.92 633.544 302.693 633.544 304.466C633.544 338.446 633.547 372.426 633.541 406.406C633.54 415.831 632.273 417.1 622.914 417.104C610.36 417.11 597.805 417.14 585.251 417.087C579.034 417.061 577.258 415.251 577.027 409.029C576.983 407.859 577.014 406.686 577.014 405.515C577.014 311.108 577.013 216.701 577.015 122.294C577.015 111.863 578.07 110.815 588.547 110.814C621.188 110.813 653.829 110.813 686.469 110.817C698.085 110.818 709.566 111.909 720.23 116.87C740.108 126.119 749.173 143.028 749.935 163.823C750.933 191.068 750.746 218.393 749.987 245.654C749.514 262.658 742.931 277.468 728.598 287.983C727.544 288.757 726.809 290.988 727.047 292.345C730.099 309.765 733.355 327.15 736.685 344.959ZM672.387 243.092C674.559 243.074 676.741 243.18 678.902 243.017C688.079 242.326 693.867 236.881 693.985 228.171C694.196 212.634 694.177 197.09 693.99 181.552C693.894 173.514 688.793 167.371 680.89 167.104C665.246 166.575 649.573 166.948 633.74 166.948C633.74 192.355 633.74 217.499 633.74 243.092C646.423 243.092 658.913 243.092 672.387 243.092Z" fill="black"/>
<path d="M998.405 178.47C1009.62 178.471 1020.33 178.413 1031.05 178.493C1037.82 178.544 1039.61 180.407 1039.63 187.247C1039.67 200.304 1039.66 213.361 1039.63 226.418C1039.62 234.097 1037.81 235.942 1030.22 235.947C1004.11 235.965 978.001 235.954 951.529 235.954C951.529 257.195 951.529 278.342 951.529 300.045C953.304 300.045 955.093 300.045 956.882 300.045C989.86 300.045 1022.84 300.04 1055.81 300.048C1064.06 300.05 1065.37 301.341 1065.39 309.626C1065.42 322.348 1065.43 335.071 1065.38 347.793C1065.36 355.55 1063.67 357.237 1055.91 357.24C1004.52 357.258 953.126 357.256 901.735 357.242C894.018 357.24 892.157 355.432 892.156 347.833C892.141 253.085 892.142 158.337 892.154 63.589C892.155 55.8662 893.891 54.1626 901.577 54.1617C952.969 54.1558 1004.36 54.1559 1055.75 54.1611C1063.89 54.1619 1065.37 55.6139 1065.39 63.7992C1065.42 76.5214 1065.43 89.244 1065.38 101.966C1065.35 110.087 1063.84 111.527 1055.67 111.528C1022.86 111.532 990.051 111.53 957.24 111.53C955.421 111.53 953.603 111.53 951.478 111.53C951.478 133.785 951.478 155.8 951.478 178.47C966.893 178.47 982.398 178.47 998.405 178.47Z" fill="black"/>
<path d="M1618.14 357.243C1612.78 357.242 1607.93 357.322 1603.08 357.222C1596.43 357.085 1594.65 354.768 1596.26 348.352C1601.05 329.277 1605.93 310.226 1610.69 291.146C1620.49 251.847 1630.27 212.542 1640.01 173.228C1649.23 136.02 1658.38 98.7949 1667.6 61.5877C1669.12 55.4358 1670.91 54.1728 1677.53 54.1675C1696.27 54.1524 1715.02 54.1508 1733.76 54.169C1740.43 54.1754 1742.05 55.6271 1743.68 62.2239C1754.25 104.764 1764.87 147.288 1775.45 189.826C1785.86 231.721 1796.24 273.627 1806.63 315.527C1809.24 326.041 1811.81 336.563 1814.48 347.06C1816.51 355.026 1814.96 357.2 1806.82 357.23C1794.44 357.275 1782.05 357.266 1769.67 357.234C1762.79 357.216 1761.48 356.182 1759.6 349.323C1755.13 332.942 1750.69 316.549 1746.18 299.939C1719.03 299.939 1691.96 299.939 1664.55 299.939C1660.88 313.839 1657.19 327.834 1653.5 341.828C1653.2 342.951 1652.77 344.045 1652.56 345.182C1650.08 358.447 1647.75 357.24 1636.72 357.243C1630.69 357.244 1624.67 357.243 1618.14 357.243ZM1723.71 210.167C1717.77 183.523 1711.84 156.88 1705.91 130.236C1705.56 130.317 1705.21 130.398 1704.86 130.48C1695.96 169.934 1687.07 209.389 1678.09 249.193C1696.52 249.193 1714.34 249.193 1732.65 249.193C1729.7 236.237 1726.83 223.607 1723.71 210.167Z" fill="black"/>
<path d="M273.358 54.1604C324.379 54.1604 374.919 54.1586 425.459 54.1621C434.14 54.1627 435.645 55.6635 435.653 64.3481C435.666 76.7321 435.673 89.1161 435.651 101.5C435.637 109.592 433.943 111.319 426.026 111.327C410.319 111.343 394.612 111.331 378.236 111.331C378.236 113.545 378.236 115.47 378.236 117.396C378.236 193.373 378.236 269.35 378.234 345.328C378.234 347.001 378.189 348.674 378.194 350.347C378.208 354.616 376.03 357.077 371.836 357.109C356.443 357.227 341.047 357.264 325.655 357.092C321.58 357.047 319.25 354.569 319.334 350.251C319.363 348.746 319.322 347.239 319.322 345.733C319.321 269.589 319.321 193.444 319.321 117.299C319.321 115.493 319.321 113.687 319.321 111.332C309.975 111.332 300.998 111.332 292.02 111.332C284.991 111.332 277.963 111.358 270.934 111.323C263.885 111.287 262.167 109.525 262.156 102.334C262.136 89.7829 262.148 77.2316 262.151 64.6803C262.153 55.2358 263.231 54.1817 273.358 54.1604Z" fill="black"/>
<path d="M1951.57 310.391C1961.89 296.963 1975.26 291.44 1991.43 294.656C2006.52 297.657 2016.46 307.062 2021.14 321.918C2027.61 342.427 2014.82 365.154 1993.59 370.668C1972.54 376.132 1950.28 362.801 1945.6 342.166C1943.01 330.759 1945.01 320.37 1951.57 310.391Z" fill="black"/>
<path d="M63.8799 357.955C53.8927 345.083 51.837 331.304 58.317 316.768C64.9453 301.9 77.1326 294.57 93.1207 293.739C113.807 292.664 131.956 309.95 132.958 331.281C133.94 352.168 117.282 370.614 96.6881 371.686C83.6236 372.366 72.8012 367.962 63.8799 357.955Z" fill="black"/>
<path d="M622.617 611.597C611.706 611.557 612.837 612.64 612.828 602.134C612.807 577.863 612.912 553.592 612.735 529.323C612.704 525.12 613.976 523.84 618.149 523.97C627.514 524.26 636.894 523.967 646.266 524.109C656.979 524.272 662.921 530.256 663.077 541.026C663.208 550.063 663.618 559.146 662.873 568.123C662.513 572.456 659.639 576.545 658.182 580.839C657.513 582.811 656.907 585.14 657.319 587.085C658.968 594.866 661.027 602.559 663.198 611.348C657.789 611.348 652.899 611.513 648.043 611.178C647.272 611.125 646.369 608.893 646.016 607.541C644.127 600.295 642.392 593.008 640.537 585.464C637.075 585.464 633.621 585.464 629.365 585.464C629.365 591.972 629.053 598.605 629.467 605.192C629.782 610.226 628.268 612.503 622.617 611.597ZM629.36 559.971C629.36 562.886 629.36 565.801 629.36 568.797C634.171 568.797 638.167 568.863 642.16 568.776C645.136 568.711 646.781 567.16 646.779 564.07C646.774 557.729 647.014 551.373 646.618 545.056C646.516 543.428 644.572 540.749 643.219 540.579C638.701 540.012 634.068 540.364 629.36 540.364C629.36 546.953 629.36 552.958 629.36 559.971Z" fill="black"/>
<path d="M1435.29 597.622C1435.29 573.069 1435.29 549.016 1435.29 524.071C1438.55 524.071 1441.48 524.068 1444.4 524.072C1452.59 524.081 1460.79 523.975 1468.98 524.134C1478.83 524.325 1485.04 530.15 1485.37 539.966C1485.69 549.653 1485.91 559.394 1485.21 569.041C1484.91 573.044 1482.03 576.832 1480.49 580.784C1479.86 582.41 1479.07 584.336 1479.39 585.909C1480.88 593.083 1482.68 600.192 1484.48 607.297C1485.22 610.208 1484.69 611.518 1481.28 611.661C1469.29 612.164 1469.3 612.275 1466.51 600.277C1465.8 597.196 1464.61 594.168 1464.34 591.054C1463.88 585.811 1461.11 584.383 1456.39 585.136C1454.94 585.366 1453.45 585.292 1451.49 585.378C1451.49 592.761 1451.33 599.918 1451.56 607.061C1451.68 610.606 1450.44 611.641 1446.96 611.666C1435.29 611.749 1435.29 611.872 1435.29 600.128C1435.29 599.459 1435.29 598.791 1435.29 597.622ZM1469.2 552.022C1469.16 549.522 1469.62 546.872 1468.92 544.573C1468.42 542.901 1466.51 540.664 1465 540.473C1460.65 539.921 1456.18 540.278 1451.79 540.278C1451.79 550.097 1451.79 559.331 1451.79 568.936C1454.92 568.936 1457.73 568.944 1460.54 568.935C1468.5 568.909 1469.18 568.243 1469.2 560.496C1469.21 557.994 1469.2 555.492 1469.2 552.022Z" fill="black"/>
<path d="M940.435 559.468C940.435 548.767 940.434 538.568 940.437 528.369C940.438 526.142 940.262 524.001 943.651 524.022C959.018 524.113 974.387 524.061 990.532 524.061C990.532 528.95 990.748 533.557 990.352 538.111C990.272 539.032 987.897 540.415 986.548 540.454C978.697 540.678 970.835 540.564 962.977 540.564C961.329 540.564 959.682 540.564 957.753 540.564C957.753 547.058 957.753 553.146 957.753 559.717C964.729 559.717 971.559 559.885 978.376 559.651C982.082 559.523 983.305 560.75 983.308 564.511C983.32 576.552 983.459 576.552 971.666 576.552C967.166 576.552 962.666 576.552 957.469 576.552C957.469 579.711 957.469 582.632 957.469 585.553C957.469 588.52 957.469 591.487 957.469 594.981C968.544 594.981 979.181 594.981 990.554 594.981C990.554 599.94 990.716 604.385 990.43 608.8C990.366 609.781 988.736 611.454 987.811 611.465C973.1 611.637 958.386 611.593 943.673 611.591C940.069 611.59 940.442 608.955 940.441 606.618C940.431 591.069 940.435 575.52 940.435 559.468Z" fill="black"/>
<path d="M496.803 524.059C500.015 523.744 501.708 524.317 501.466 527.74C501.186 531.711 501.401 535.716 501.401 540.372C490.262 540.372 479.5 540.372 468.529 540.372C468.529 547.024 468.529 553.011 468.529 559.717C475.116 559.717 481.747 559.943 488.353 559.636C492.608 559.438 494.271 560.565 494.176 565.166C493.941 576.547 494.158 576.551 482.84 576.551C478.174 576.551 473.509 576.551 468.575 576.551C468.575 582.66 468.575 588.442 468.575 594.917C479.268 594.917 490.041 594.917 500.628 594.917C501.025 596.035 501.305 596.483 501.329 596.944C502.093 611.6 502.09 611.6 487.437 611.6C477.069 611.6 466.696 611.442 456.333 611.679C452.287 611.771 451.182 610.292 451.201 606.43C451.328 580.676 451.362 554.921 451.174 529.167C451.142 524.8 452.717 523.909 456.703 523.976C469.912 524.195 483.126 524.059 496.803 524.059Z" fill="black"/>
<path d="M1280.01 604.142C1279.51 609.563 1277.54 612.692 1271.77 611.635C1270.31 611.368 1268.75 611.471 1267.26 611.619C1263.38 612.003 1262.32 610.775 1263.35 606.751C1270.29 579.453 1277.02 552.098 1283.98 524.084C1290.19 524.084 1296.51 523.908 1302.79 524.258C1303.84 524.316 1305.29 526.527 1305.66 527.972C1311.4 550.416 1317.01 572.895 1322.61 595.374C1323.89 600.49 1325.04 605.635 1326.44 611.556C1321.27 611.556 1316.96 611.743 1312.69 611.419C1311.68 611.342 1310.34 609.699 1309.95 608.513C1308.75 604.877 1307.64 601.159 1307.09 597.385C1306.63 594.261 1305.15 593.659 1302.38 593.757C1297.53 593.929 1292.65 594.098 1287.83 593.715C1283.69 593.387 1281.53 594.506 1281.42 598.923C1281.37 600.54 1280.57 602.138 1280.01 604.142ZM1301.83 577.356C1299.43 567.184 1297.03 557.012 1294.32 545.512C1291.5 557.697 1289.02 568.391 1286.29 580.193C1291.91 579.5 1296.91 578.884 1301.83 577.356Z" fill="black"/>
<path d="M1779.98 573.265C1783.15 585.911 1786.23 598.152 1789.58 611.501C1784.27 611.501 1779.69 611.681 1775.15 611.346C1774.26 611.281 1773.17 609.338 1772.76 608.071C1771.27 603.497 1771.41 596.923 1768.34 594.733C1764.97 592.33 1758.74 593.92 1753.76 593.814C1751.25 593.76 1748.75 593.804 1745.73 593.804C1744.47 598.613 1743.32 603.428 1741.91 608.166C1741.54 609.408 1740.42 611.307 1739.54 611.37C1734.99 611.695 1730.41 611.52 1725.23 611.52C1729.55 594.118 1733.6 577.823 1737.63 561.524C1740.31 550.682 1743.1 539.863 1745.57 528.973C1746.41 525.259 1747.96 523.621 1751.94 523.99C1755.93 524.357 1759.98 524.228 1763.98 524.019C1766.82 523.87 1768.21 524.884 1768.88 527.664C1772.48 542.746 1776.2 557.798 1779.98 573.265ZM1757.66 547.69C1757.56 547.554 1757.48 547.402 1757.36 547.289C1757.33 547.256 1757.11 547.318 1757.1 547.366C1754.53 557.958 1751.97 568.554 1749.37 579.304C1754.97 579.304 1759.89 579.304 1765.27 579.304C1762.75 568.749 1760.31 558.563 1757.66 547.69Z" fill="black"/>
<path d="M288.22 588.544C288.221 572.99 288.195 557.93 288.23 542.87C288.26 530.147 294.209 524.18 306.923 524.081C312.11 524.041 317.301 523.982 322.484 524.138C332.006 524.424 338.093 530.35 338.53 539.82C338.746 544.496 338.485 549.193 338.648 553.873C338.75 556.808 337.425 557.482 334.73 557.575C323.216 557.976 323.097 558.056 322.78 546.36C322.657 541.828 320.757 540.255 316.318 540.247C304.719 540.225 304.719 540.085 304.718 551.718C304.718 563.934 304.689 576.149 304.731 588.365C304.753 594.647 305.711 595.531 312.054 595.567C312.723 595.571 313.392 595.568 314.062 595.568C322.417 595.565 322.684 595.267 322.729 586.758C322.781 576.81 321.668 578.115 331.661 578.046C333.806 578.031 335.952 578.225 338.48 578.34C338.48 584.817 338.907 591.004 338.373 597.107C337.685 604.98 332.959 610.032 324.907 610.848C317.482 611.6 309.859 611.7 302.446 610.921C293.327 609.962 288.733 604.21 288.256 595.061C288.151 593.058 288.227 591.046 288.22 588.544Z" fill="black"/>
<path d="M792.959 539.803C796.038 553.534 798.956 566.873 801.874 580.212C802.167 580.278 802.46 580.343 802.753 580.409C803.727 576.342 804.758 572.288 805.665 568.206C808.666 554.708 811.519 541.176 814.742 527.731C815.094 526.262 817.37 524.428 818.934 524.237C822.977 523.742 827.122 524.071 831.953 524.071C829.844 532.95 827.979 540.851 826.091 548.746C821.56 567.692 816.953 586.621 812.529 605.592C811.515 609.941 809.709 611.936 804.759 611.726C791.954 611.182 794.448 613.257 791.523 601.317C785.659 577.38 780.008 553.39 774.284 529.419C773.942 527.991 773.721 526.533 773.256 524.117C778.348 524.117 782.956 523.9 787.515 524.277C788.584 524.366 790 526.324 790.368 527.666C791.422 531.514 792.021 535.487 792.959 539.803Z" fill="black"/>
<path d="M1108.15 578.479C1119.38 578.477 1119.46 578.474 1119.99 589.595C1120.16 593.117 1121.68 594.856 1125.16 594.946C1126.16 594.972 1127.17 594.977 1128.17 594.978C1135.68 594.988 1136.6 594.121 1136.6 586.723C1136.62 567.981 1136.61 549.239 1136.61 530.496C1136.61 528.534 1136.61 526.572 1136.61 524.338C1142.36 524.338 1147.48 524.338 1153.17 524.338C1153.32 526.029 1153.63 527.791 1153.63 529.554C1153.67 549.969 1153.68 570.385 1153.63 590.801C1153.62 593.467 1153.42 596.163 1152.98 598.791C1151.9 605.232 1147.67 610.085 1141.15 610.64C1133.05 611.33 1124.8 611.501 1116.72 610.757C1108.67 610.017 1104.33 604.773 1103.71 596.703C1103.34 591.876 1103.65 587 1103.4 582.158C1103.23 578.818 1104.9 578.119 1108.15 578.479Z" fill="black"/>
<path d="M1598.09 552.394C1598.09 547.211 1598.2 542.526 1598.05 537.849C1597.97 535.041 1599.01 533.931 1601.85 534.036C1606.01 534.191 1610.18 534.076 1614.83 534.076C1614.96 535.792 1615.16 537.224 1615.16 538.656C1615.18 564.572 1615.08 590.489 1615.27 616.404C1615.3 620.711 1613.86 621.734 1609.81 621.677C1598.09 621.511 1598.09 621.668 1598.09 610.079C1598.09 591.018 1598.09 571.957 1598.09 552.394Z" fill="black"/>
</svg>
